<svg xmlns="http://www.w3.org/2000/svg" width="1864" height="214.55" viewBox="0 0 1864 214.55">
      <path fill="#20242b" d="M1864,154.91l-2.88-.2c-.27-1.4-.61-2.89-1-4.52.86.14,1.69.25,2.58.42-.88-.2-1.74-.37-2.6-.53-.64-2.61-1.38-5.55-2.12-9,.48,3.33,1,6.24,1.3,8.85a83.86,83.86,0,0,0-15.91-1.35c0-1.76.08-3.7.2-5.9a23.76,23.76,0,0,1-1.36,5.92c-17.89.5-31.13,7-36.88,12.45l-.57-.17c9.66-15.21,18.57-15.43,37.91-20.08.38-.09.7-.22,1-.33,0-.21,0-.4,0-.61-29,5.42-35.12,6.07-44,19.57l-.11,0c4.64-12.09,1.82-13.11-2.93-27.65,3.3,18.35-3.53,21.89-10.92,22.54,3.79-6.27,6.1-10.62,7.13-15.83,1.14-.44,2.33-.9,3.6-1.41-1.19.28-2.35.53-3.49.76a39,39,0,0,0,.53-7.13,114.89,114.89,0,0,1,14.94-3.49c-4.71.7-9.81,1.67-14.94,2.8a115.53,115.53,0,0,0-1.12-12.6c-.08,7.3.14,10.15-.5,13-18.79,4.25-37.63,10.71-40.56,14.26,5.65-14.13,14.26-15.25,25.94-27.25-7.91,4.8-27.7,18.89-34.71,26.12l-.28-.08c6.16-11,10.06-14,11.15-26.94-4.21,12.15-5.79,15.63-20.1,23.88l-1.69-.68c9.31-11.94,9-17.26,7.27-32.18-1.26,18.82-5.08,26.62-16.74,30.58l-2.28-.59c3.66-4.75,7.52-9.44,13-13.41-8.21,3-14.75,7-19.31,11.78l-.54-.14c.45-3.41,2.27-6.48,3.6-9.67,3.78-9,1.83-13.29-3.4-24,4.12,12.22,3.47,19.65-9.64,27.57,2.72-9.68.88-14,.08-24.43-.5-.21-.84.1-.85.36-.25,10.42-1.92,14.17-7.89,23.06a70,70,0,0,1,5.86-19.87c-9.43,6.22-14.13,11.2-19.4,19l-.09,0a98.87,98.87,0,0,0,4.44-14.88c-1.43,5-2.5,10.4-8,14l-1.1-.27a37.51,37.51,0,0,0,1.76-13.4c3.34-1.29,6.53-2.49,9.18-3.78a86,86,0,0,1-9.22,3.21,62.65,62.65,0,0,0-1.39-9.28c1.8-1.12,3.69-2.33,5.73-3.68a50.85,50.85,0,0,0-6,2.38c-.64-2.82-1.41-5.8-2.24-9.08a30.73,30.73,0,0,1,.48,9.92c-9.61,4.68-21.28,12.55-24.19,17.46l-.1,0c3-8.06,5.81-14.47,12.16-21.67a45.51,45.51,0,0,0-4.42,3.18c-4,0-7.8,0-11.48.22,0-.8,0-1.63,0-2.49,7.66-.79,15.76-1.09,23.92-1.74-5-.38-14.77-.13-23.88.44,0-.93.08-1.88.13-2.89-.43,1-.84,2-1.24,3-4.19.27-8.19.61-11.48,1-.26-.78-.54-1.55-.82-2.3,6.51-3,13.35-5.92,19.24-8.33-3.74.59-12.32,3.08-20.18,5.93-.39-.92-.79-1.83-1.21-2.74.36,1,.69,1.9,1,2.83l-.84.32c.34.92.64,1.75.88,2.52l.61-.29c.16.73.29,1.45.4,2.16l-.51.06a10,10,0,0,1,.17,2.37l.29-.07.32-.06c.05.52.07,1,.09,1.57l-.44.07c-.09-.41-.19-.82-.29-1.24a10.62,10.62,0,0,1-.21,1.32c-8.92,1.41-16.44,3.86-22.07,7.75l-.17,0,.07-.11-.13.1-.49-.11a16.62,16.62,0,0,1,1.84-1.76,12.17,12.17,0,0,1,3.86-2.81,141.79,141.79,0,0,1,16.19-8.68c-.23-.86-.45-1.74-.68-2.66-5.68,2.12-10.82,4.39-13.23,6.15a73.71,73.71,0,0,0-8,6.17c2.62-3.13,5.42-5.35,8-9.76,3.74-6.28,6.23-13,4.41-20.47,1.86,7.18-2.25,13.34-7.3,18.93-4.66,5.15-9.43,6.62-12.1,11.79a45.14,45.14,0,0,1,8.47-12.61c-6.79,3.5-9.9,8.26-13.11,13.15l-1.39-.3c1.67-4.82,4-12.3,3.23-20.69l0-.06,0,0a33.14,33.14,0,0,0-1.1-6c1.76-1.13,3.71-2.34,6-3.86-2.15,1.16-4.17,2.27-6.1,3.36a33.49,33.49,0,0,0-2.41-6,27.42,27.42,0,0,1,1.11,6.78c-10.24,5.93-17.27,11.4-21.68,20.44,3-6.95,6.37-11.64,11.1-18.1-1.56,2-12.55,12.18-16.63,18.43l-1.28-.27a18.94,18.94,0,0,1,1.42-4.81,22.75,22.75,0,0,0,1.33-10.11A177,177,0,0,1,1583,72c-4.19,3.67-8.15,7.05-11.73,10.36-.11-.38-.19-.75-.3-1.13l.51-.74-.58.47a98.64,98.64,0,0,0-4.33-10.87,23.63,23.63,0,0,1,1.9,12.85c-6.43,5.16-12.2,9.56-15.14,15.94h-.08c3.87-10.26,1.07-19.34-1.85-31-1.77,6.5-3.31,11.87-4.89,17.47a57.57,57.57,0,0,0-.21-19.48l1.87-1.45c-.69.37-1.33.74-1.94,1.11-.22-1.29-.44-2.6-.73-4a35.07,35.07,0,0,1,.62,4c-7.62,4.64-9.51,9.11-14.36,15.26-3.12,4-7.31,7.7-8,12.24h0c.42-6.08,3.54-11.72,9.17-16.41-7.08,4.4-10.33,9.9-14,15.48l-2.78-.53a33.38,33.38,0,0,0,.49-10.7c.82-.9,1.67-1.83,2.54-2.83,4.62-5.33,9.16-9.7,17.21-13.64A134.21,134.21,0,0,0,1515.89,77c-.32-1.31-.71-2.63-1.18-4,.38-.51.76-1,1.16-1.59l-1.28,1.24c-1-2.84-2.26-5.89-3.79-9.41a100.37,100.37,0,0,1,1.54,11.53c-5.07,4.73-9.1,8.23-12.67,13.74l-.27,0c4-8.82,4.75-15.5,1.49-24,1.72-1.29,3.54-2.62,5.49-4a63.48,63.48,0,0,0-6.11,2.53,71.92,71.92,0,0,0-5.2-9.75,36.49,36.49,0,0,1,3.86,10.42,65.2,65.2,0,0,0-9.58,5.94c-.75-2-1.75-4.21-2.94-6.9l.37-.62-.48.36a2.29,2.29,0,0,1-.1-.23c0,.09,0,.17,0,.26-9.35,6.95-14.14,11.76-15.24,20.92h0c.89-6.36.68-11-.88-15.82.32-.42.63-.85,1-1.29A21.75,21.75,0,0,1,1473,64c-1.14.84-2.2,1.69-3.23,2.54-.44-1.23-1-2.5-1.58-3.82,2.42-2.58,5.7-2.68,7.84-5.8-4.26,1.6-6.74,1.7-9,3.45-1.16-2.23-2.54-4.66-4.19-7.42a55.84,55.84,0,0,1,3.57,8c-.2.19-.41.37-.61.6-6.35,7-9.92,11.29-11.72,18.87l-.26-.05c.86-8.61,4-13.78,10.38-21.69-8.12,7.45-11.27,12.4-12.81,21.28h0c.88-6.25,1.74-11.56.41-18.49,2.39-2.06,4.36-3.52,5.12-4.07-.69.49-2.65,1.8-5.22,3.57a48.35,48.35,0,0,0-1.94-6.79,84,84,0,0,1-.9,8.75l-3.74,2.63a44.55,44.55,0,0,0-.68-7.1c-.75,3.18-1.47,6.19-2.18,9.16a112.13,112.13,0,0,0-11.23,9l-.81-.13c2.07-5.69,5.71-10.35,11.11-15.31-7,4.76-12.19,8.88-16.46,14.45l-2.33-.37,1.63-3.27a30.89,30.89,0,0,0,2.3-5.44,14.63,14.63,0,0,0,.44-2.21c5.42-4.57,10.84-9,16.45-14.4-5.58,4.14-11,7.67-16.44,11.14a29.48,29.48,0,0,0-.56-3.49c.5-.48,1-.95,1.51-1.46-.53.39-1.06.76-1.59,1.13a29.81,29.81,0,0,1-1-8.14c-1.28,4.25-1.3,6.56-2,10.17-6.83,4.49-13.24,8-18.59,13.19l-.78-.12c4.49-7.66,8.73-13.25,13.42-21.35a22.66,22.66,0,0,1,3.24-4.6c-9.38,8.62-18.17,15.1-21.48,25.22l-.58-.09a51.66,51.66,0,0,0-3.61-11.28c3.06-5.17,6.47-10.13,10-16.08-3.15,5.1-7.47,9.08-11.34,13.18a93,93,0,0,0-4.38-8.36,49.75,49.75,0,0,0-2-9.93,27.81,27.81,0,0,1,.89,8.17c-.37-.6-.75-1.17-1.13-1.75.37.66.74,1.35,1.1,2a23.77,23.77,0,0,1-1.8,7.84c.9,1.24,1.77,2.38,2.53,3.53a38.52,38.52,0,0,0,.4-9.09c2.07,4.32,3.55,8.2,3.37,7.31.07.35.13.7.2,1-.92,1-1.8,2-2.63,3a12.19,12.19,0,0,1,.74,1.91,11.82,11.82,0,0,1,.3,1.31c-.45-.9-.92-1.79-1.47-2.68a30.33,30.33,0,0,0-2.74,4.24,40.12,40.12,0,0,0,1.65-5.89c-.85-1.25-1.78-2.49-2.81-3.73-2.14,4.63-5.42,8.44-8.37,12.06l-.71-.1a86,86,0,0,1,5.81-15.65c-.35-.37-.67-.74-1-1.11-5.47,4.91-8.29,10.13-10.78,15.91l-1.25-.18c-2.79-11.22-2.56-19.82,1.58-30.5-6.34,10-6.49,18.48-6.46,29.12a19.64,19.64,0,0,0-1.86-3.3c-.88-1.39-1.68-2.74-2.4-4.07a24.53,24.53,0,0,1-.11,7.46l-1.24-.17a41.33,41.33,0,0,0-2-5.5c-2.94-6.8-6.36-11.92-9.85-18.4,4.17,8.17,5.4,15.19,3.42,22.75l-.31,0c.9-5.78-.46-11.54-3.89-17.27.16-.23.31-.45.48-.68l-.55.58a42.39,42.39,0,0,0-3.39-4.82,29,29,0,0,0,1.84-12,27.35,27.35,0,0,1-2.45,11.25,60.68,60.68,0,0,0-4.45-4.76,23.58,23.58,0,0,1,3.13,6.61c.06.18.09.35.14.52a35.19,35.19,0,0,1-3.92,5.71c-3.89,4.64-9,7.35-13.47,11.4l-1-.13c2.48-4.37,6.66-7.23,12.7-11-8.34,3.43-13.89,5.4-18.1,10.29h-.11c3.38-6.17,6.54-10.43,10-16.67a27.73,27.73,0,0,1,2.26-3.65c-.44.3-.88.6-1.29.91a24.16,24.16,0,0,0-5.09,5.56c-3.65,5-7,8.45-8.79,13.49l-.32,0c1.09-7.13-.11-13.83-3.45-20.81,1.93-3.08,4-6.22,6.09-9.52-2.58,2.59-4.88,5.1-7,7.59a73.92,73.92,0,0,0-5.58-8.84,28.33,28.33,0,0,0,1.26,8.49c-8.67,6.45-11.06,13-16.31,20.13l-.77-.09a52.91,52.91,0,0,0,3.18-8.14c2.05-7.87-.35-14.28-6.57-22.41a18.76,18.76,0,0,1,3.39,11.71c-.18,7.08-3.08,12-8.66,17.86l-2.2-.24c1-7.11,3.12-12.12,6.86-18.84-7.75,5.83-10.84,11.25-12.73,18.19h0c1.66-7.18-.06-11.85-4.48-19.89-.1,7.79-.16,12.41-1.31,19.27l-.71-.08c-.25-6.62-.41-11.82-1.69-18,2.54-3.46,6.15-6.25,11-10.36A61.92,61.92,0,0,0,1263,35.21c-.43-1.89-1-3.88-1.63-6,.38,2.54.63,4.83.76,7a34.34,34.34,0,0,0-8,17.05l-1.39-.15c-.84-3.2-.31-6.37.27-9.49a22.35,22.35,0,0,1,2.38-7.11c1.2-2.53,2.78-2.88,4.56-5.29-5.13,4-6.86,4.69-8.22,9.55-1.12,4-1.6,8-3,11.93l-1.62-.16c3.53-8.07,3-13.2-1.07-22.1,1.7,8.8.08,13.3-5.47,21.17,2.08-6.6,3.87-11.15,5.76-17.78-3.65,5.65-6.49,9.88-8.77,15.38,2.91-8.18,2.06-15.52-2.36-24.45,1.67,4.87,3.53,7.76,1.94,12.39-1.11,3.18-3.72,6.1-6.3,9a34.77,34.77,0,0,1-4.44,4.38l-1.35-.12c2.57-6,6.17-10.33,11.1-16.12-8,5.06-11.75,9.71-15.17,15.74l-.65-.06c.77-3,2.49-5.94,3.74-8.91,3.32-8,2.9-14.4-.94-22.82.73,4.26,1.46,8.54.34,12.65-.86,3.14-2.59,4-4.33,7.05A96.32,96.32,0,0,0,1214,48.2a127.91,127.91,0,0,1,7.69-16.84c-5.9,6.1-10.89,10.41-12.49,17.33,2.07-9.53,1.32-17.3-2-27.13,2.36,9.92-.81,17.78-6.59,26.6l-1.15-.1c.23-5.12.71-10.24,3.31-15.06A36.23,36.23,0,0,0,1193,47.52l-1.28-.11A50,50,0,0,1,1199,22.16c-6.75,7.77-10.9,16.17-12.44,24.82l-.51,0a18.68,18.68,0,0,1,2.76-9.48,55.1,55.1,0,0,0-5.68,9.25l-1.58-.13c1.35-6.28,2.15-12.68-1-19.08-1.32-2.68-3.33-5.31-4.37-8,3.37,9.05,3.47,18.32-2.49,26.47l-.38,0c2.83-5.89,2.25-12.24,1.59-18.49q-3.25,9.06-7,18.08l-.38,0c-2.07-6.45-.84-12.84.44-19.14a24.08,24.08,0,0,1,1.14-4.25c-4.36,7.32-5.32,15.22-6,23.07H1163l0-4.44c0-3.18,0-6.37-.13-9.56a20,20,0,0,0-1.59-7.76c-.77-1.63-1.91-3.25-2.18-4.88.49,4.55,1,9.13-.34,13.53a38.44,38.44,0,0,1-4,8.3l-2.41,4-.68,0q3.15-8.88,6.33-17.74c-4.52,5.59-7.25,11.54-9.74,17.5l-1.84-.12a16.29,16.29,0,0,1,.12-3.76,63.55,63.55,0,0,1,6.77-21.06,11.31,11.31,0,0,1,2.75-3.72,30.08,30.08,0,0,0-11.23,12.38,37.31,37.31,0,0,0-3.1,11.51c.19-4.15-1.26-8.4-.57-12.52.31-1.78,1-3.56.35-5.37-3.89,7-4.67,14.46-5.32,21.86h-.06c-.14-1.65-1.25-3.33-2-5-1.25-2.76-1.46-5.55-2.63-8.31a32.2,32.2,0,0,0-5.35-7.89,18,18,0,0,1,5.65-7.63,33.79,33.79,0,0,0-7.52,5.47c-.88-1-1.77-2-2.61-3a31.73,31.73,0,0,1,1.91,3.7,31.35,31.35,0,0,0-5.26,7.31,61.74,61.74,0,0,0-3.09,7.08c1.22-6.17-.07-12.6-2.06-18.91-.07,6.57-1.19,13.16-5.27,19.28-1.33,2-2.94,4-4.08,6h-.22q3.38-10.43,6.8-20.82c-3.36,5.36-6.72,10.77-8.49,16.34a29.45,29.45,0,0,0-2.7-15.37,33.67,33.67,0,0,1,7.41-8.93,21.64,21.64,0,0,0-8.83,5.25l-.31.31c0-.08-.08-.17-.13-.25,0,.12,0,.24,0,.36a76.75,76.75,0,0,0-7.42,8.6c-2.72,3.52-5.43,7.06-7.07,10.76,1.74-5.78,3.51-11.61,8-17a45.24,45.24,0,0,0-11.61,14.73c2.49-7.65,3.94-15.41.45-23.15a32.92,32.92,0,0,1-6.85,27.62l-.41,0a45.8,45.8,0,0,0,5.21-19,10.91,10.91,0,0,0-.53-4.47c-.75,8-4.2,15.89-10.07,23.28l-1.12-.05a41.59,41.59,0,0,1,6.19-12.32q-3.15,3.3-6.25,6.6a49.42,49.42,0,0,0-4.84,5.52l-.66,0c2.33-9.62-.18-19.65-7.56-29A19.24,19.24,0,0,1,1057,21.56q-6.17,8.6-12.28,17.2l-.67,0c.74-8.43,5.71-16.55,11.11-24.48a78.55,78.55,0,0,0-16.43,24.18q2-9.16,4-18.34A29.15,29.15,0,0,0,1035,34.22c-.28,1.39-.46,2.8-.85,4.19l-1,0c.54-7.66-2.07-15.45-7.73-22.81a34.47,34.47,0,0,1,3.68-5c-1.37,1.35-3,2.65-4.51,4-.56-.69-1.1-1.38-1.71-2.06.47.77,1,1.54,1.41,2.32-.76.67-1.5,1.35-2.15,2.05a26.91,26.91,0,0,0-4.36,6.83c-2.28,4.63-4.37,9.34-4.6,14.12h0a49.72,49.72,0,0,1,4.64-21.15c-5.57,6.65-7.44,13.87-9,21h-.2c.73-8.11,1-16.32-2.67-24.34a28.46,28.46,0,0,1,.66,13.08,21.55,21.55,0,0,1-6.48,11.08l-1.26,0c.55-2.54,2.34-5,5.25-7.13a48.57,48.57,0,0,0-9.79,7h-.76c1.74-4.6,3.1-9.26,2.11-13.93a32.69,32.69,0,0,0-2.29-6.24q-1.15-2.56-2.29-5.13A30,30,0,0,1,993,19.56c-8.62,4.94-12.63,11.27-15.75,17.57h-.76a69.48,69.48,0,0,1,11.66-27,26.25,26.25,0,0,0-6.6,6.59c-1.67,2.63-2.27,5.38-3.08,8.11a85.3,85.3,0,0,1-3,8.33c2.31-7.57,1.35-15.39-1.16-23,1,3.63,2,7.27,1.59,10.91-.62,5.43-4.35,10.64-6.41,16l-1,0c0-5.3,2.86-10.55,5.7-15.69C969,26.11,969.09,31.7,967,37h-.11c2.44-6.68,1-13.7-4.22-20.09,3.76,5.84.78,12-2.18,17.94a20.64,20.64,0,0,1-1.17,2.08l-2.41,0c-.12-5.83,2.25-11.66,7-17-7.32,4.92-9.39,11-10.82,17H952a15.82,15.82,0,0,1-.05-6.17,20.27,20.27,0,0,1,1.61-6.16c2.08-4.34,6.92-8.27,10.58-12.37-10.47,7.19-13.75,16-16.32,24.68H947a27.27,27.27,0,0,1,.38-12.25l.84-1c-.23.17-.49.33-.72.51A32.71,32.71,0,0,1,951.7,15a29.64,29.64,0,0,0-6.83,11c-1,.66-1.88,1.33-2.87,2a44.42,44.42,0,0,0-1.27-6.48,83.84,83.84,0,0,0,8.17-10.36,26.3,26.3,0,0,1-2.3,2.44,48.47,48.47,0,0,0-6.91,4.82A31.48,31.48,0,0,0,937,13c1.86-2.19,3.78-4.56,5.76-7.22-2.22,2.11-4.44,4-6.66,5.89-.54-.78-1.11-1.54-1.75-2.3a22.87,22.87,0,0,1,1.19,2.77c-2.62,2.22-5.24,4.43-7.85,6.94a71.69,71.69,0,0,1-7.55,6.15c0-.15,0-.29,0-.44,1-.91,2.11-1.82,3.23-2.71-1.12.75-2.2,1.51-3.27,2.29a20.29,20.29,0,0,0-3.57-10.14,18.22,18.22,0,0,1,.91,12.13,46.92,46.92,0,0,0-8.54,8.28,28.83,28.83,0,0,0,2.38-9.4,51.47,51.47,0,0,1,5.89-7.69,39.83,39.83,0,0,0-5.9,6.16,20.11,20.11,0,0,0-2.25-8c5-1.86,10.2-3.64,15.07-5.47-5.43,1.91-10.61,3.32-15.52,4.57-.2-.4-.41-.81-.64-1.22.83-.8,1.64-1.59,2.55-2.37-.94.72-1.78,1.45-2.65,2.19-.44-.83-.92-1.7-1.44-2.6.8-.13,1.57-.28,2.4-.39-.83.08-1.64.18-2.45.29-1.31-2.3-2.8-4.86-4.43-7.94,1.37,3,2.63,5.65,3.66,8A74.06,74.06,0,0,0,895.32,13c-.58-.57-1.2-1.14-1.87-1.7.58.59,1.12,1.18,1.64,1.78-1.39.4-2.74.83-4,1.3-.48-1.68-1-3.55-1.5-5.68a25.21,25.21,0,0,1,.47,6.06,67.6,67.6,0,0,0-10.8,5.15,33,33,0,0,1,.33-7.22c2.58-1.66,5.46-3.44,8.66-5.51a9.48,9.48,0,0,0,.83-.63c0-.2-.09-.39-.13-.59-11.16,6.4-18.26,10.4-23.1,14.34a32.29,32.29,0,0,0-4.47-1.7,34.31,34.31,0,0,1,4.26,1.87c-5.53,4.56-8,9.12-10.17,17.43h-.1c.68-12.93-2.12-13-10.46-25.48,8.15,16.49,3.08,21.93-3.3,24.77,1.59-7.12,2.4-12,1.84-17.24.89-.76,1.81-1.56,2.79-2.43-1,.63-1.93,1.22-2.88,1.78a40.46,40.46,0,0,0-1.56-7A105.63,105.63,0,0,1,854,4.52c-4,2.08-8.23,4.54-12.48,7.16A122.5,122.5,0,0,0,837,0c2,7,3,9.64,3.24,12.51-15.49,9.7-30.4,21.51-32,25.77,1-15.17,8.35-18.81,15.32-33.77-5.67,7-19.26,26.32-23.44,35.31h-.27c2.34-12.36,4.95-16.4,2.25-29-.28,12.85-.7,16.64-11.08,28.79l-1.7-.14c4.89-14.18,3.08-19.16-2.69-32.89,4.23,18.34,3.06,26.92-6.2,34.18l-2.19.12c1.9-5.62,4-11.25,7.8-16.7-6.46,5.31-11.13,11.09-13.84,17l-.51,0c-.58-3.39.17-6.87.45-10.31.78-9.76-2.16-13.23-9.87-21.9,7.16,10.44,8.69,17.72-.72,29.19-.34-10-3.2-13.6-6.9-23.34a.52.52,0,0,0-.64.59c2.73,10,2.32,14.1-.47,24.36a74.8,74.8,0,0,1-.44-20.71C746.46,27.82,743.69,34,741.22,43h-.09a105.76,105.76,0,0,0-.28-15.52c.16,5.23.73,10.67-3.11,15.74l-1.06.07a40,40,0,0,0-2.25-13.32c2.61-2.21,5.1-4.31,7.1-6.33a80.18,80.18,0,0,1-7.3,5.8A65.77,65.77,0,0,0,730.34,21c1.29-1.61,2.63-3.31,4.06-5.21a47.23,47.23,0,0,0-4.68,4.06c-1.37-2.51-2.91-5.13-4.58-8a32.56,32.56,0,0,1,3.25,9.33C721.16,28.44,713,39.39,711.8,45h-.1c.4-8.58,1.07-15.53,4.67-24.28a44.12,44.12,0,0,0-3,4.34c-3.55,1.15-6.94,2.34-10.18,3.6-.22-.77-.44-1.57-.66-2.39,6.61-3,13.74-5.7,20.83-8.73-4.58,1.12-13.21,4.24-21.17,7.48-.23-.9-.47-1.82-.71-2.81-.08,1.13-.17,2.18-.26,3.2-3.68,1.5-7.12,3-10,4.31-.46-.67-.93-1.32-1.39-2,4.94-4.8,10.22-9.59,14.79-13.63-3.17,1.67-10.12,6.58-16.32,11.62-.6-.76-1.22-1.52-1.86-2.26.6.8,1.16,1.61,1.67,2.42l-.66.54c.58.79,1.08,1.49,1.51,2.15l.47-.45q.51,1,1,1.95l-.43.2a9.75,9.75,0,0,1,.82,2.22l.24-.15.27-.16c.19.49.36,1,.53,1.47l-.38.2c-.19-.36-.4-.73-.61-1.09a8.92,8.92,0,0,1,.19,1.32c-7.55,4-13.57,8.52-17.48,13.89h-.16a.5.5,0,0,1,0-.12l-.08.13-.47,0A16.23,16.23,0,0,1,674,45.79,11.86,11.86,0,0,1,676.64,42a139.68,139.68,0,0,1,12-13.06c-.44-.75-.9-1.53-1.36-2.33-4.46,3.69-8.4,7.37-10.06,9.76a73.32,73.32,0,0,0-5.37,8.25c1.44-3.77,3.31-6.71,4.4-11.7,1.55-7.09,1.84-14.29-1.9-20.85,3.7,6.31,1.8,13.41-1.12,20.24-2.69,6.29-6.53,9.09-7.45,14.82a47.09,47.09,0,0,1,4-14.55c-5.07,5.35-6.49,10.81-8,16.42l-1.33.12c.12-5.1,0-12.92-3-20.71l0-.08,0,.05A35.28,35.28,0,0,0,654.73,23c1.24-1.6,2.64-3.33,4.21-5.44-1.58,1.74-3.07,3.39-4.48,5a32.78,32.78,0,0,0-3.88-5.06,29.18,29.18,0,0,1,2.93,6.15c-7.46,8.66-12.18,16-13.54,25.88.66-7.51,2.37-13,4.75-20.54-.84,2.32-7.73,15.3-9.6,22.47l-1.22.12a20,20,0,0,1-.1-5,24.32,24.32,0,0,0-1.7-10.06,184.25,184.25,0,0,1,5.29-17.76c-2.7,4.74-5.27,9.13-7.53,13.34-.2-.33-.38-.67-.59-1,.08-.29.16-.56.24-.86-.12.22-.25.41-.38.62a101.26,101.26,0,0,0-7-9.12,24.53,24.53,0,0,1,5.36,11.73c-4.27,6.8-8.17,12.69-9,19.65h-.07C619,42.18,613.9,34.32,607.94,24c.27,6.73.43,12.31.62,18.13a60.91,60.91,0,0,0-5.76-18.56c.41-.64.83-1.28,1.26-1.93-.51.55-1,1.09-1.41,1.62-.57-1.17-1.14-2.35-1.79-3.56a33.14,33.14,0,0,1,1.7,3.66c-5.48,6.65-5.9,11.48-8.48,18.77-1.66,4.69-4.34,9.48-3.65,14h0c-1.36-5.94-.18-12.23,3.53-18.36-5.09,6.26-6.43,12.47-8.11,18.87l-2.65.3a34.93,34.93,0,0,0-2.62-10.38c.48-1.09,1-2.23,1.47-3.44,2.61-6.43,5.42-11.94,11.51-18a130.07,130.07,0,0,0-14.72,18c-.66-1.15-1.39-2.31-2.2-3.49.19-.6.39-1.21.58-1.85-.27.53-.53,1.05-.79,1.55-1.69-2.43-3.7-5-6.08-7.9A102.6,102.6,0,0,1,575,42c-3.19,6-5.79,10.51-7.41,16.81l-.26,0c1.09-9.61-.18-16.21-5.54-23.39,1.18-1.73,2.43-3.53,3.78-5.44a60.58,60.58,0,0,0-4.75,4.18,72.82,72.82,0,0,0-7.45-7.81,37.12,37.12,0,0,1,6.44,8.85,61.28,61.28,0,0,0-6.89,8.45c-1.24-1.68-2.76-3.52-4.61-5.75.06-.24.1-.46.16-.7l-.33.48c-.06-.06-.1-.12-.16-.19,0,.09.08.16.13.24-6.4,9.35-9.31,15.33-7.68,24.41h0c-1-6.34-2.53-10.68-5.33-14.87.17-.51.33-1,.52-1.52a22.85,22.85,0,0,1,1.12-2.63c-.78,1.13-1.49,2.25-2.17,3.36-.74-1-1.58-2.11-2.51-3.19,1.43-3.17,4.34-4.21,5.36-7.82-3.35,2.76-5.55,3.58-7.07,5.9-1.68-1.8-3.61-3.72-5.89-5.88a56.07,56.07,0,0,1,5.49,6.57,7.33,7.33,0,0,0-.38.74c-3.69,8.57-5.67,13.67-5.11,21.43l-.25,0c-1.69-8.49-.38-14.34,3.1-23.75-5.14,9.47-6.56,15.11-5.4,24.05h0c-1-6.23-1.75-11.56-4.93-17.81,1.56-2.66,2.9-4.62,3.43-5.37-.48.67-1.86,2.49-3.66,4.93A50,50,0,0,0,513,40.38c.76,3.1,1.31,5.91,1.71,8.63-.84,1.14-1.72,2.35-2.61,3.59a47,47,0,0,0-2.64-6.6c.24,3.26.45,6.35.66,9.4a110,110,0,0,0-7.5,11.81l-.77.11c.24-6,2.17-11.54,5.59-17.84-4.95,6.58-8.4,12-10.64,18.56l-2.19.31c.17-1.2.35-2.39.52-3.59a32.64,32.64,0,0,0,.51-5.87,15.37,15.37,0,0,0-.24-2.24c3.56-5.92,7.15-11.74,10.64-18.5-3.81,5.57-7.69,10.5-11.56,15.39a31.88,31.88,0,0,0-1.5-3.18c.31-.61.63-1.2.94-1.84l-1.11,1.54a31.63,31.63,0,0,1-3.28-7.49c.07,4.43.72,6.65,1.17,10.29-4.85,6.26-9.61,11.43-12.92,18l-.73.11c1.84-8.61,4-15.18,5.94-24.27a22.9,22.9,0,0,1,1.59-5.32c-6,10.93-12,19.65-12.08,30.28l-.54.08a52,52,0,0,0-6.48-9.76c1.28-5.84,2.92-11.55,4.43-18.27-1.36,5.78-4.11,10.83-6.41,15.86-1.94-2.28-4.09-4.58-6.33-6.75a51.8,51.8,0,0,0-4.6-8.94,29.61,29.61,0,0,1,3.14,7.56c-.5-.46-1-.9-1.52-1.35.53.53,1.06,1.08,1.58,1.65a25,25,0,0,1,.63,8c1.16.94,2.27,1.78,3.29,2.66a41.16,41.16,0,0,0-2.25-8.82c3.1,3.55,5.53,6.84,5.12,6l.48,1c-.54,1.21-1,2.44-1.49,3.67a11.48,11.48,0,0,1,1.21,1.61,11.19,11.19,0,0,1,.65,1.17c-.66-.73-1.34-1.45-2.09-2.14a31,31,0,0,0-1.25,4.84,42.23,42.23,0,0,0-.2-6.12c-1.12-.94-2.31-1.86-3.59-2.76-.61,5-2.46,9.63-4.07,13.94l-.67.1a90,90,0,0,1,.74-16.63c-.42-.26-.82-.52-1.25-.77-3.52,6.26-4.56,12.06-5.14,18.3l-1.17.19c-5.72-9.94-8-18.24-7.32-29.64C434.57,57.63,436.88,65.84,440,76a21.66,21.66,0,0,0-2.62-2.63c-1.23-1.1-2.34-2.19-3.39-3.28a26.41,26.41,0,0,1,2.1,7.24l-1.16.19a44.51,44.51,0,0,0-3.41-4.68c-4.6-5.67-9.14-9.59-14.13-14.8,6.09,6.64,9.2,13,9.59,20.79l-.29,0c-.86-5.79-3.73-10.92-8.46-15.42.08-.27.15-.52.24-.79l-.33.7a42,42,0,0,0-4.43-3.64,30.62,30.62,0,0,0-1.78-12,29.06,29.06,0,0,1,1,11.46,59.26,59.26,0,0,0-5.37-3.28,24.22,24.22,0,0,1,4.72,5.44c.09.15.17.3.27.45a35.86,35.86,0,0,1-1.89,6.58c-2.18,5.55-6,9.59-8.86,14.74l-1,.16c1-4.88,3.92-8.81,8.28-14.1-6.53,5.65-11,9.11-13.35,15l-.1,0c1.28-6.87,2.9-11.84,4.19-18.78a28.45,28.45,0,0,1,1-4.13c-.31.41-.62.82-.9,1.22a24.45,24.45,0,0,0-3,6.77c-1.85,5.84-3.83,10.06-4,15.41l-.31,0a36.12,36.12,0,0,0-9.07-18.94c.86-3.49,1.77-7.06,2.75-10.83-1.58,3.2-2.93,6.26-4.14,9.25a71.63,71.63,0,0,0-7.57-6.88,29.63,29.63,0,0,0,3.57,7.77c-6,8.63-6.23,15.57-8.92,23.88l-.72.14a54.49,54.49,0,0,0,.53-8.7c-.4-8.11-4.4-13.56-12.35-19.59a19.4,19.4,0,0,1,6.42,10.25c1.87,6.83.67,12.4-2.69,19.55l-2,.39c-1.16-7.08-.66-12.48.79-20-5.33,7.78-6.55,13.84-6.27,21h0c-.56-7.35-3.45-11.33-9.75-17.78,2.15,7.48,3.43,11.92,4.36,18.81l-.67.13c-2.13-6.26-3.76-11.2-6.69-16.78,1.29-4,3.75-7.71,7-13a60.38,60.38,0,0,0-7.49,12c-.93-1.69-2-3.44-3.2-5.32,1.07,2.32,1.95,4.44,2.69,6.47a35.58,35.58,0,0,0-2.3,18.57l-1.3.25c-1.67-2.83-2.11-6-2.48-9.16a23.81,23.81,0,0,1,.11-7.48c.36-2.76,1.68-3.54,2.6-6.35-3.48,5.27-4.85,6.42-4.68,11.46.15,4.17.85,8.11.69,12.28l-1.5.29c.86-8.72-1.13-13.46-7.31-20.85,4.06,7.94,3.88,12.71,1.13,21.81,0-6.91.29-11.77.1-18.65-1.68,6.45-3,11.29-3.5,17.2.28-8.65-2.6-15.44-9.15-22.75,2.91,4.19,5.42,6.44,5.3,11.32-.08,3.36-1.6,6.88-3.1,10.38a34.31,34.31,0,0,1-2.75,5.44l-1.26.26c.6-6.46,2.61-11.62,5.4-18.55a40.35,40.35,0,0,0-9.18,19.33l-.61.13c-.17-3.12.55-6.39.82-9.59.72-8.54-1.51-14.59-7.39-21.58,1.88,3.87,3.76,7.77,3.93,12,.13,3.25-1.18,4.61-1.88,8a97.85,97.85,0,0,0-1.7,11.33,134.1,134.1,0,0,1,2.12-18.28c-3.58,7.49-6.85,13-6.32,20.09-.85-9.7-3.76-16.93-9.54-25.42,5,8.84,4.38,17.24,1.68,27.31l-1.07.23c-1.26-5-2.29-10-1.33-15.34a36.75,36.75,0,0,0-4.7,16.64l-1.19.26A52.4,52.4,0,0,1,278,81a53.44,53.44,0,0,0-4.12,27.25l-.47.1a19.5,19.5,0,0,1-.23-9.85,56.62,56.62,0,0,0-2.48,10.44l-1.46.33c-.59-6.4-1.7-12.75-6.4-18-2-2.19-4.53-4.16-6.25-6.44,5.65,7.72,8.33,16.58,5.28,26.05l-.28.07c.87-6.43-1.48-12.35-3.87-18.15q-.33,9.59-1.12,19.26l-.34.08c-3.73-5.6-4.46-12.06-5.11-18.46a25.48,25.48,0,0,1-.18-4.38c-1.84,8.23-.45,16.06,1.22,23.75l-.14,0c-.41-1.42-.83-2.84-1.25-4.26-.89-3-1.79-6.1-2.85-9.11a20.75,20.75,0,0,0-3.68-7c-1.16-1.35-2.66-2.58-3.37-4.06,1.75,4.22,3.49,8.47,3.58,13a39.93,39.93,0,0,1-1.23,9.06c-.32,1.51-.67,3-1,4.55l-.63.14q.3-9.37.63-18.76c-2.48,6.62-3.25,13.08-3.78,19.48l-1.71.4a17,17,0,0,1-1-3.64,66.17,66.17,0,0,1,.09-22.06,11.15,11.15,0,0,1,1.42-4.32,29.82,29.82,0,0,0-6.61,15,39,39,0,0,0,.49,11.89c-1-4-3.55-7.69-4.1-11.83-.24-1.79-.12-3.69-1.23-5.23-1.51,7.8-.08,15.14,1.46,22.41l-.1,0c-.6-1.54-2-2.85-3.2-4.23-1.92-2.29-2.91-4.9-4.76-7.23a32.06,32.06,0,0,0-7.11-6.07,17.93,17.93,0,0,1,2.93-8.87,32.18,32.18,0,0,0-5.25,7.33c-1.08-.72-2.17-1.43-3.23-2.16a31.2,31.2,0,0,1,2.79,3A32.49,32.49,0,0,0,206.7,109a65,65,0,0,0-.77,7.9c-.62-6.34-3.63-12.24-7.29-17.8,1.83,6.31,2.7,12.93.77,19.93-.64,2.28-1.54,4.6-2,6.87l-.2,0q.08-10.9.19-21.82c-1.51,6.07-3,12.18-3,18a30.86,30.86,0,0,0-6.86-14,33.61,33.61,0,0,1,4.14-10.61,20.3,20.3,0,0,0-6.49,7.48c-.07.13-.12.25-.19.38l-.2-.21c.06.11.08.23.13.34a76.27,76.27,0,0,0-4.25,10.3c-1.46,4.12-2.9,8.26-3.33,12.26-.08-6-.14-12.09,2.39-18.46a45.28,45.28,0,0,0-6.3,17.32c.06-8-.85-15.85-6.24-22.29A34.34,34.34,0,0,1,168.93,133l-.43.11a47.94,47.94,0,0,0-.69-19.69,11.25,11.25,0,0,0-1.77-4.13c1.63,7.89.76,16.38-2.45,25.08l-1,.26a42.59,42.59,0,0,1,2.08-13.5q-1.9,4-3.77,8a49.94,49.94,0,0,0-2.82,6.62l-.6.16c-.65-9.86-5.81-18.77-15.2-25.71a19.75,19.75,0,0,1,7,9.67q-3.14,9.91-6.19,19.82l-.62.16c-1.75-8.27.44-17.42,3-26.51a79.47,79.47,0,0,0-8,27.69q-.81-9.33-1.59-18.68a29.82,29.82,0,0,0-3,15.67c.14,1.41.38,2.81.43,4.24l-.87.24c-1.71-7.49-6.31-14.23-13.58-19.72a35.36,35.36,0,0,1,1.92-5.79c-.86,1.68-2,3.37-3,5.06-.71-.51-1.4-1-2.15-1.51l1.95,1.83c-.5.86-1,1.71-1.37,2.56a27.45,27.45,0,0,0-2,7.74c-.75,5.07-1.3,10.15-.13,14.79h0A52.16,52.16,0,0,1,112.25,126c-3.15,7.9-2.78,15.33-2.17,22.64l-.18,0c-1.67-8-3.79-15.91-9.43-22.59a30,30,0,0,1,4.37,12.35,21.85,21.85,0,0,1-2.72,12.39l-1.09.31a12.39,12.39,0,0,1,2.67-8.26,46.29,46.29,0,0,0-6.88,9.43l-.7.2c.26-4.88.16-9.72-2.09-13.92a33.48,33.48,0,0,0-3.87-5.34L86.6,129a30.68,30.68,0,0,1,3.92,6.62c-6.42,7.1-8.25,14.26-9.28,21.15l-.7.2a71.59,71.59,0,0,1,2.86-29A25.35,25.35,0,0,0,79.29,136c-.76,3-.52,5.77-.47,8.6a87.29,87.29,0,0,1-.38,8.81c-.07-7.88-3.19-15.11-7.67-21.73,2,3.2,3.91,6.41,4.58,10,1,5.37-.9,11.39-1.23,17.08l-.88.25c-1.51-5.08-.43-10.89.68-16.59-3.38,6-1.68,11.34-2,17l-.09,0c.3-7.07-3-13.41-9.62-18.09,5.1,4.56,4.17,11.33,3.17,17.78-.12.77-.26,1.53-.46,2.32l-2.21.64c-1.79-5.56-1.31-11.79,1.47-18.25-5.25,6.72-5.39,13.14-5,19.28l-1,.3a16.62,16.62,0,0,1-1.81-5.89,21.23,21.23,0,0,1-.31-6.34c.65-4.73,3.94-9.81,6.08-14.75-7.46,9.76-7.91,19.13-7.77,28.11l-.68.2c-3.44-6.63-4.18-14.2-2-22.21-4,8.32-3.5,16.06-1.87,23.37l-.14,0c-1.83-5.49-3.82-11-7.24-15.9a44.06,44.06,0,0,1,4.57-7.93,46.3,46.3,0,0,0-5.29,6.94,31.82,31.82,0,0,0-7.47-7.17,24.68,24.68,0,0,1,5.69,10.29c-3.16,6.19-4.4,12.31-5.31,18.29l-1.83.56c-3.49-6.28-2.93-14,1.81-22-5.34,8.16-6,15.78-5.84,23.21l-1.41.43a33.74,33.74,0,0,0-1.68-12.09c.7-1.18,1.42-2.35,2.2-3.53-.81,1-1.59,2.07-2.34,3.11a21,21,0,0,0-6.15-8.76,19,19,0,0,1,4.31,11.36c-3,4.4-5.24,8.77-6.17,12.93l-.84.27c-.62-6.78.8-14.07,4.24-21.56-4.81,7.69-5.83,15-6.37,22.21l-.77.25A40.59,40.59,0,0,0,9.54,165.7a25.4,25.4,0,0,0-2-3,47,47,0,0,1,5.43-12.43,53.59,53.59,0,0,0-6.14,11.58,26.22,26.22,0,0,0-4.88-4.37c.38-1,.77-2.06,1.27-3.1a27.76,27.76,0,0,0-1.67,2.82c-.48-.32-1-.62-1.5-.91v.32c.44.31.89.62,1.31,1A26.46,26.46,0,0,0,0,160.66v16.58c.32,1.22.67,2.43,1,3.64l-.54.17c-.17-.17-.33-.34-.49-.52v34a3074,3074,0,0,1,1864-2.46V176.86c-.28.17-.57.33-.84.52l.84-.55v-6.67a34,34,0,0,0-9.57,4.65c7-7.64,8-12.34,6.88-19.1l2.69,0ZM945.84,14.28c-.81.73-1.67,1.44-2.58,2.12C944.07,15.68,945,15,945.84,14.28ZM3.94,180c-4.3-6.28-5.11-13.93-2.21-22.08a24.94,24.94,0,0,1,4.67,4.89,31.68,31.68,0,0,0-1.47,16.88Zm5-1.56-1.4.44A29.2,29.2,0,0,1,7.2,164,17.28,17.28,0,0,1,8.89,178.41Zm12.22-3.79-1.3.4a36.6,36.6,0,0,1,3.83-10.86A26.58,26.58,0,0,1,21.11,174.62Zm20.1-6.12-.49.15a23.62,23.62,0,0,1-.16-13.43A59,59,0,0,1,41.21,168.5Zm42.28-12.39a56.81,56.81,0,0,1,7.16-20.26,29.14,29.14,0,0,1,1.54,4.77,4.36,4.36,0,0,0-.28-.84c-.32,5-2.51,10.37-6.33,15.73Zm7.38-2.1-1.7.48a39.42,39.42,0,0,0,3-10.3,10.42,10.42,0,0,0,.09-2.94c.19.9.4,1.8.5,2.72A15.73,15.73,0,0,1,90.87,154Zm36.57-10.1-.09,0c-.08-5.47-4-10-7.88-14.31A51.77,51.77,0,0,1,122,145.4l-1.75.47a20.59,20.59,0,0,1-2.1-8.32,45.75,45.75,0,0,1,.62-14,39.92,39.92,0,0,1,4.62,5.22A22.23,22.23,0,0,1,127.44,143.91ZM150,133.16a19.87,19.87,0,0,1-1.4,5.13l-.64.17a50.17,50.17,0,0,0,1.49-17.86A29,29,0,0,1,150,133.16Zm36.44-4.54-1.31.33a22.22,22.22,0,0,1-.2-7.56,91.11,91.11,0,0,1,1.85-9.94C187.83,116.92,187.39,122.75,186.44,128.62ZM213.62,122l-1.82.43c-1.74-4.13-1-8.84-.37-13.51C214.39,113,217.09,117.32,213.62,122Zm-2.14-13.43c.11-.86.21-1.71.29-2.56.06-.65.1-1.29.14-1.93a46.31,46.31,0,0,1,5.84,15.75A40,40,0,0,0,211.48,108.57ZM341.87,94.18a20,20,0,0,1-2.75-10.05,21.81,21.81,0,0,1,.52-5.93,104.23,104.23,0,0,1,3.74,15.69Zm31.87-6c1.06-4.86,2.35-8.23,2.74-13.29.25-3.2.28-6.41,1.68-9.7.75,1.27,1.47,2.55,2.1,3.89-2.3,6.23-4.19,12.36-6.38,19.08Zm7.73-5a23.82,23.82,0,0,1-.83,3.69l-1.29.24c.63-4.7,1.44-9.16,2.39-13.61.05.24.12.45.16.7A30,30,0,0,1,381.47,83.19Zm31.9-20a29.78,29.78,0,0,1,2.35,5.08c-2.14,4.14-4.34,7.89-6.35,12.64C411,74.67,412.67,68.89,413.37,63.23Zm3,17.38-.76.13a39.59,39.59,0,0,1,.79-10.25A22,22,0,0,1,416.33,80.61Zm48.1-7.77-.7.11c.13-1.34.29-2.65.47-3.93A8.94,8.94,0,0,1,464.43,72.84Zm3-.45a30.3,30.3,0,0,0-3-4.41c.19-1.21.41-2.4.64-3.58a50.57,50.57,0,0,1,3.11,7.88Zm21.05-3.14-.19,0c.41-.78.82-1.57,1.23-2.33A23.47,23.47,0,0,1,488.44,69.25Zm-6.5,1-.36,0c3-5.91,6.19-10.56,9.29-16,0,.35.07.67.09,1,.07.86.09,1.72.09,2.58C488,61.82,484.93,65.84,481.94,70.2Zm28.72-4.1a14.92,14.92,0,0,1,0-2.91c.07.94.14,1.9.21,2.87Zm4.67-.65-.38,0A101,101,0,0,0,512.84,55c.64-1.58,1.35-3.13,2.1-4.59A83.74,83.74,0,0,1,515.33,65.45Zm13.44-1.8c-.79-4,.74-8.4,1.21-12.61.4-3.52.53-3.18,1.56-6.46a24.2,24.2,0,0,1,1.8,4,29.41,29.41,0,0,0-3.92,15Zm5.55-.73-1,.13A24.58,24.58,0,0,1,534,50.82,37.82,37.82,0,0,1,534.32,62.92Zm11-1.42h0a104.48,104.48,0,0,1,2.93-23.45A33.21,33.21,0,0,1,551.41,46C547.62,52.18,545.67,57.94,545.37,61.5Zm6.16-.78h-.06c0-.92.14-1.81.25-2.68C551.66,58.9,551.59,59.78,551.53,60.72Zm10-1.23h0a86,86,0,0,0-2.1-18.14,41.43,41.43,0,0,0-2.59,10.58A16.86,16.86,0,0,0,555,46.86a74.85,74.85,0,0,1,5.64-9.77C563.31,43.79,562.29,50.17,561.57,59.49Zm8.94-1.38c1.3-5.88,3-9.87,4.88-15,.4,1.17.74,2.32,1,3.49C573.45,51.29,571.27,55.45,570.51,58.11Zm7.19-.54a14.11,14.11,0,0,1,.12-2.69c.07.86.13,1.74.17,2.66Zm17.39-2c-3.28-11,.36-20.53,7.62-31.91a33.4,33.4,0,0,1,2.21,9.51c-6.79,7.73-8.56,14.43-9.16,22.33Zm7.6-.83-.73.08c-1.28-7.19-.19-13.4,3-20.86C605.38,40.64,604.06,47.31,602.69,54.77Zm25.08-18.62.15-.51,0,.15Zm17.09,14.36a15,15,0,0,1-.27-4.95c.39-3.76,1.87-7.55,3.35-11.32a37.85,37.85,0,0,1,5.79-10,37.92,37.92,0,0,1,1.54,6.87c-5.33,7-8.83,11.83-9.94,19.33Zm6.21-.57-.26,0a97.08,97.08,0,0,1,4.69-16.17C655.77,39.35,654.64,45.16,651.07,49.94ZM690.9,37.78a18.71,18.71,0,0,1-.55,2.8,125.4,125.4,0,0,0-13.74,7.11l-1.17.1C679.59,43.57,685,40,691,36.62,691,37,690.94,37.38,690.9,37.78Zm1.57-2,0,0c0,.11.07.22.1.33Zm7.59,10a19,19,0,0,0-2.29-6.24l2.34-1.32c-.1,2.32-.11,4.76,0,7.55Zm.11-8.86c-1.13.34-2.23.71-3.32,1.08-.68-1.1-1.43-2.22-2.23-3.37q2.93-1.53,6-3.05C700.42,33.44,700.27,35.19,700.17,37Zm.62-7.41q-3.88,1.59-7.41,3.31c-.31-.45-.62-.92-.93-1.39a91.94,91.94,0,0,1,8.6-4.56C701,27.82,700.88,28.7,700.79,29.55ZM708,45.23c-1.52-5.94-2.91-10.11-4.36-15.09,3.13-1.54,6.31-3.11,9.5-4.72-4,6.64-5.06,12.8-4.74,19.78Zm13.5-1-.53,0a31.9,31.9,0,0,1,3.42-4.79Q723.08,41.81,721.46,44.26Zm5.24-9.63c-3.83,2.76-7.07,5.6-9.44,9.93l-.6,0c1.86-9.08,6-14.16,12-21.54A24.75,24.75,0,0,1,726.7,34.63ZM828,38.73l-1.19,0c3-6.6,6.37-10,11.79-14.66C836.73,29.24,833.3,33.6,828,38.73ZM840,18a30.23,30.23,0,0,1-.67,3.6c-10.78,5.91-19.33,9-25,17.63h-.1c2.33-4.54,13.2-16.2,26-25.82A30.78,30.78,0,0,1,840,18Zm20.86,19.76h-.55c1.8-7.38,4.25-12.14,7.68-16a46.5,46.5,0,0,1,4.24,2.95C866.57,29.23,862.76,34,860.82,37.76Zm7.39-16.26c2.94-3.2,6.59-5.76,11.13-8.68A21.23,21.23,0,0,0,877.53,21q-2.7,1.73-5,3.54A25.91,25.91,0,0,0,868.21,21.5Zm7,7.11c-.83.78-1.61,1.57-2.36,2.37.86-1.08,1.76-2.16,2.71-3.25l.28.33C875.64,28.25,875.42,28.41,875.22,28.61Zm.81-.71-.34-.31c.7-.8,1.44-1.6,2.21-2.39l.21,1C877.4,26.72,876.71,27.3,876,27.9ZM878.62,37a13,13,0,0,1,1-2.75,7.65,7.65,0,0,1,.31.92Zm1.61-2.34c-.11-.33-.23-.67-.34-1h0c.12-.22.23-.44.36-.66.12.38.23.76.35,1.14Zm4.7-6.85c-.84,1.28-1.76,2.63-2.77,4.07l-.41-1a23.65,23.65,0,0,1,3.18-3.14Zm-5-2.93c-.1-.47-.18-.94-.27-1.41a46.18,46.18,0,0,1,8.09-6.15,20.14,20.14,0,0,0-1.92,4.37A41.83,41.83,0,0,0,879.91,24.9Zm8.92-4.43c-.58.22-1.17.44-1.74.68.33-1.38.74-2.75,1.18-4.12.53-.31,1.09-.6,1.65-.9A19.44,19.44,0,0,1,888.83,20.47Zm18.33-5.27-1.08.28c.3-.32.56-.65.87-1ZM905.59,11c.49,1.14.91,2.22,1.26,3.26-.53.48-1,1-1.52,1.44-2.2.55-4.34,1.09-6.42,1.65a24.25,24.25,0,0,0-1.73-2.3c.69-.88,1.4-1.75,2.22-2.61a27.86,27.86,0,0,0-2.53,2.22c-.33-.37-.68-.73-1-1.09A58.69,58.69,0,0,1,905.59,11Zm-2.69,7.11c-.76.83-1.46,1.68-2.13,2.52q-.32-.68-.69-1.35C901,18.85,902,18.47,902.9,18.08Zm-4.63-.59c-1.19.32-2.35.65-3.49,1a33.29,33.29,0,0,1,2.1-3.11C897.39,16.07,897.85,16.78,898.27,17.49Zm-6.93-2.07c1.33-.64,2.73-1.22,4.21-1.77.36.42.7.85,1,1.28a24.31,24.31,0,0,0-3.23,4l-.9.29C892.1,18,891.73,16.76,891.34,15.42Zm1.94,7q2.88-1.48,6.08-2.86c.28.61.53,1.23.75,1.84a33.9,33.9,0,0,0-5.52,10.43A48.8,48.8,0,0,0,893.28,22.41ZM900,33.21c-1.08,1-2.3,2-3.64,3a28.57,28.57,0,0,1,4.19-13.45A16.29,16.29,0,0,1,900,33.21Zm3.16-3.12a29.64,29.64,0,0,0-.76-5,26.29,26.29,0,0,0-1.16-3.48,43,43,0,0,1,3-4l3.25-1.25C908.57,21,907.73,25,903.15,30.09Zm18.68.5a31.52,31.52,0,0,0-2.54,2.32c0-.16.06-.31.1-.46,1.1-1.36,2.23-2.67,3.4-4C922.45,29.19,922.12,29.88,921.83,30.59Zm4.27,6.25-.05,0H924.6l2.72-2.42C926.9,35.25,926.5,36,926.1,36.84ZM935,32.23c-.61.35-1.23.68-1.85,1a22.42,22.42,0,0,1,1.71-5.74c.56-.54,1.12-1.08,1.67-1.63A50.08,50.08,0,0,1,935,32.23Zm-10.71-3.5a19.25,19.25,0,0,1,1-3c3.37-3.6,7-7.29,10.83-11.73a25.17,25.17,0,0,1,.83,6.66C932.67,23.35,928.15,25.91,924.25,28.73Zm18.5,8.13h-.15c-.07-2.11-.16-4.23-.33-6.36.62-.67,1.23-1.34,1.84-2A44.9,44.9,0,0,0,942.75,36.86Zm50-8.62a15.48,15.48,0,0,1-5,9.05l-1.87,0a39.66,39.66,0,0,0,6.2-9,10.84,10.84,0,0,0,1-2.8A25.92,25.92,0,0,1,992.79,28.24Zm.39-3.38a3.88,3.88,0,0,0,0-.9c-1.83,4.7-5.66,9.21-11.13,13.24l-2.29,0a57,57,0,0,1,13.34-17.32A27.17,27.17,0,0,1,993.18,24.86Zm34.55,13.35h-.1c1.57-5.25-1-10.7-3.62-16A49.32,49.32,0,0,1,1021.75,38l-1.91,0a19.77,19.77,0,0,1,.4-8.58,44.18,44.18,0,0,1,4.88-13.25,39.7,39.7,0,0,1,3.08,6.34A21.18,21.18,0,0,1,1027.73,38.21Zm26-3.73a19.19,19.19,0,0,1-3,4.5l-.7,0A48.29,48.29,0,0,0,1057,22.29,27.61,27.61,0,0,1,1053.74,34.48Zm38.17,6.3-1.42-.08a21.38,21.38,0,0,1,2.09-7.29,87.35,87.35,0,0,1,4.88-9C1096.87,30,1094.65,35.43,1091.91,40.78Zm29.47,1.62-2-.12c-.51-4.46,1.69-8.75,3.72-13C1124.89,34,1126.31,38.94,1121.38,42.4Zm4.84-.86a38.25,38.25,0,0,0-2.93-12.6c.37-.79.73-1.58,1.07-2.37.25-.6.49-1.2.73-1.8A44.16,44.16,0,0,1,1126.22,41.54Zm135,12.4-1.62-.17a19,19,0,0,1,.27-10.42,21.16,21.16,0,0,1,2.33-5.51A100.22,100.22,0,0,1,1261.25,53.94Zm32.53,3.6c2.55-4.32,4.89-7.15,6.82-11.86,1.23-3,2.23-6,4.65-8.77.37,1.44.71,2.88,1,4.35-4.24,5.26-8,10.54-12.27,16.3Zm12.51-10.86a28.85,28.85,0,0,1-3.16,8.45,22.8,22.8,0,0,1-2,3.28l-1.37-.16c2.06-4.3,4.23-8.32,6.55-12.28C1306.31,46.21,1306.32,46.44,1306.29,46.68Zm33,16.48-.82-.1a37.5,37.5,0,0,1,3.92-9.55A21,21,0,0,1,1339.29,63.16Zm-7.18-1.78c3.54-5.51,7-10.51,9.45-15.7a28.47,28.47,0,0,1,.85,5.55C1339,54.54,1335.6,57.46,1332.11,61.38Zm58.38,8.93-.74-.11q.81-1.86,1.68-3.6A8.57,8.57,0,0,1,1390.49,70.31Zm3.15.46a28.65,28.65,0,0,0-1.75-5.12c.57-1.11,1.15-2.19,1.76-3.25a49.2,49.2,0,0,1,.78,8.49ZM1416,74.19l-.2,0c.65-.63,1.31-1.26,2-1.86A22.15,22.15,0,0,1,1416,74.19Zm-6.9-1.08-.38,0c4.84-4.74,9.5-8.2,14.3-12.41-.07.33-.14.66-.22,1-.19.83-.43,1.66-.69,2.49C1417.78,67,1413.45,69.86,1409.09,73.11ZM1439.78,78l-.25,0a14.42,14.42,0,0,1,.92-2.76C1440.23,76.12,1440,77.06,1439.78,78Zm4.71.78-.41-.07a93.48,93.48,0,0,0,1.05-10.63c1.13-1.31,2.32-2.57,3.52-3.74A79.06,79.06,0,0,1,1444.49,78.78Zm20.08,3.4-1-.18a23.12,23.12,0,0,1,4.39-11.46C1467.66,74.18,1466.47,77.8,1464.57,82.18Zm-5.18-.89-.68-.11c.42-4.09,3.3-7.79,5.06-11.65,1.48-3.25,1.51-2.89,3.55-5.69a23.1,23.1,0,0,1,.62,4.37A28.38,28.38,0,0,0,1459.39,81.29Zm23.36,4.09h-.06c.33-.86.69-1.68,1.07-2.48C1483.44,83.68,1483.1,84.5,1482.75,85.38Zm4.37-14.11c-5.75,4.76-9.48,9.65-10.87,13h0a100.06,100.06,0,0,1,10.11-21.47A30.73,30.73,0,0,1,1487.12,71.27Zm6.23,16h0a81,81,0,0,0,3.38-17.94,40.11,40.11,0,0,0-5.86,9.29,15.83,15.83,0,0,0-.34-5.41,76,76,0,0,1,8.7-7.58C1499.89,72.86,1496.92,78.63,1493.35,87.29Zm17.31,3.21-.31-.06a13.33,13.33,0,0,1,.94-2.52C1511.1,88.76,1510.9,89.62,1510.66,90.5Zm1.74-10.9c-4.47,3.54-8,6.84-9.53,9.13,3.11-5.2,6.1-8.46,9.53-12.78C1512.45,77.18,1512.45,78.4,1512.4,79.6Zm24.25,15.91-.76-.15c.88-7.26,3.88-12.84,9.41-19C1543.7,82.87,1540.32,88.82,1536.65,95.51Zm8.85-19.91c-9.32,5.28-13.13,11.12-16.16,18.48l-.68-.13c0-11.47,6.61-19.47,17.48-28.07A31.67,31.67,0,0,1,1545.5,75.6Zm22.67,9.67-.29.28c.1-.14.2-.29.31-.43A.77.77,0,0,0,1568.17,85.27Zm13.24,19.41-.49-.1a13.94,13.94,0,0,1,1.23-4.81c1.55-3.46,4.21-6.61,6.86-9.74a38.08,38.08,0,0,1,8.94-7.69,34.05,34.05,0,0,1-.52,7C1589.88,94.33,1584.83,97.89,1581.41,104.68Zm6,1.28-.28,0a94.91,94.91,0,0,1,9.71-14A23.72,23.72,0,0,1,1587.43,106Zm44.31.91a18.72,18.72,0,0,1-1.4,2.49,137.44,137.44,0,0,0-16.19,2.46l-1.22-.27c5.52-2.72,12.1-4.44,19.28-5.75C1632.07,106.14,1631.92,106.49,1631.74,106.87Zm2.21-1.38h.06v.34Zm4.78,11.94-.08,0a18.05,18.05,0,0,0-.44-6.67c.92-.17,1.85-.35,2.78-.51C1640.19,112.41,1639.44,114.72,1638.73,117.43Zm2.73-8.42c-1.26,0-2.49,0-3.72,0-.36-1.27-.79-2.57-1.25-3.92,2.3-.36,4.65-.7,7-1C1642.79,105.73,1642.1,107.35,1641.46,109Zm2.89-6.87q-4.45.28-8.57.82c-.18-.53-.36-1.07-.53-1.62,3.27-.71,6.66-1.24,10.16-1.64C1645.05,100.54,1644.7,101.35,1644.35,102.14Zm2.53,17.19c.27-6.13.12-10.54.15-15.75,3.67-.48,7.39-1,11.13-1.5a31.46,31.46,0,0,0-10.85,17.35Zm14.07,3.35-.55-.14a31.72,31.72,0,0,1,5-3.47C1664,120.26,1662.56,121.46,1661,122.68Zm8.29-7.52c-4.75,1.41-8.92,3.1-12.66,6.47l-.62-.15c4.66-8.06,10.46-11.59,18.79-16.73A23.54,23.54,0,0,1,1669.24,115.16Zm88,32.27c3.76-3.57,18.42-11.19,34.49-16.21a33.16,33.16,0,0,1-3.5,7.47c-12.82,2.16-22.49,2.32-30.89,8.77Zm14.18,3.93-1.24-.35c5.08-5.32,9.55-7.44,16.53-10.17C1783.28,145.15,1778.45,148.2,1771.42,151.36Zm52.33,14.74c1.84-3.15,5.17-5.32,9.43-6.85C1830.54,161.28,1827.41,163.43,1823.75,166.1Zm-.91-9.12c-1.09.48-2.13,1-3.14,1.5,5.89-3.64,12.71-7.25,22-8.61a19,19,0,0,1-2.42,3.78A43.06,43.06,0,0,0,1822.84,157Zm17.92,14.62-.65-.2a51.09,51.09,0,0,0,3.1-14.46,149.34,149.34,0,0,1,16.35-1.18C1859.16,162.58,1855.1,166.94,1840.76,171.6Zm2.56-18c0-1.25,0-2.56,0-4a62.11,62.11,0,0,1,15.94.41,39.51,39.51,0,0,1,.31,4.54C1853.82,154.16,1848.42,153.7,1843.32,153.61Z"/>
</svg>
