<svg  width="100%" height="649.43" viewBox="0 0 674.81 649.43">
      <path fill="#20242b" d="M572.67,198.14c-2.73,5.4-7.22,9-12.43,11.71A53,53,0,0,0,548,218a49.69,49.69,0,0,0-10.65,14c1-1.33,2.11-2.59,3-4,2.44-4.08,6.13-6.43,10.5-7.9,2-.67,3.94-1.3,5.92-1.91a21.13,21.13,0,0,0,10.66-7.28,14.35,14.35,0,0,1,3.14-3c-2.93,4.79-6.39,9-11.87,11.05-2,.76-4.11,1.47-6.19,2.15a20,20,0,0,0-11,8.32,44.44,44.44,0,0,1-7,8.21c-2.44,2.27-3.27,5.23-4.53,8.23l4.77-2.33c-2.46,3.62-7.66,3.95-9.86,8.68,2.51-.51,4.49-1,6.49-1.31,2.8-.46,5.61-.83,8.42-1.23A7.15,7.15,0,0,0,545.3,246c1.5-2.65,2.88-5.37,4.63-8a21.48,21.48,0,0,1-.66,2.38c-.63,1.51-1.36,3-2,4.48a10.49,10.49,0,0,1-8.77,6.49c-2.92.39-5.84.81-8.72,1.42a22.3,22.3,0,0,0-12.66,7.1c-6.16,7.22-13.9,12.59-21,18.71-3.31,2.85-6.71,5.6-10,8.44a32.15,32.15,0,0,0-2.23,2.36c13.28-3.08,23.81-10.54,34.58-17.74.08.49.2.79.13.84-8.11,6.14-16.27,12.19-25.81,16-2.33.94-4.67,1.86-7,2.74a10.55,10.55,0,0,0-6,4.79,54.48,54.48,0,0,1-3.46,4.77c1.47-.19,2.27-.22,3-.4,4-1,8-2.06,12.29-1.29.92.17,2.21-.68,3.06-1.39,5.88-4.89,11.69-9.86,17.53-14.8a5,5,0,0,1,1.1-.38c-1.53,2.73-3.84,4.16-5.7,6-2,2-4.22,3.81-6.32,5.72s-4,3.64-6.39,5.85c6.07,1.91,11.46,4.23,17.48,3.71-4.77,2.69-9.5,5.44-14.33,8-3.65,2-7.72,2.36-11.77,2.35a5.34,5.34,0,0,0-5.16,2.64,18.69,18.69,0,0,1-9.46,7.87c4.81.39,8.15-1.48,11.21-4.29,2.06-1.9,4.39-3.52,6.6-5.26l.48.51-8.16,7.63c8,1,14.05-2.44,19.78-6.85-.54,1.68-2,2.38-3.17,3.35a21.08,21.08,0,0,1-12.86,5.1,31.12,31.12,0,0,0-5.18.67,7.56,7.56,0,0,0-2.86,1.43c-3.11,2.4-6.2,4.83-9.2,7.38a18.38,18.38,0,0,1-11.78,4.21c-2.51.09-5,.36-7.51.51a2.38,2.38,0,0,0-2.4,1.82,56.23,56.23,0,0,1-6.45,13.94c-.1.15,0,.41,0,1.08a24.22,24.22,0,0,0,3-.41c15.95-4.29,31.1-10.31,44.33-20.5,2.68-2.06,5.4-4.09,8.23-5.94,4.94-3.22,9.95-6.32,15-9.4,2.6-1.61,5.27-3.1,7.94-4.59a13.2,13.2,0,0,0,7-10.49,122.87,122.87,0,0,0,.55-15.35,80,80,0,0,1,1.34-16.93c1.1-5.7,4.36-9.57,9.65-12a78.24,78.24,0,0,0,16.44-10.09,6.38,6.38,0,0,0,2.58-4.65c.42-3.87,1.15-7.7,1.74-11.55l.77.07L558,245.61a13.06,13.06,0,0,0,2.08-2A39.45,39.45,0,0,0,563.6,237c3-8.77,9.19-14.41,17.32-18.25a7.28,7.28,0,0,1,1.5-.64c5.39-1.27,9.1-4.77,12.53-8.88,3.57-4.28,7.46-8.28,11.21-12.4A14.24,14.24,0,0,1,613,192.5a51.92,51.92,0,0,0,13.13-5.8l.31.35a22.79,22.79,0,0,1-9.58,5.47A23.45,23.45,0,0,0,604.4,201c-3,3.77-6.22,7.32-9.35,11-.48.56-.93,1.14-1.82,2.25,10.3-2.29,19.71-5,28.29-10.18l.4.78a31.09,31.09,0,0,1-4.51,2.9c-5.61,2.38-11.27,4.68-17,6.81-5.21,1.95-10.58,3.48-15.75,5.52a33.2,33.2,0,0,0-12.95,9.24,23.41,23.41,0,0,0-4.17,7.4c13.24-12,16.84-10.18,26.9-11.93a8.62,8.62,0,0,1-1.73.84c-2.53.64-5.09,1.2-7.64,1.81a23.38,23.38,0,0,0-11.38,6.2c-3.5,3.57-6.61,7.53-9.82,11.37-1.54,1.84-2.81,3.91-4.44,5.66a5.93,5.93,0,0,0-1.93,5c.42,3.45-1.19,5.55-4,7.51-6.42,4.53-12.53,9.49-18.88,14.14a5.65,5.65,0,0,0-2.62,5.55c.25,2.67-.41,5.43.8,8.49,1.1-.88,2-1.59,2.88-2.32a23.13,23.13,0,0,1,8.9-4.6,134.85,134.85,0,0,0,15.32-5.67,6.62,6.62,0,0,0,2.76-3c2.93-5.61,5.67-11.32,8.57-17,1.84-3.59,3.73-7.17,5.8-10.63,1.88-3.14,2.64-3.3,6.2-2.68a21.44,21.44,0,0,0,4.23.34c2.19,0,2.65-.57,2.57-2.81a7.19,7.19,0,0,0-.58-2.85c-1.3-2.62-.46-4.66,1.49-6.45,1.61-1.48,3.28-2.88,4.91-4.34,4.31-3.86,8.55-7.8,12.93-11.59,2.62-2.27,5.37-4.42,9-5.44-.48.45-.93.94-1.43,1.36-4,3.37-8.1,6.64-12,10.11s-7.45,7.05-11.25,10.51c-1.82,1.66-2.59,3.33-1.46,5.76a23.29,23.29,0,0,1,1.07,4.51,6.54,6.54,0,0,0,4.25-2.4q4.29-4.72,8.4-9.61c2.61-3.08,5.13-6.24,7.7-9.36a7,7,0,0,1,5.09-2.61c4.24-.32,8.48-.7,12.72-1.05l7.11-.58.08.65c-3.52.51-7,1.06-10.58,1.51-2.71.34-5.43.55-8.14.82a7.48,7.48,0,0,0-5.59,3c-2.48,3.32-5,6.64-7.5,9.93a67.61,67.61,0,0,1-5.3,6.66c-2.29,2.3-4.94,4.24-7.44,6.33-3.75.82-7.49,1.34-11.33.48a2.59,2.59,0,0,0-2.14,1,97,97,0,0,0-6.66,13c2.94-1.41,3.48-1.76,5.77-4.88a19,19,0,0,1,9.7-7.38,37.31,37.31,0,0,0,4.7-2.23l8.78-3.48.22.17a8.72,8.72,0,0,1-1.52,1.23c-4.22,2.07-8.42,4.19-12.71,6.08a15.57,15.57,0,0,0-7,5.71,21,21,0,0,1-8.25,7.76,3.75,3.75,0,0,0-1.63,1.52c-1.26,2.52-2.37,5.1-3.8,8.23,1.45-.6,2.35-.88,3.17-1.32,5.88-3.12,11.9-6,17.57-9.52a54.76,54.76,0,0,0,9.53-7.89c4.89-4.84,9.46-10,14.22-15a42.13,42.13,0,0,1,17.06-11.26c2.27-.77,4.38-2,6.62-2.82a14,14,0,0,1,8.63-.87c-16.66,4.17-29.15,13.64-39,27.44.91-.42,1.6-.73,2.27-1.07,3.41-1.73,6.78-3.52,10.22-5.19a22.07,22.07,0,0,1,15-1.93,60,60,0,0,0,15.29,1.42,10.68,10.68,0,0,1,2.9.33,35.3,35.3,0,0,1-11.72.94c-3.68-.43-7.37-.86-11.07-1a15.56,15.56,0,0,0-5.76,1c-5.12,1.92-9.75,4.77-15,8.29a65.47,65.47,0,0,0,7,1,58,58,0,0,0,19.69-2.7,60.61,60.61,0,0,1,21.9-3.31,31.78,31.78,0,0,1,8.09,1.39,16.51,16.51,0,0,1-3.3,0c-5.95-1.21-11.76-.08-17.54,1a74.48,74.48,0,0,0-9.46,2.61,61.71,61.71,0,0,1-19,3.11,17.87,17.87,0,0,1-5.15-.68,9,9,0,0,0-8.07,1.4,339.53,339.53,0,0,1-35.85,21.73c-6.86,3.59-13.7,7.28-21.32,9.17a7.7,7.7,0,0,0-3.06,1.77c-2.12,1.88-4,4-6.17,5.87-2.35,2-3.22,4.52-2.93,7.95,1-.54,1.77-1,2.56-1.42,4-2.3,7.86-4.73,11.9-6.88a28.71,28.71,0,0,1,13.91-3.17,107.43,107.43,0,0,0,12.44-.31c7.87-.86,14.5-4.64,20.33-9.82,2.44-2.17,4.58-4.67,6.82-7.06,1.13-1.19,2.17-2.45,3.24-3.69A15.45,15.45,0,0,1,614.3,269c7.27-.58,14.55-.76,21.76,1.05a16.41,16.41,0,0,1-2.53,0c-6.45-1-12.87-.3-19.26.46a13.4,13.4,0,0,0-8.79,4.64c-.36.41-.76.79-1.09,1.22-5.48,7.15-11.5,13.72-19.53,18.53,4.74,0,9.48-.12,14.21.05a9.79,9.79,0,0,0,6.68-2.14,39.27,39.27,0,0,0,4-3.43,15,15,0,0,1,10.71-4.95c6.65-.15,13.3-.31,20-.44.28,0,.56.14.83.62-2.49,0-5-.08-7.47,0-4.69.2-9.37.43-14.05.81a12.27,12.27,0,0,0-7.41,3.14c-2.4,2.19-4.82,4.36-7.46,6.75,6.42,1,12.54,1.71,18.81-.21,7.62-2.33,15.37-4.22,23.06-6.27a3.85,3.85,0,0,1,2.61.18c-1.6.4-3.22.74-4.81,1.2-6.7,2-13.46,3.78-20.06,6.05a27.86,27.86,0,0,1-14.52,1.38c-8-1.58-15.1.63-22.1,4a49,49,0,0,1-5,2.4c-3.7,1.3-7.46,2.4-11.2,3.59-2.58.82-5.33,1.32-7.71,2.53-4.46,2.28-8.8,4.83-13,7.52a10.35,10.35,0,0,0-4.68,7.17l2.33-.29a71.23,71.23,0,0,1,7.79-.82,24.72,24.72,0,0,0,12.6-3c5.6-3.18,11-6.66,16.58-9.92,3.38-2,6.83-3.89,10.32-5.69,4.45-2.31,9.37-2.82,14.24-3.51,4.1-.57,8.18-1.39,12.3-1.76a54,54,0,0,1,9.75.24c-2.76.32-5.54.51-8.27,1-6.65,1.23-13.29,2.52-19.89,4a31.3,31.3,0,0,0-6.41,2.43c-6.13,2.91-11.44,7.07-16.77,11.56,2.45.17,4.9.32,7.35.52,7.82.64,15.41.3,22.59-3.62,6.55-3.57,13.83-3.84,21.09-3.22,2.3.2,3.61-.36,4.7-2.41A7.46,7.46,0,0,1,643,306c6.72-.25,13.44-.46,20.83-.72a31,31,0,0,1-9.61,1.72c-2.94.19-5.9,0-8.84.15-3.35.16-6.24,1.21-7.66,4.61a6.91,6.91,0,0,0-.17,1.2c8.75,1.73,16.4-2.11,24.28-4.7l.24.66-5.47,2.3c-5.79,2.46-11.7,4.3-18.1,3.74a4,4,0,0,0-3.92,1.81,42.68,42.68,0,0,1-3.16,3.43,16.33,16.33,0,0,0,2.48,0A31.18,31.18,0,0,0,639,319a31.74,31.74,0,0,1,21.8-.57,21.89,21.89,0,0,0,4.51.74,12.35,12.35,0,0,0,9.54-2.52c-.48,2-2.18,2.65-3.8,3.26a13.93,13.93,0,0,1-8.71.52,33.81,33.81,0,0,0-23.65,1.68C635,323.75,631,324,627.08,324c-9.5-.08-19-.32-28.49-.42-1.74,0-3.47.37-5.2.48-4.58.27-9.15.62-13.73.7-5.39.08-10.67.51-15.9,3.41l2.88.37c1,.14,1.94.34,2.92.4,8.72.5,17.43,1,26.15,1.46,3,.17,6.11.64,9.14.53,6.52-.23,13-.82,19.55-1.1a14.38,14.38,0,0,1,6.09.69c5.16,2.23,10.47,1.89,15.8,1.48,3.86-.29,7.71-.85,11.66-.82-1.66.44-3.29,1-5,1.31a95.48,95.48,0,0,1-27.37,1,87.47,87.47,0,0,0-11.45-.19c-2.38.07-4.7.7-6.14,3,6.47,1.49,12.75,3.22,19.13,4.33,5.63,1,11.31,0,17-.65,4.54-.55,9.12-.77,13.69-1.07a61.65,61.65,0,0,1,9.12,0,34.42,34.42,0,0,1-5.28.81c-7.46,0-14.79,1.1-22.12,2.26a46,46,0,0,1-19.46-1c-1.68-.46-3.39-.85-5.08-1.29-5-1.31-9.76-.52-13.56,2.85-7.24,6.42-15.49,7.3-24.53,5.65-6.32-1.14-12.63-2.6-19.13-2.38-.5,0-1,0-1.49,0l-.1.71c5.39,1.17,10.74,2.63,16.19,3.43a105.81,105.81,0,0,0,14.68.93c5.12,0,10.24-.48,15.37-.58,2.47-.06,4.94.27,7.41.43v.74c-2.31,0-4.63-.07-6.93,0-7.85.28-15.7.85-23.55.84-7.24,0-14.35-1.59-21.26-3.6a51.25,51.25,0,0,0-20-1.87c-5,.53-10,.07-15.06.07-4.6,0-9.18.18-13.6,1.65-1.41.47-2.79,1.06-4.92,1.88,1.44.5,2.09.77,2.76,1,2.63.74,5.32,1.28,7.88,2.22,5.33,1.95,10.7,1.41,16.15.83,6.72-.71,13.47-1.22,20.22-1.7a18.76,18.76,0,0,1,10.66,2.56l-.24.31a1.75,1.75,0,0,1-.33,0c-5.93-2.32-12-1.61-18.05-.82-6.39.84-12.79,1.56-19.21,2a27.75,27.75,0,0,1-7.43-.91c-4.59-1-9.11-2.25-13.72-3.15a9.31,9.31,0,0,0-4.4.52,40.69,40.69,0,0,0-4.74,2.22c-8.87,4.27-18.32,6.38-28,7.41-3.58.39-7.19.45-10.78.68a8,8,0,0,0-2.26.3A101.21,101.21,0,0,1,431,369.45a12,12,0,0,0,1.62.75c10.39,2.54,20.72,5.33,31.2,7.48,6.43,1.32,13.06.65,19.57-.22a8.62,8.62,0,0,0,2.93-1.38c3.2-1.88,6.32-3.91,9.57-5.71a31,31,0,0,1,23.45-3.05c8.39,2.15,16.83,2.16,25.37,1.18,12.14-1.4,24.29-2.75,36.45-3.93a67,67,0,0,1,10.78.18c-15.87,1.13-31.49,4.08-47.63,6.11,6,4.35,12.17,3.3,18.37,2.66a61.59,61.59,0,0,1-7.24,1.67,13.17,13.17,0,0,1-5.77-.44c-6.07-2.2-12.36-2.48-18.69-2.88a77.78,77.78,0,0,1-12-1.58c-10.08-2.28-18.66.84-27.31,7.17,2.63,0,4.54,0,6.44,0a69.66,69.66,0,0,1,20.41,2.49,29.11,29.11,0,0,1,12.24,6.69,26.32,26.32,0,0,0,18.47,7.19,7.56,7.56,0,0,0,4.24-1.25c2.47-1.78,5.18-3.58,6.84-6,3.93-5.75,9.44-8,15.93-8.19,11-.29,21.3-3.4,31.8-5.95,5.19-1.26,10.47-2.14,15.71-3.18.18,0,.39.14,1.12.44-3.08.66-5.72,1.14-8.31,1.8-7.09,1.82-14.12,3.85-21.24,5.52-5.71,1.35-11.52,2.3-15.81,3.13,3.68,0,9,.38,14.15-.11,5-.47,10-1.82,15.14-2.23-4,1.11-8,2.39-12.12,3.25a47.82,47.82,0,0,1-8.13.73q-9.5.33-19,.45a5.78,5.78,0,0,0-4.6,2c-2.43,2.8-4.88,5.58-7.46,8.52,1.1.82,2.3.49,3.37.27A105.42,105.42,0,0,1,583,391.23c11.51.06,22.61-1.92,32.89-7.41a7.39,7.39,0,0,1,1.21-.47c.08,0,.19,0,.85.21-7.67,5.34-16,7.81-24.75,10,4.69,1.62,9.35,3.33,14.08,4.8a5.28,5.28,0,0,0,5.39-1.55,21.28,21.28,0,0,1,13.64-5.67,7,7,0,0,1-.83.4c-.3.11-.63.15-.95.25-4.11,1.27-8,3-11.07,6.12a6.85,6.85,0,0,1-7.53,1.74c-3.43-1.12-6.89-2.12-10.27-3.39-6.64-2.5-13.49-2.56-20.36-1.65-6.7.89-13.32,2.4-20,3.17a61.91,61.91,0,0,1-12.4,0c-6-.51-11-3.47-15.5-7.25-3.71-3.08-8-4.67-13.22-5.48a22.55,22.55,0,0,0,1.17,2.14q3.39,4.83,6.85,9.61a11.52,11.52,0,0,0,10.36,5.05A112.66,112.66,0,0,1,562.78,405c2.32.58,4.62,1.3,6.9,2.06a9,9,0,0,0,8.4-1,20.24,20.24,0,0,1,14.34-3.19c-2.11.4-3.87.76-5.64,1a17.7,17.7,0,0,0-8.08,3.41c-2.88,2.23-6,2.44-9.28,1.4a80.13,80.13,0,0,0-23.33-3.49c1.54.68,3.06,1.39,4.61,2.05,5.23,2.21,10.41,4.55,15.73,6.54a22.9,22.9,0,0,0,6.72,1.11c5.41.3,10.84.41,16.26,1.2-2.12,0-4.24,0-6.36,0a76.92,76.92,0,0,0-8.46.16,17.68,17.68,0,0,1-8.06-.89c-4.52-1.61-9-3.37-13.47-5.11-2.24-.86-4.47-1.78-6.67-2.74-4.77-2.09-9.68-3.39-14.95-2.81-4.71.52-8.27-1.61-11.15-5-2.26-2.67-4.27-5.54-6.45-8.27-6.65-8.38-5-7.21-14.6-7.23h-8.83l-.25.76,14.57,9.05-.32.6c-1.22-.61-2.46-1.19-3.68-1.81-4.46-2.3-8.87-4.73-13.41-6.87a9.14,9.14,0,0,0-4.74-.72c-8.58,1.05-17.14,1.83-25.93.53,2.56,1.36,5.08,2.8,7.68,4.06,8.94,4.33,18.46,6.63,28.26,8,4.11.55,8.21,1.2,12.26,2.06a43.35,43.35,0,0,1,6,2.24l-.22.61A76,76,0,0,0,503,400.8c-4.85-.73-9.77-1-14.62-1.78-6.13-.95-12.22-2.17-17.9-3.19,1.91,2.83,7.5,6.44,11.34,6.55a51.42,51.42,0,0,1,14.38,3,69.46,69.46,0,0,1,8.09,3,9.74,9.74,0,0,1-1.88-.14c-4.66-1.18-9.29-2.44-14-3.57a14.64,14.64,0,0,0-4.21-.47A16.4,16.4,0,0,1,473.75,401c-2.77-1.93-5.29-4.2-7.94-6.3a23.29,23.29,0,0,0-3.16-2.29q-7.15-4-14.41-7.77a17.84,17.84,0,0,0-4.2-1.74c-12.33-2.87-24.69-5.61-37-8.5a7.46,7.46,0,0,0-4.77.34c-3.84,1.57-7.71,3.09-11.49,4.79q-8.5,3.85-16.89,8a7.71,7.71,0,0,0-2.66,2.26c-3.75,5-7.41,10-11.1,15l-1.77,2.37c3.24-.65,5.74-1.23,8.27-1.63,4.1-.65,8.2-1.28,12.32-1.72a17.47,17.47,0,0,0,9.1-3.3c2-1.52,4-3.08,6-4.59,13.05-9.82,27.56-12,43.18-8.16a6.46,6.46,0,0,1,.94.31c.19.07.38.18.56.69-1.05-.12-2.09-.26-3.14-.35s-2.19-.1-3.27-.24c-13.43-1.73-25.29,1.9-35.7,10.46-2.11,1.74-4.17,3.54-6.21,5.35-4.15,3.69-9.33,4.52-14.54,5.32a123.25,123.25,0,0,0-27.67,7.84,10.41,10.41,0,0,0-2.49,1.54c-6.34,5-12.65,10.06-19,15.09-.34.27-.74.48-1.24.8l2.22,6.46c1.29-1.3,2.22-2.19,3.09-3.13A34.65,34.65,0,0,1,341,430.39c5.89-2.9,11.88-5.67,18.46-6.5,4.09-.53,8.25-.47,12.39-.63,1.08,0,2.18.1,3.27.12,7.9.18,8.05.37,14.36-4.56a134.71,134.71,0,0,1,27.36-16,28.94,28.94,0,0,1,10-2.77c9.26-.53,18.55-.54,27.83-.65a13.45,13.45,0,0,1,4.88,1.08c-.75.07-1.5.19-2.25.22-8.51.29-17,.43-25.54.9a33,33,0,0,0-15.9,4.56c-2.46,1.54-5.09,2.83-7.64,4.23.06.23.13.45.19.68l5.95-.69c4.34-.49,8.73-.69,13-1.54a57.11,57.11,0,0,0,11.23-3.42c7.1-3,13.85-1.49,20.66.59l-.07.64c-2.5-.45-5-.75-7.49-1.37a16,16,0,0,0-11.2,1c-7.42,3.66-15.41,4.64-23.43,5.68-4.54.59-9.07,1.3-13.59,2.1a8.92,8.92,0,0,0-3.59,1.46c-3.69,2.7-7.27,5.56-11.53,8.85,2.92.38,5.09.79,7.27.92,2.62.14,5.25.08,7.87,0a7.85,7.85,0,0,0,6.74-3.36c2.8-3.93,6.8-6.08,11.4-7.17a38,38,0,0,1,6.76-1.14,379.81,379.81,0,0,1,39.64-.22c5.34.28,10.7.09,16.06.16a79.51,79.51,0,0,1,21.35,2.88c1.6.48,3.44.1,5.17.15a24.85,24.85,0,0,1,4.82.25A80,80,0,0,0,543.06,419a61.67,61.67,0,0,1,9.79-.44c5.4.26,9.86,3.25,14.52,5.59l-.2.25a47.21,47.21,0,0,1-6.41-2.4c-4.59-2.49-9.5-2.75-14.36-1.88-8.86,1.58-17.62.71-26.42-.2-1.39-.15-2.75-.67-4.14-.92a11.21,11.21,0,0,0-4.69,0,16.77,16.77,0,0,0,1.59,1.22c5.9,3.46,12.44,4.59,19.12,5.19,3.46.31,6.92.59,10.37,1.18a70.91,70.91,0,0,1-14.12.25,48.74,48.74,0,0,1-19.42-5.42c-5.44-2.92-11.54-3.22-17.53-3.4-4.57-.13-9.15.33-14.31.54a13.14,13.14,0,0,0,7.41,2.91,23.2,23.2,0,0,0,4.25,0A31.35,31.35,0,0,1,505.29,425a73.07,73.07,0,0,0,17.29,6,44.37,44.37,0,0,1,5.14,1.07,23,23,0,0,1-4.39,0c-5.46-1.09-11-2.11-16-4.61-6.71-3.32-13.6-5-21.22-4.09a16,16,0,0,1-8.48-1.91A24,24,0,0,0,464.09,419c-7.49.69-15,.83-22.69,1.71a13.78,13.78,0,0,0,1.71,1c4.67,1.85,9.3,3.82,14,5.46a32.61,32.61,0,0,0,14.57,1.23,63.73,63.73,0,0,1,24.35,1.9c6.32,1.73,12.61,3.56,18.95,5.2,2,.51,4.07.54,6.13,1.08-2.16,0-4.39.36-6.46-.07-6.2-1.28-12.33-2.86-18.49-4.32a60.87,60.87,0,0,0-22.42-1.35c-5.83.79-11.72,1.24-17.76-.13a5.32,5.32,0,0,0,1.06,1.23c1.67,1,3.38,2,5.12,2.91a8.24,8.24,0,0,0,8.45,0c5.13-3,10.29-2.76,15.76-.85,4.63,1.61,9.45,2.65,14.19,3.94a1.26,1.26,0,0,1,1,.83c-1.79-.29-3.61-.48-5.36-.91-4.56-1.12-9.12-2.26-13.63-3.56a10.61,10.61,0,0,0-9.15,1c-5.89,3.91-11.2,2.3-16.47-1.14a29.18,29.18,0,0,1-4-2.81c-6.14-5.62-14.08-7.21-21.57-9.81-5.63,0-11.23.8-14.57,5.77-3.65,5.46-8.68,7.47-14.74,7.58-7,.13-14-.2-20.94-.1-6.21.09-12.54-.19-18.6.9-9.52,1.72-18,5.93-24.42,13.57-1.33,1.59-2.65,3.19-4.07,4.71a3.32,3.32,0,0,0-.83,3.54Q339,479,344.57,500.6a61.82,61.82,0,0,0,6,15.51c3.58,6.27,4.72,13.33,5.08,20.5.65,12.64-1.09,25.07-3.66,37.4-1.23,5.88-2.69,11.71-4,17.57a67.05,67.05,0,0,1-10,22.67,19.9,19.9,0,0,1-1.85,2.71c-2.58,2.8-2.48,5.75-.27,8.55a32.69,32.69,0,0,0,6.07,6.3c2.89,2.11,6.26,3.55,9.34,5.41a14.68,14.68,0,0,1,2.44,2.42c-.92.85-1.74,2.3-2.76,2.45a33.64,33.64,0,0,1-9.06.41,35.17,35.17,0,0,1-15.42-6c-.44-.3-.92-.55-1.81-1.06a21.63,21.63,0,0,0-1.17,2.58c-.55,1.89-.89,3.84-1.49,5.7a8.49,8.49,0,0,1-4,5c-2.76,1.52-4.6.84-5.56-2.15-.5-1.55-.76-3.19-1.23-4.75-1.52-5-4.63-6.91-9.71-5.88a63.27,63.27,0,0,0-7.24,2,132.34,132.34,0,0,1-24.81,5.91,16,16,0,0,1-3.59.16,21.52,21.52,0,0,1-3.69-1.1,44.47,44.47,0,0,1,3.39-2.91c2.53-1.71,5.18-3.25,7.68-5a38.9,38.9,0,0,0,3.75-3.38c-2.22-1.51-5.14-.77-6.79-3.37a17.85,17.85,0,0,1,2.2-1.2c4.46-1.66,7.8-4.76,10.73-8.36a6.86,6.86,0,0,0,1.34-2.91c2.21-12.53,7.9-23.31,16.32-32.72a24.7,24.7,0,0,0,5-8.71c3.31-9.62,6.5-19.26,8.41-29.27a61.1,61.1,0,0,0,1-7.13,7.93,7.93,0,0,0-.46-3.83c-3.64-7.71-5.34-15.93-6.63-24.25-1.79-11.55-3.43-23.12-5.24-34.67-.66-4.2-1.67-8.35-2.41-12.54a11.48,11.48,0,0,0-3.47-6.55c-4-3.82-8-7.79-12.3-11.28-5.85-4.75-12-9.09-18-13.66a6.15,6.15,0,0,0-4.25-1.14c-7.31.22-14.61.29-21.92.33a20.63,20.63,0,0,1-4.54-.59,6.84,6.84,0,0,0-6.62,1.66c-3.46,3.16-7.77,4.31-12.32,4.69a9.18,9.18,0,0,1-3.19-.28c5.84-1,11.68-1.81,15.7-6.8-.21-.32-.29-.61-.44-.65-5.65-1.66-11.3-3.37-17-4.86a4.81,4.81,0,0,0-3.33.68,31.14,31.14,0,0,0-4.33,3.48,15.63,15.63,0,0,1-10.13,4c-3.92.13-7.82.67-11.74,1-4.14.31-7.44,2.31-10.42,5a33.54,33.54,0,0,1-4.53,3.73c1.59-2.75,4-4.85,6.55-7.63l-8.48.66a1.87,1.87,0,0,1-.32,0c-6.34-.11-12,1.95-17.24,5.35a30.54,30.54,0,0,1-3.78,1.72c4.23-4.3,12.07-7.94,18-8.75,8.21-1.11,16.41-2.31,24.62-3.68-2.16-1.15-4.49-.72-6.75-.81-2.51-.1-5,0-7.54-.13s-4.79-.37-7.19-.45-4.76,0-7.14,0v-.78c2.45-.06,4.89-.16,7.33-.19,5.47,0,10.93-.17,16.39,0a51.5,51.5,0,0,1,8.76,1c6.18,1.24,10-.23,13.78-5.78-2.45-1.39-5.22-1.41-7.83-1.93-6.73-1.33-13.42-.83-20.19.15-9.06,1.32-18.21,2.05-27.31,3.09a41.38,41.38,0,0,1-14.87-1.38c-3.21-.8-6.92,0-10.34.47a39.28,39.28,0,0,0-7.5,2.3c-5.29,2-10.82,2.53-16.37,3a8,8,0,0,1-3.55-.44c3.82-.57,7.65-1.07,11.45-1.75a43.15,43.15,0,0,0,6-1.6c4.65-1.53,9.26-3.17,14.07-4.84a81.89,81.89,0,0,0-13.25-5.62,7.54,7.54,0,0,1,2.23,0c3.83,1.24,7.63,2.61,11.46,3.89s7.82,2.79,11.83,3.77a18.85,18.85,0,0,0,7.14.26c10.14-1.57,20.24-3.36,30.35-5.09.64-.11,1.25-.31,2.42-.6-1-.5-1.64-.83-2.27-1.06-5.75-2.08-11.52-4.1-17.26-6.22a15.94,15.94,0,0,0-9.34-.54,19.78,19.78,0,0,0-2.57.5c-9.16,3.37-18.34,1.27-27.51.09a3.15,3.15,0,0,1-1.84-1l3.79.36c1.42.12,2.83.24,4.24.33,6.51.43,13.06,1.45,19.38-1.22a3.41,3.41,0,0,0,1.54-1c-1.84-.33-3.68-.69-5.53-1a83.12,83.12,0,0,1-16.2-3.89,25.54,25.54,0,0,0-12.28-1.19,45.88,45.88,0,0,1-6.86.41,21,21,0,0,1,7.24-1.62A42.83,42.83,0,0,1,130,400a127.19,127.19,0,0,0,18.39,3,79.39,79.39,0,0,1,17.26,3.56c6.4,2.22,12.82,4.39,19.33,6.23,4.39,1.24,8.95,1.89,13.44,2.77q8.83,1.74,17.68,3.43c.71.14,1.44.23,2.24.36-.8-3.73-3.83-7.46-7.45-8.51a24.3,24.3,0,0,1-9.58-5.44c-3.49-3.11-7.9-4.07-12.24-5.21-6-1.58-12-3.17-18-5.24a8.33,8.33,0,0,1,1.87,0c6.7,1.58,13.38,3.21,20.07,4.8a23.06,23.06,0,0,1,10.17,5,17.65,17.65,0,0,0,7.73,4.09,11.22,11.22,0,0,1,6.4,4.32c1.41,1.81,2.62,3.79,4.17,5.47a8.4,8.4,0,0,0,3.67,2.48c7,1.84,14,3.39,21.33,2.85,3.1-.23,6.19-.59,9.87-.94a15.58,15.58,0,0,0-2.09-1.94c-2.76-1.55-5.51-3.13-8.36-4.5a75.47,75.47,0,0,0-7.3-2.91,42.07,42.07,0,0,1-21.85-17,42.37,42.37,0,0,0-4.57-5.12,3.36,3.36,0,0,0-3.55-.95,58.58,58.58,0,0,1-19.85,1.09,52.84,52.84,0,0,0-7.86-.08A59.17,59.17,0,0,1,165,390a54.84,54.84,0,0,0-14.6-1.73,11.42,11.42,0,0,1-3.26-.14c-6.23-1.67-12.35.17-18.52.4-5.51.21-9.95,2.7-14.42,5.56-8.55,5.49-17.16,10.89-25.94,16-4.4,2.57-9,5.06-14.13,5.95a13.16,13.16,0,0,1-4.84.11,159.68,159.68,0,0,1-16.15-4.39,24.44,24.44,0,0,1,3,.27c3.42.71,6.86,1.36,10.23,2.29a16.84,16.84,0,0,0,12.42-1.15c5.07-2.56,10.18-5.09,15-8.06,7-4.29,13.71-9,20.55-13.49a2.1,2.1,0,0,0,.81-1c-7,1-13.56,3.07-19.26,7.37-.87.66-1.72,1.36-2.63,2-2.73,1.76-5.6,2.36-8.72,1.05-1.1-.47-2.25-.84-3.37-1.28-7.58-3-14.77-2.09-21.63,2.15-.83.51-1.68,1-2.52,1.51a3.79,3.79,0,0,1-.76,0,17,17,0,0,1,1.62-1.6,31.09,31.09,0,0,1,11-4.91,19.94,19.94,0,0,1,10,.56c2.1.6,4.15,1.37,6.24,2,2.67.8,5.24.61,7.41-1.28,8.46-7.37,18.76-10,29.5-11.45,5.51-.76,11-1.54,16.55-2.16,2.1-.23,4.24,0,7.13,0-4-1.26-7.33-2.42-10.7-3.26a8.57,8.57,0,0,0-4.17.21,59,59,0,0,1-12.28,1.72c-6.08.42-12.12,1.45-18.19,2.16a43.5,43.5,0,0,1-9.14.29c2.91-.48,5.81-.94,8.72-1.43,4.84-.81,9.67-1.73,14.53-2.42,3.45-.49,6.95-.65,10.41-1a10.43,10.43,0,0,0,3.43-1.08c-6.46-2.63-13.27-3.19-20.12-3.6a32.79,32.79,0,0,1,14.58-.18c7.72,1.46,15.37,3.25,23,5a169.88,169.88,0,0,0,27.86,3.91c1.73.1,3.46.33,5.81.56-5.22-1.6-9.94-2.8-14.46-4.51a121.24,121.24,0,0,1-13.08-6c-4.06-2.14-7.94-4.61-12.57-5.4a4.62,4.62,0,0,1-1.08-.46l.21-.64c2.67.8,5.35,1.55,8,2.42a13.18,13.18,0,0,1,2.95,1.43c10.59,6.75,22.59,9.08,34.68,11.15,3.45.58,6.9,1.12,10.37,1.53a46.52,46.52,0,0,0,5.2,0c-2.88-2-9.54-3.88-19.48-5.83-6.59-1.29-13.31-2-19.65-4.6,3.21.34,6.43.61,9.62,1,8,1,16,1.95,24,3.27a83,83,0,0,1,11.65,3.24,5.83,5.83,0,0,0,4.72-.13c3.58-1.78,7.19-3.52,11.14-5.45a34,34,0,0,0-3.06-4.72,3.44,3.44,0,0,0-2.84-.93c-3.78,1-7.36.22-11-.72-4.61-1.2-9.25-1.54-13.89,0-.14,0-.35-.14-.77-.33,3.78-2.37,7.74-2.41,11.76-1.83,2.59.38,5.17.91,7.73,1.44a8.42,8.42,0,0,0,5.81-1.07c-1.62-2-3.66-2.85-5.48-4-6.83-4.23-13.74-4.43-20.8-.54-2.29,1.26-4.66,2.39-7,3.49-1.77.82-3.59,1.59-5.39,1.09,2.57-1.19,5.28-2.42,8-3.73s5-2.69,7.59-3.86a17.62,17.62,0,0,1,14-.5c6,2.28,11.59,5.17,15.36,10.67a9.17,9.17,0,0,0,1.28,1c-1.49-7-.87-13.92-5.1-19.75l.79-.4a11.58,11.58,0,0,1,1.9,2.67c1,2.87,1.84,5.8,2.57,8.75.63,2.54,1,5.15,1.55,7.7a18.14,18.14,0,0,0,1.06,2.73L243.2,371a13.18,13.18,0,0,0-.79-1.76c-2.63-4.29-5.35-8.51-7.89-12.85a17.46,17.46,0,0,0-7.32-6.8c-5.73-2.95-11.93-4.19-18.2-5.16-3.34-.52-6.71-.84-10.08-1.21A12.87,12.87,0,0,0,188.5,347c-4.52,4.11-9,8.25-13.68,12.22-2.79,2.38-5.82,4.53-9.68,5.35,3.38-2.51,6.66-4.86,9.84-7.33a50.88,50.88,0,0,0,8.53-8.45c-11.2,4.48-22,9.81-33,14.48l-.4-.84,35.8-18.7-.06-.61c-2.85-.19-5.69-.45-8.54-.56-2.62-.11-5.26.14-7.87-.1a23.08,23.08,0,0,0-13.52,3c-7.18,4-14.39,7.86-21.45,12a12.64,12.64,0,0,1-11.57,1.21c-.61-.23-1.26-.36-1.87-.6a7.55,7.55,0,0,0-8.25,1.46c-2.67,2.41-5.32,4.87-7.75,7.52a19.43,19.43,0,0,1-8.46,5.38,241.9,241.9,0,0,1-32.64,8.38,2,2,0,0,1-1.73-.44c1-.29,2.07-.63,3.12-.85a240.3,240.3,0,0,0,29.92-8.44,18.36,18.36,0,0,0,9.12-6.06c1.71-2.23,3.8-4.17,6-6.56-1.76-.34-2.9.54-4.09,1-6.79,2.73-13.49,5.66-20.36,8.16S72,372.29,65,374.42c-7.64,2.32-15.48,2.55-23.37,1.69a82.7,82.7,0,0,1-9.38-1.41c15.88,1.58,31.3.45,45.74-7-3-6.7-7.86-9.41-15.06-8.61a44.25,44.25,0,0,1-7.19.21c-7.6-.36-15.2-.85-22.78-1.87,2.78,0,5.56,0,8.34,0,7.52,0,15.05.16,22.56-.18,5.3-.24,9.72.92,13.06,5.22.4.51.84,1,1.25,1.51,1.8,2.22,4,2.93,6.68,1.76,6.62-2.85,13.43-5.3,19.85-8.54,6-3,12-4.15,18.3-1.8,4,1.53,7.3.67,10.75-1.53,6.06-3.85,12.3-7.42,18.95-11.4-5.66-.08-10.82-1-15.69,1.82-5.73,3.27-11.68,3.1-17.67.67-2-.83-4.14-1.48-6.06-2.5-5.16-2.73-10.66-2.84-16.28-2.55-5.23.26-10.47.33-15.71.47-1.52,0-3.05,0-4.58,0-2,0-3.66.54-4.73,2.37-.82,1.41-2.18,1.66-3.67,1.67a32.15,32.15,0,0,1-14-3.13,15.9,15.9,0,0,0-6.94-1.54c-6.67,0-13.33-.1-20-.16a4,4,0,0,1-2.27-.48c.78-.07,1.55-.17,2.33-.2l17-.61A25.67,25.67,0,0,1,55.38,340a46.27,46.27,0,0,0,10.45,2.55c3.46.52,4.31.28,6-3.36-7.92-1.69-15.65-3.86-22.84-7.84a14.67,14.67,0,0,1,2.21.45,90.34,90.34,0,0,0,23.9,5.4,156.52,156.52,0,0,0,16.35-.13c2.5-.08,5-.61,7.48-.82,5.73-.5,11.33-.09,16.66,2.39a48.06,48.06,0,0,0,5.89,2c4.59,1.43,9,1.25,13.26-1.31a21.93,21.93,0,0,1,12.81-3.26,80.27,80.27,0,0,0,8.66-.49,22.44,22.44,0,0,0-2.5-1.13q-15.1-4.31-30.23-8.61a9.93,9.93,0,0,0-5.79.06A41.48,41.48,0,0,1,100.78,327c-2.48-.3-5-.27-7.52-.34-1.73-.05-3.45,0-5.18,0l0-.75c3-.13,5.93-.38,8.89-.36,5.45,0,10.92.64,16.32-.57a1.9,1.9,0,0,0,1.4-1.1c-2.58,0-5.15,0-7.73,0-6.66-.13-13.34-.06-20-.54a133.15,133.15,0,0,1-14.55-2.23c-5-.91-9.86-1.92-14.93-1.75a9.3,9.3,0,0,1-2.86-.34,49.07,49.07,0,0,1,15.86.38,115.6,115.6,0,0,0,33.56,2c8.16-.7,16.11.85,24,2.62,4.47,1,8.91,2.14,13.38,3.2.7.17,1.42.24,2.74.45-1.81-3.1-3.36-5.64-5.66-7.68a22.16,22.16,0,0,1-3.24-3.18,14.16,14.16,0,0,0-9-5.58c-6.26-1.27-12.59-1.06-18.93-.63a26.72,26.72,0,0,1-6.85-.19c1.94-.24,3.87-.52,5.81-.7,7.07-.66,14.14-1.38,21.18.27,3.63.84,6.38,2.89,9,5.52,3.81,3.76,7.13,7.91,10.68,11.88a11.63,11.63,0,0,0,5,2.89c5,1.59,10.06,3,15.13,4.27a19.63,19.63,0,0,0,5.19.5c8.51-.17,17-.61,25.54-.62a102.64,102.64,0,0,1,21.47,2.16,18.6,18.6,0,0,0,2,.17,20.45,20.45,0,0,0-2.56-3.11,102.44,102.44,0,0,0-9.73-7.18,127.92,127.92,0,0,0-26.77-12.25c-6-2-11.32-5.08-17.13-7.27-2.51-.95-4.72-2.72-7.05-4.14a11.08,11.08,0,0,0-6.55-1.63c-13.52.65-27.05,1.21-40.57,1.8a21.19,21.19,0,0,1-3.28.1c-3.48-.39-6.12,1.13-8.45,3.49-.46.47-.94.91-1.4,1.38-3.13,3.14-6.74,4.28-11.06,2.8-2.06-.71-4.16-1.33-6.24-2a40.19,40.19,0,0,0-10.61-1.86,14.25,14.25,0,0,0-9,2.48c-.81.56-1.67,1.06-2.42,1.69a17.61,17.61,0,0,1-10.4,4.28c-3.67.23-7.32.73-11.08.65,2.16-.42,4.32-.89,6.49-1.26a25.92,25.92,0,0,1,4.54-.54c3.77,0,6.79-1.67,9.43-4,5.71-5.06,12.28-5.77,19.34-4.09,3.4.81,6.73,1.89,10.1,2.77,5.2,1.36,8,.22,11.21-4.7a6.41,6.41,0,0,0-1.75-.46c-3.27.14-6.54.28-9.8.57a21,21,0,0,1-9-1.28c-2.57-.91-5-2.11-7.65-2.93a43.81,43.81,0,0,0-7-1.54,9.71,9.71,0,0,0-7.33,2.22c-9.4,7.2-20.15,11.78-31.14,15.83a23.49,23.49,0,0,1-12.58,1.15c-2.18-.4-4.45-.33-6.67-1,2.81,0,5.63-.1,8.45,0A29.25,29.25,0,0,0,27,314.29c9.77-4.18,19.37-8.63,27.76-15.29a13.61,13.61,0,0,1,12.4-2.39,69.38,69.38,0,0,1,9,3.07,24.52,24.52,0,0,0,13.5,1.39c2.8-.44,5.64-.62,8.47-.79,12.32-.76,24.63-1.44,37-2.19a62.91,62.91,0,0,0,8.41-1c-3.19-.58-6.37-1.33-9.58-1.71-8.24-1-16.5-1.76-24.74-2.7a78.83,78.83,0,0,1-24.6-6.5,26.53,26.53,0,0,0-20.07-1.25c-7.54,2.41-15.09,3-22.87.75A38.47,38.47,0,0,0,24.37,285c-7.31,1.23-13.48-1.28-19.37-5.21a20.2,20.2,0,0,1,2.14.77,27.26,27.26,0,0,0,18.43,2.49c5.82-1.31,11.72-.84,17.56.33,2.65.53,5.36.8,8,1.18l.24-.62c-1.6-1-3.19-2-4.8-3a41.74,41.74,0,0,0-5.08-3,5.58,5.58,0,0,0-3.47-.24,4.38,4.38,0,0,1-4.74-1.36c-1.35-1.42-2.61-2.93-3.93-4.39-1.76-1.93-3.45-3.95-5.34-5.76-2.64-2.51-6.51-3.73-9.92-.38a2.7,2.7,0,0,1-3,.7C9.4,266,7.62,265.56,5.85,265l.19-.26a10,10,0,0,1,2.28.18A7.24,7.24,0,0,0,15,263.79c3-2,6.37-1.42,9.16.78a57.9,57.9,0,0,1,5.57,5.51c1.2,1.26,2.27,2.65,3.42,4,1.44,1.65,2.9,2.63,5.39,1.8,2.29-.77,4.41.65,6.42,1.79,2.94,1.67,5.92,3.26,8.88,4.89a6.55,6.55,0,0,0,5.37.48c1.45-.46,3-.8,4.38-1.33,7.76-2.86,15.31-2.34,23,.7,4.43,1.75,9.2,2.64,13.82,3.89a4.11,4.11,0,0,0,1.2-.17c-6.45-6.26-13-11.55-22.54-11.19a15.14,15.14,0,0,1-12.74-5.56c-1.47-1.75-3.21-3.26-4.83-4.88.12-.14.25-.28.37-.43,1.89,1.63,3.93,3.12,5.65,4.92a13.66,13.66,0,0,0,9.55,4.38c2.62.13,5.23.35,7.83.59a16.46,16.46,0,0,1,8.24,2.94c3.45,2.48,6.87,5,10.17,7.7a11.69,11.69,0,0,0,6.78,2.89l12.43.76c-.45-.71-.78-1.17-1-1.66-1.44-2.55-2.81-5.14-4.3-7.67-1-1.67-2.12-3.25-3.19-4.87s-2.61-3.3-3.37-5.17c-2.51-6.12-7.21-9.54-13.38-10.95-5-1.15-10.08-1.77-15.12-2.63-3.87-.65-7.77-1.16-11.59-2A26.39,26.39,0,0,1,58,246.59c-.71-.66-1.61-1.12-2.35-1.75a18.39,18.39,0,0,1-3.28-3.06,10.11,10.11,0,0,0-4.79-3.8c-4.61-1.69-9.26-3.26-13.88-4.91a57.25,57.25,0,0,1-7.3-2.79c-3.85-2-7.53-4.39-11.28-6.62l.13-.16a53.45,53.45,0,0,1,6.84,3,42.8,42.8,0,0,0,13.85,5.7c3.28.64,6.42,2,9.79,2.68-6.45-6-14-10.42-21.58-14.73A125.11,125.11,0,0,0,0,209.42c8.79,1.43,16.71,5.23,24.72,9-1.42-2.2-3.51-3.65-5.44-5.28C14.61,209.19,10,205.2,5.37,201.2a6.87,6.87,0,0,1-1.95-2.75,9.68,9.68,0,0,1,1.68,1,177.25,177.25,0,0,0,16.53,13.38c3.33,2.41,6.06,5.63,9.1,8.44A20.22,20.22,0,0,0,34,224c9.11,5.52,17.59,11.76,24.6,19.92,3.29,3.84,7.76,5.89,13.29,6.95a24.34,24.34,0,0,0-3.23-8.26,30.17,30.17,0,0,0-3.85-4.88c-4.84-5-9.82-9.94-14.67-15-2-2.11-4.27-3.72-7.3-4a6.18,6.18,0,0,1,5.54,1.07,39.09,39.09,0,0,1,4.13,3.71c4,3.86,7.92,7.83,12,11.61,3.49,3.24,6.76,6.68,8.08,11.33,1.26,4.48,4.16,5.76,8.45,6a99.46,99.46,0,0,1,14,1.7c8,1.52,15,4.73,18.56,13.13a9.45,9.45,0,0,0-1.47-9.29,40.82,40.82,0,0,0-9.33-8.65,82,82,0,0,1-7.33-5.51,22,22,0,0,1-4.33-4.87c-1.52-2.43-3.48-3-6.11-2.61a41,41,0,0,1-5.53.47,10.33,10.33,0,0,1-2.5-.6c3.15-.38,6.06-.53,8.87-1.11,2.24-.47,4,.07,5.2,1.81,3.46,5,8.33,8.3,13.28,11.52a37.24,37.24,0,0,1,9.51,8.93,11,11,0,0,1,2.52,7.59,17.7,17.7,0,0,0,.08,3.92,11.71,11.71,0,0,0,1.06,3.37c1.1,2.24,2.43,4.36,3.51,6.61,2.87,6,7.48,9.52,14.13,10.25,7.75.87,15.34,2.18,22.19,6.29a55.85,55.85,0,0,0,6.61,2.89,8,8,0,0,0-3.6-7.95c-4.29-2.38-8.6-4.75-12.74-7.38-4.7-3-9.26-6.2-13.79-9.44a15.43,15.43,0,0,1-6.13-8.11c4.88,8,13.6,11,20.71,16.06a90.23,90.23,0,0,0,8.21,4.79,6.89,6.89,0,0,0,3.55.94,18.33,18.33,0,0,0-1.36-2.82c-2.83-4.14-5.72-8.24-8.61-12.34-.75-1.06-1.65-2-2.38-3.12a41.94,41.94,0,0,0-15.16-13.7c-5.08-2.79-10.08-5.7-15.1-8.58a6.61,6.61,0,0,1-2.43-2.24c.63.26,1.29.46,1.89.78,5.32,2.79,10.6,5.66,16,8.38a45.13,45.13,0,0,1,17,14.55c2,2.82,4.48,5.27,7.15,8.36,0-4.86-1-8.71-3.88-11.92-1.88-2.12-3.92-4.11-5.93-6.12-3.39-3.4-6.84-6.75-10.24-10.15-.79-.8-1.48-1.69-2.59-3,.9.21,1.15.2,1.28.32q8.49,7.95,16.95,15.93A19.19,19.19,0,0,1,159,273.74a34,34,0,0,0,4.48,13.55,70.33,70.33,0,0,1,4.45,9.84,6.83,6.83,0,0,0,4.48,4.31c9.66,3.47,19.27,7.08,28.89,10.68,1.79.67,3.54,1.48,5.82,2.45-.3-1.32-.41-2-.63-2.71-.85-2.48-1.83-4.92-2.58-7.43a12.6,12.6,0,0,0-5.35-7.18,55.39,55.39,0,0,1-12-11.12,27,27,0,0,0-3.58-3.82,23.74,23.74,0,0,0-4.39-2.7c-2.24-1.12-4.59-2-6.84-3.11a5.84,5.84,0,0,1-3.27-4.63c-.32-2.13-.7-4.25-1.06-6.38l.65-.15a54,54,0,0,1,1.18,5.42,5.84,5.84,0,0,0,3.61,5.06,43,43,0,0,0,6,2.47,11.33,11.33,0,0,1,5.54,3.29c1.63,1.77,3.28,3.52,4.89,5.31a46.81,46.81,0,0,0,10.34,8.76,9.45,9.45,0,0,0-.29-2.24c-1.87-3.83-3.72-7.67-5.74-11.41a6.47,6.47,0,0,0-2.63-2.79c-4.34-2-7.4-5.33-10.39-8.83-1.56-1.83-3-3.73-4.66-5.5-6.13-6.71-12.78-12.59-22.51-13.37,3-1,5.76-.37,8.53.56a33.87,33.87,0,0,1,12,7.28c3.38,3.08,6.5,6.46,9.77,9.68,1.21,1.19,2.52,2.28,3.82,3.45,4.75-6.88,3.5-12.59-3.19-16.77a28.25,28.25,0,0,1-6.05-4.94,49.33,49.33,0,0,0-11.73-9.37,41.51,41.51,0,0,1-3.41-2.51l.38-.43c6,3.35,12,6.69,16.63,12a19,19,0,0,0,5.2,3.9c4.31,2.37,6.31,6.21,7.35,10.72a5.51,5.51,0,0,1-.33,2.51,15.65,15.65,0,0,1-1,2.08c-1.68,3.81-1.4,4.29,2.16,6.39a18.11,18.11,0,0,1,3.74,3.54,17.37,17.37,0,0,1,1.61,2.46l2,3c1.5-6.27,3.88-11.63,2-17.76-1-3.3-1-6.89-1.46-10.35-.25-2-.42-4.06-.67-6.5,1.52,2.06,1.51,4.25,1.89,6.29.75,4.07,1.25,8.2,2.15,12.23a16.75,16.75,0,0,1-.29,9.06c-2.25,6.73-1.75,12.88,2.08,19,2.34,3.76,3.62,8.18,5.45,12.26,1.17,2.59,2.45,5.12,3.73,7.66a12.51,12.51,0,0,0,4.56,5A42.25,42.25,0,0,1,231,332.55c2.89,3.83,5.55,7.84,8.32,11.77.61.87,1.24,1.71,2.26,3.13,1.33-3,2.57-5.36,3.46-7.87a6.83,6.83,0,0,0-.68-5.71c-1.13-2-2.32-4-3.63-5.83a144.92,144.92,0,0,1-13.41-23.63c-1.16-2.55-2.36-5.13-2.07-8.14,3.95,9.38,9.7,17.57,16.15,25.45.87-6.07,2.74-12.15-.88-17.94a55.94,55.94,0,0,0-4.78-7c-9-10.42-13.6-22.74-16.1-36.06-1.54-8.17-1.72-8.05-8.1-13.31-6.55-5.41-14-9.26-21.43-13.22a78.12,78.12,0,0,1-8-4.55,22.74,22.74,0,0,0-11.69-3.76q-9-.65-18-.82a17.11,17.11,0,0,0-5.33,1.19c-2.18.7-4.26,1.68-6.41,2.45-3,1.07-6,2-9,3.1a36.46,36.46,0,0,1-14.09,2.51,111.05,111.05,0,0,1-12.46-.61c.61-.08,1.21-.21,1.82-.24,5.45-.27,10.9-.5,16.34-.81a12.82,12.82,0,0,0,3.52-.72c5.63-2,11.24-4.15,17.53-6.49a12.89,12.89,0,0,0-2.19-.44c-6.65.2-13.31.29-20,.71a23.6,23.6,0,0,0-6.89,1.79,33,33,0,0,1-13.43,2.38A24.3,24.3,0,0,1,89.55,226a55.45,55.45,0,0,1-8.13-6A31.56,31.56,0,0,0,66,211.9a33.3,33.3,0,0,1-15.58-7.24c2.37,1.08,4.69,2.31,7.12,3.21s5.21,1.61,7.85,2.28,5.27,1.2,8.71,2c-1.24-1.6-2-2.74-2.89-3.73-2.72-3-5.36-6-8.28-8.81-3.72-3.53-8.32-4.09-13.17-3-2.66.58-5.28,1.37-7.94,2-9,2.16-17.54.35-25.92-2.94-.14-.06-.2-.31-.52-.83,7.4,2.09,14.62,4,22.06,2.72,4.68-.82,9.22-2.42,13.81-3.66-1.22-4.37-2.74-5.84-6.58-6.13-4.24-.32-8.5-.54-12.76-.56-3.94,0-6.74-1.66-8.38-5.16a45.27,45.27,0,0,1-2.31-6.1c-1.09-3.59-1.43-3.92-5.27-3.95-1.53,0-3.06,0-4.59-.07a4.76,4.76,0,0,1-3.94-2.05c3.16,1.52,6.41,1.25,9.72.93,2.64-.26,4,.82,4.92,3.37.79,2.15,1.42,4.37,2.34,6.46,1.46,3.3,3.95,5.08,7.73,4.93,3.27-.13,6.56-.12,9.83,0a25.06,25.06,0,0,1,5.17.72A6.89,6.89,0,0,1,52.14,190c1.11,2.62,3,3.49,5.75,4.08,5,1.08,8.73,4.38,12.06,8.08,3,3.33,5.83,6.8,8.83,10.13a46.5,46.5,0,0,0,12.16,9.86c8.42,4.63,16.66,3.94,25.21-.81-9.87-3.87-19.84-6.53-28-13.17a20.84,20.84,0,0,1,2.06.87,103.87,103.87,0,0,0,28.75,10.66,14.28,14.28,0,0,0,4.22.32,347.42,347.42,0,0,1,39.24-1.81,13.57,13.57,0,0,0,1.67-.28c-1.22-1-2.1-1.78-3-2.51-3.79-3.16-7.37-6.49-10-10.77s-5.51-5.49-10.26-4.19a21.72,21.72,0,0,0-7.15,3.11c-2.78,2-5.57,2.06-8.66,1.59-5.61-.85-11.24-1.6-16.85-2.43-6.91-1-13.81-2.06-20.72-3.1a38.27,38.27,0,0,1-12.84-4.75,154.09,154.09,0,0,1-26.2-19.05,254.65,254.65,0,0,1-24.17-24c-.42-.48-.82-1-1.75-2.08a6.42,6.42,0,0,1,3.3,2.27,273.43,273.43,0,0,0,24.25,22c3.76,3,7.68,5.78,11.54,8.64a14.6,14.6,0,0,0,1.66.9c-1.19-5.08-2.76-9.43-6-13.23s-6.15-8.2-9.13-12.38a23.3,23.3,0,0,1-1.6-3.2l.2-.17c2.62,3.47,5.23,7,7.87,10.42a25.15,25.15,0,0,0,2.1,2.51c3.68,3.69,6.57,7.83,7.82,13a12.37,12.37,0,0,0,7.58,8.81c4.1,1.76,8.16,3.59,12.28,5.3a22.79,22.79,0,0,0,3.82.75c-2.33-3.29-3.66-6.25-3.84-9.56q-.19-3.73,0-7.49c.13-3.48.56-7-.63-10.36a8.49,8.49,0,0,0-5.34-5.75c-3-1-5.95-2.18-8.83-3.47-2.06-.93-4-2.18-5.95-3.29l.2-.22,15.12,5.95.52-.58q-2.47-4.68-5-9.36l.35-.32A13.12,13.12,0,0,1,76,152.43c1.57,2.62,3.07,5.29,4.68,7.89a8.06,8.06,0,0,0,2.1,2.45c2.78,1.9,5.67,3.63,8.94,5.69-.14-1.46-.25-2.67-.39-4.21,1.45,1.3,1.52,2.95,1.83,4.37a7.68,7.68,0,0,0,4.21,5.54c5.87,2.89,12.14,3.88,19.11,3.8a27,27,0,0,0-6.54-8.84,63.24,63.24,0,0,0-7.23-5.64c-8.71-5.65-15.87-13-22.87-20.53-2.15-2.32-4.21-4.74-6.2-7.2A10,10,0,0,0,66,131.94c-4.69-.22-9.38-.41-14.07-.66a13,13,0,0,1-8.3-2.95c5.49,2.64,11.31,1.9,17,1.94,1.75,0,3.5,0,5.24.06a12.82,12.82,0,0,1,9.19,4.32c5.44,5.82,11.16,11.37,16.79,17a18.87,18.87,0,0,0,2,1.65c.14.1.41,0,.8,0a12.32,12.32,0,0,0-1.29-6.28c-2.86-5.76-5.56-11.6-9.67-16.68-3.18-3.93-6.63-7.25-11.68-8.52a13.87,13.87,0,0,1-1.72-.75A15.9,15.9,0,0,1,81.76,126a46.19,46.19,0,0,1,5.86,7,146.15,146.15,0,0,1,7.83,14c1,2.09,1.25,4.61,1.6,7a4.66,4.66,0,0,0,2,3.53c1.72,1.16,3.35,2.47,5.15,3.5a38.91,38.91,0,0,1,10,7.88,7.1,7.1,0,0,0,1,.78c1.85-3,1.91-4.56,0-6.9a43,43,0,0,0-3.62-3.78,10.13,10.13,0,0,1-3.26-8.26c.28.1.57.14.58.22.58,3.8,2.71,6.55,5.67,8.85,3.46,2.7,4.86,6.09,3,10.39a3.53,3.53,0,0,0,.43,3.69c3.44,4.8,6.77,9.66,10.19,14.48.69,1,1.55,1.83,2.32,2.75,2.47,3,5.29,4,9.26,2.73,6.8-2.11,12.31-.08,16.28,5.78a41,41,0,0,0,10.51,10.23,180.59,180.59,0,0,0,25.73,15c.56.27,1.18.43,2.25.81a49.14,49.14,0,0,0-1.57-10.22c-.13-.44-.74-.76-1.15-1.1-1.82-1.56-3.63-3.13-5.48-4.65-2.43-2-4.86-4-7.37-5.93a9.74,9.74,0,0,1-3.86-4.75l17,13a5.08,5.08,0,0,0,.42-1.59,43.8,43.8,0,0,0-3.91-13.47c-1.46-2.9-3.48-4.62-7-4.25-4.72.51-9.06-.83-13.25-2.92-1.94-1-4.11-1.47-6.11-2.33a57.38,57.38,0,0,1-8-3.76c-6.67-4.17-13.16-8.62-19.78-12.87-3-1.94-6.15-3.67-8.93-5.32,1.61-.23,2.62-.06,5.41,1.54,3.89,2.23,7.71,4.57,11.56,6.86,4.49,2.68,9,5.35,13.74,7.82a27.48,27.48,0,0,0-3.2-7.26c-2.84-4.27-5.6-8.59-8.39-12.89-.77-1.19-1.55-2.37-2.41-3.68,1.52,0,2,1.19,2.58,2.06q5.12,7.22,10.14,14.49a22.38,22.38,0,0,1,1.72,3.16,13.86,13.86,0,0,0,8.57,7.56c2.17.73,4.3,1.61,6.43,2.45a16.33,16.33,0,0,0,8.82.93c0-1.38-1.1-1.91-1.82-2.6a80.75,80.75,0,0,1-16.42-21.54c-2.45-4.87-4.52-9.94-6.66-15-1.31-3-1.23-3.14-4.51-3.08-6.1.11-12.2-.23-18.32.09A33.1,33.1,0,0,1,122,144.84c-6.9-2.06-13.66-4.57-20.48-6.91-.28-.09-.51-.33-.68-.88,1.13.22,2.29.35,3.39.68q7.66,2.36,15.31,4.8c5.35,1.72,10.75,2.79,17.06,1.86-1-.61-1.57-1-2.17-1.27-4.69-2.08-9.35-4.22-14.09-6.19a85.33,85.33,0,0,0-11-4.07,49.3,49.3,0,0,1-15.21-6.68c-3.62-2.42-7.37-4.65-11.71-7.38a12.18,12.18,0,0,1,2.46.55c3.18,1.68,6.41,3.3,9.49,5.17a42.4,42.4,0,0,0,15.42,6.13,46.56,46.56,0,0,1,13,4.36,29.94,29.94,0,0,0,6.12,2.22c-3.06-2.91-6.84-4.7-10.3-7s-6.92-4.54-9.86-8.65c1,.41,1.4.45,1.62.67,3.87,3.78,8.47,6.51,13.18,9.09a76.09,76.09,0,0,1,11,7.54c2.56,2.07,6.26,3,9.61,3.7a15.16,15.16,0,0,0,8.16-.47,4.89,4.89,0,0,0,0-1.34,52.93,52.93,0,0,0-8.2-15.23c-1.1-1.49-2.74-1.69-4.33-2-3.2-.66-6.41-1.3-9.64-1.88-7.17-1.29-13.4-4.63-19.08-9a16.84,16.84,0,0,0-10.21-3.79c-3.49-.08-7-.37-10.46-.64a6.62,6.62,0,0,1-3.31-1.18c5.51.28,11,.57,16.53.82a13.33,13.33,0,0,1,7.74,3.21c7.81,6.13,16.88,9,26.61,10a14.21,14.21,0,0,0,1.49,0c-.15-1.51-1.26-2.11-2.08-2.83a49.62,49.62,0,0,0-20.09-10.6c-11.58-3.16-23.11-6.54-34.6-10A63.22,63.22,0,0,1,71.93,93a308.19,308.19,0,0,0,39.74,10.86C108.06,98,104,93.32,97.94,90.67A39.27,39.27,0,0,1,83.81,80.26a3.79,3.79,0,0,1-1-2.29c.76.71,1.55,1.4,2.27,2.15a38.21,38.21,0,0,0,13.16,9,27,27,0,0,1,12,9.29,23.61,23.61,0,0,0,2.28,2.8,14.7,14.7,0,0,0,7.32,4.59c12.27,2.85,21.6,10.11,29,20.11a60.79,60.79,0,0,1,7.34,13.49c2.2,5.46,4.55,10.85,6.84,16.27l.78-.18c-.31-2.15-.57-4.31-.93-6.45-1.3-7.68-4.69-14.56-8.62-21.14-4.81-8.06-9.9-16-15-23.87a54.14,54.14,0,0,1-6-13C131,84,128,77.16,125.3,70.23a6.87,6.87,0,0,1-.66-3.1,14.92,14.92,0,0,1,.81,1.31c3.9,7.94,7.72,15.92,10.13,24.49a18.59,18.59,0,0,0,2.07,4.8c2.47,4,5.11,7.79,8.1,12.29,1-5.86,1.73-10.9-.2-15.84q-2.69-6.86-5.75-13.56c-1.4-3.08-1.77-3.88-1.82-6.36,2.09,4.23,4.22,8.55,6.38,12.87,3,6,4.69,12.16,4,19a18,18,0,0,0,3.37,12.7C154,122,156,125.35,158.33,129a15.47,15.47,0,0,0-.7-8.62c-1-2.66-2.09-5.28-3.11-7.93-1.59-4.12-2.68-8.3-1.8-12.79A37.29,37.29,0,0,0,153,94.8a2.16,2.16,0,0,1,.91,2.63c-1.18,6,.24,11.49,2.93,16.78a35.55,35.55,0,0,1,4,16.72,13.39,13.39,0,0,0,1.35,5.63,59.55,59.55,0,0,1,5.18,19.54c.19,2,.49,3.9.82,5.84a16.32,16.32,0,0,0,3.68,8.27c1.71,2,3.32,4,5.29,6.42a9.36,9.36,0,0,0,.16-5.47c-.33-1.94-1-3.83-1.2-5.77a14,14,0,0,1,.14-5.16,19.42,19.42,0,0,0-1-13.12c-.75-1.81-1.46-3.64-2.19-5.46l.11-.09c4.09,5.47,6.45,11.42,4.61,18.33-.66,2.46-.17,4.73.28,7.1.65,3.42,1.29,6.85,1.73,10.3a5.55,5.55,0,0,0,1.76,3.72c1.22,1.09,2.38,2.26,3.62,3.32,4.2,3.57,8,7.48,10.11,12.69a9.52,9.52,0,0,0,1.06,1.47c1.49-3.7,3.18-6.86,3.37-10.49a8.38,8.38,0,0,0-1.06-3.35c-1.3-3.1-2.67-6.19-4-9.28-1.74-4-3.51-8-5.21-12-1.06-2.5-2.15-5-3-7.58-1.07-3.28-1.91-6.63-3-10.64a14,14,0,0,1,3.13,6.16c1.56,8,7,14.25,10.13,21.61,1.61-4.65,1.77-9.18-.35-13.76-1.46-3.15-2.61-6.46-3.88-9.7a7.13,7.13,0,0,1-.23-1.31c.27,0,.55,0,.59.05,1.82,3.84,3.61,7.69,5.41,11.54a18.72,18.72,0,0,1,1,12.21c-1,4.48-.71,8.25,2.28,11.89,1.68,2.05,1.65,4.72.94,7.23-.94,3.36-2,6.69-3.09,10a16.38,16.38,0,0,0-.46,9c1,4.68,1.75,9.44,2.61,14.17.63,3.48,2,6.29,5.52,7.93,2.53,1.19,4.78,3,7.84,4.95-.39-2.36-.67-4.07-.95-5.78l.54-.14c.5,1.61.9,3.25,1.53,4.8a8.4,8.4,0,0,0,1.94,3.27c4.5,3.8,9.13,7.45,13.73,11.14a10.64,10.64,0,0,0,1.41.73c.93-5.58,1.88-10.92,2.66-16.27a4.07,4.07,0,0,0-.8-2.73,16.65,16.65,0,0,0-3.56-3.78,31.12,31.12,0,0,1-8.6-9.33,34.14,34.14,0,0,0-7.88-8.68c-1.74-1.41-3.25-3.09-4.87-4.64l.56-.61c1.58,1.37,3.07,2.84,4.75,4.08a34.55,34.55,0,0,1,9.2,9.66c2.83,4.56,7.26,7.43,11.59,10.87a5.49,5.49,0,0,0-.42-5.43c-3.92-5.61-6.65-12-11.51-17-4.44-4.64-8.17-10-12.18-15a18.34,18.34,0,0,1-3.77-9.27,90.5,90.5,0,0,0-2.19-9.21,4,4,0,0,1-.17-1.84,19.07,19.07,0,0,1,3.47,7.93c.39,1.59.37,3.32,1,4.81a23.35,23.35,0,0,0,3.28,6c3.19,3.88,6.66,7.52,10,11.25a5.32,5.32,0,0,0,1.06.62c-.42-3.14-.76-6-1.21-8.88-1.08-6.79-1.92-13.63-3.4-20.33a46.94,46.94,0,0,0-7.95-17.85,13,13,0,0,0-4.78-4.28c-8.2-3.61-14-9.91-19.66-16.49-3.13-3.64-6.19-7.35-9.41-10.91a15.49,15.49,0,0,0-8.84-5.23c-3.42-.63-6-3-7.9-6a15.73,15.73,0,0,1,1.71,1.06,16.71,16.71,0,0,0,8.2,3.78A11.1,11.1,0,0,1,177,120c4.14,3.72,8,7.74,11.93,11.67,1.07,1.07,2,2.21,3.63,3.92-.17-1.37-.21-1.92-.31-2.47-.79-4.51-1.56-9-2.43-13.51a3.5,3.5,0,0,0-1.13-2.11,9.31,9.31,0,0,1-4.2-7.79,9,9,0,0,0-5-8.18,7.66,7.66,0,0,1-1.17-1l.34-.56,4.75,2.91c-1-5.75-1.62-10.89-4-15.58a8,8,0,0,0-2-2.11c-1.56-1.34-3.2-2.58-4.75-3.91-3.56-3.06-7.08-6.16-10.63-9.22-.9-.79-1.85-1.52-2.78-2.28l.39-.45A67.34,67.34,0,0,1,173,79.73a30.92,30.92,0,0,0,5,4.1,9.31,9.31,0,0,1,3.95,5.45c1.08,4.11,2.11,8.24,2.93,12.41a7.38,7.38,0,0,0,2.72,4.63c2,1.64,4,3.39,5.89,5.21,2.43,2.35,2.4,2.76.1,5.56,4.41,1.53,9,1.68,13.41,2.74-.52-4.79-9.76-18-18.91-27.17l.39-.44a34.87,34.87,0,0,1,10.43,10.27c4.87,7,9.34,14.24,14,21.38a10.91,10.91,0,0,0,1.78,2.31,26.11,26.11,0,0,0-2.94-12.75,34.35,34.35,0,0,1-3.78-12.8,22.87,22.87,0,0,1,.4-7.14c.61-3-.1-5.32-2.52-7.23-3.26-2.57-6.44-5.23-9.66-7.85a5.43,5.43,0,0,1-1.76-2,4.88,4.88,0,0,1,1.29.5q5.94,4.64,11.84,9.32a6.39,6.39,0,0,1,2.31,7,25.32,25.32,0,0,0,2.54,17.5,44.45,44.45,0,0,1,4.78,18.2c.25,4.25,2.52,7.48,5.54,10.46a11.1,11.1,0,0,0,0-2.08A54.59,54.59,0,0,1,221.31,122c.22-2.62-.78-5.36-1.4-8-.66-2.82-1.52-5.59-2-8.46,2.59,6.82,5.54,13.5,5.14,21.09-.15,2.88.65,5.83,1.14,8.73.72,4.3,1.74,8.56,2.27,12.88a33.82,33.82,0,0,1-.32,7.16,35.83,35.83,0,0,1-.81,4.18,27.85,27.85,0,0,0,.65,14.47c2,6.87,3,14.07,4.34,21.15a44.06,44.06,0,0,0,5.36,14.15c.1-1.55.18-2.35.2-3.14.2-6.55.51-13.1.56-19.65,0-3.92-.4-7.85-.55-11.78-.17-4.36-.21-8.73-.38-13.09-.12-3-.38-6.06-.59-9.27a5.35,5.35,0,0,1,1,1.57,40.9,40.9,0,0,1,1,5.78c.66,9,1.22,18.07,2.16,27.18a8.72,8.72,0,0,0,2.18-5.11c1.44-11.65,2-23.28-.82-34.83a12.67,12.67,0,0,1-.12-1.54c3.12,4.55,7.55,6.29,11.93,8.11,2.42,1,4.86,2,7.24,3.06a18.09,18.09,0,0,0,9.21,1.83c3.24-.27,5.94,1.16,8.35,3.18a34.41,34.41,0,0,0,3,2.55,66.37,66.37,0,0,0-9.33-13.85,74.79,74.79,0,0,0-15.91-13.05,29.76,29.76,0,0,1-5.81-4.73,36.45,36.45,0,0,0-9.36-7.08c-2.4-1.31-4.79-2.62-7.17-4a6.1,6.1,0,0,1-3.13-4.68,13.59,13.59,0,0,0-2.24-4.59,23.65,23.65,0,0,0-2.57-2.94c3.3,1.16,6,3.84,6.7,6.88a4.94,4.94,0,0,0,3.22,3.77c2.39,1,4.77,2,7.68,3.26a13.83,13.83,0,0,0-.63-2,226.89,226.89,0,0,1-12.27-26.77c-.57-1.46-1.8-2.64-2.64-4-2.42-4-6.46-5.62-10.31-7.69a58.87,58.87,0,0,1-7.77-5.43,57.87,57.87,0,0,0-22.51-11,72,72,0,0,1-21.46-8.64c-4.11-2.49-8.26-4.92-12.35-7.43a6.53,6.53,0,0,1-2.49-2.67c.48.22,1,.41,1.45.66,7.42,4.16,14.75,8.52,22.31,12.41,3.15,1.62,6.82,2.23,10.25,3.3,4,1.27,8.1,2.52,12.15,3.82a21.55,21.55,0,0,0,3.37,1c-4.14-3.35-9-5.57-13.24-8.91a10.74,10.74,0,0,1,1.89.51c3.72,1.83,7.47,3.63,11.12,5.6a17.53,17.53,0,0,1,3.58,2.81c6,5.66,12.55,10.54,20.46,13.29.39.14.8.23,1.79.51-1.75-5-3.29-9.58-5.94-13.72C214.35,61.87,208,56.74,201,52.39c-7.65-4.73-15.89-8.24-24.25-11.48a56.37,56.37,0,0,1-7.11-3.16,156.54,156.54,0,0,1,30.85,12.16c-1.24-5.07-2.16-9.41-3.42-13.66a15.89,15.89,0,0,0-2.66-4.47c-3.92-5.37-7.9-10.69-12.22-16.5a8.3,8.3,0,0,1,3.61,3c2.45,3.08,4.82,6.22,7.23,9.33.87,1.12,1.69,2.28,2.64,3.34a18.06,18.06,0,0,1,4.11,8.1c.39,1.7.79,3.4,1.16,5.11.9,4.09,2.73,7.56,6.35,10,1.54,1,2.95,2.24,4.4,3.41a42.87,42.87,0,0,1,13.3,18q3.43,8.7,6.92,17.35c.47,1.18,1,2.34,1.54,3.56a2.79,2.79,0,0,0,2-3.31,25.59,25.59,0,0,0-1.12-5.42c-2.3-6.48-5-12.84-7.1-19.38-2.41-7.36-4.48-14.83-6.54-22.3-1.22-4.44-2.3-8.89-5.31-12.78a7.19,7.19,0,0,1,1.56,1,21.84,21.84,0,0,1,4.34,8.37c1.95,6.37,3.85,12.75,5.92,19.08,1,3,2.27,5.89,3.56,9.18a27.29,27.29,0,0,0,5.58-6.55,4.82,4.82,0,0,0-.52-5.29A29.56,29.56,0,0,0,232,54.63a6.94,6.94,0,0,1-2.21-7.7c.77-2.37,1.47-5,3-6.82a8.52,8.52,0,0,0,1.85-7.59,2,2,0,0,1,.06-1.18c1.31,3.06,2.11,5.9-.58,9-1.5,1.71-2.27,4.21-2.91,6.48a6.28,6.28,0,0,0,2.17,7,21.59,21.59,0,0,1,4.13,4.61,6.5,6.5,0,0,1-.29,8.22c-1.15,1.46-2.28,2.93-3.45,4.37a4.72,4.72,0,0,0-.63,5.46c1.56,3.36,3,6.8,4.31,10.27a38.94,38.94,0,0,1,1.52,5.68A5.88,5.88,0,0,1,237.57,98a4,4,0,0,0-.74,4.53c1.2,3.11,2,6.41,4,9.31,2.52-6.25,5-12.3,7.41-18.34a18.72,18.72,0,0,0,1.61-8.29,12.72,12.72,0,0,1,2.11-7.46,5.53,5.53,0,0,0,.54-5c-1-3.09-1.89-6.22-2.82-9.33l.61-.23c1.31,3.36,2.61,6.72,4.06,10.45a10.75,10.75,0,0,0,1.48-1.88,83.89,83.89,0,0,0,3.42-8.14,7.57,7.57,0,0,0-.25-3.78c-.68-3.06-1.85-6-1.45-9.29l2.7,9.52h.8c1.6-3,2.84-6.18,2.07-9.68-.7-3.18-1.86-6.27-2.85-9.39a24,24,0,0,1-1.31-5.17,6,6,0,0,1,.82,1.36c1.06,3.66,3.19,6.64,5.55,9.56,7,8.66,13.9,17.43,20.85,26.13,1.15,1.44,2.43,2.77,4.09,4.66,0-2.29.14-4,0-5.63-1-10.25-3.48-20.24-6.16-30.14-1.21-4.48-3.49-8.68-5.32-13-.63-1.5-1.36-3-2-4.44l.23-.19a48.53,48.53,0,0,1,8.58,17.53c2.25,9,4.23,18.07,6.14,27.15.61,2.86.54,5.87,1,8.77a8.64,8.64,0,0,0,1.52,4.17,52.82,52.82,0,0,0,13,11.26,18.27,18.27,0,0,1,1-2c1.38-2.08,2.55-4.37,4.28-6.12s2.5-3.73,1.86-6.18c-.49-1.9-.88-3.83-1.44-5.71-2.29-7.76-4.81-15.44-8.61-22.63a17.23,17.23,0,0,1-1.93-6.15c1.51,2.83,3.07,5.63,4.52,8.48a134.24,134.24,0,0,1,9.3,24.11,22.17,22.17,0,0,1,.61,2.89,7,7,0,0,1-2.14,6.54,16,16,0,0,0-3.13,4.14c-2,3.95-1.81,4.7,1.34,7.92,1.44,1.47,2.82,3,4.39,4.7,1.61-1.38,3.11-2.77,4.72-4,2.08-1.59,4.22-3.12,6.41-4.56a7.25,7.25,0,0,0,3.37-4.63q.76-3.51,1.28-7.07c.2-1.4,0-2.88.28-4.24a11.37,11.37,0,0,0-2.77-10.38C324,60.6,321,51.2,316.54,42.62c-.13-.25-.09-.59.36-1.13,1.79,3.41,3.84,6.71,5.32,10.24a56.93,56.93,0,0,0,8.19,13.74c.41.51.79,1,1.21,1.56a15.2,15.2,0,0,1,3.44,12.53c-.46,3.09-.55,6.23-.84,9.85a25.49,25.49,0,0,0,6.66-7.57c6.06-9.84,5.13-19.51-2.51-28.36-4.07-4.71-8.17-9.41-12-14.34A60.73,60.73,0,0,1,313.65,6.65a29.82,29.82,0,0,1,.19-5.88c1,8.11,2.34,16.12,5.79,23.6s8.41,14,14.42,20.57a16.36,16.36,0,0,0-.18-2.28,30.23,30.23,0,0,1,.27-14,24.94,24.94,0,0,0-.24-11C332.71,12.07,331.65,6.4,331,.57a3.75,3.75,0,0,1,.5.89c1.48,6.38,2.91,12.78,4.41,19.16a20.28,20.28,0,0,1-.17,8.1C334.67,35.4,334.69,42,338,48.21a16.82,16.82,0,0,0,2.35,3.51A28.65,28.65,0,0,1,347,62.52a6,6,0,0,0,.72,1.1c2.42-5.88,6.35-10.43,10.12-15.06a9,9,0,0,0,.63-11.25,64.32,64.32,0,0,0-7.12-8.49A82.17,82.17,0,0,1,345,21.74a18.54,18.54,0,0,1,1.58,1.18c3.08,2.79,6.29,5.44,9.14,8.45a29.73,29.73,0,0,1,4.89,6.89,9.71,9.71,0,0,1-1,10.81c-1.84,2.44-3.7,4.87-5.49,7.35A31.22,31.22,0,0,0,348.13,71a30.39,30.39,0,0,0,2.12-3.37c2.24-4.94,6.06-8.47,10.18-11.78a85.85,85.85,0,0,0,6.74-5.72A10.22,10.22,0,0,0,369.69,46c1.22-3.85,2.23-7.77,3.11-11.71a11,11,0,0,0-.15-4.2,44.48,44.48,0,0,1-.57-13c.54,4.67,1,8.62,1.47,12.56l.86.08a52.45,52.45,0,0,0,4-11.82,40.17,40.17,0,0,1-.46,4.53,25.18,25.18,0,0,1-1.38,4.37c-1.57,3.93-2.45,7.84-1.08,12.09.89,2.77-.42,5.28-2.3,7.17-2.66,2.66-4,5.91-5.07,9.37-1,3.12-2.2,6.17-3.24,9.28a33.38,33.38,0,0,0-1.84,10.77l2.89-1c0,.39,0,.56,0,.59-3.19,1.61-3.4,4.43-3.06,7.49a145.07,145.07,0,0,0,2.4,15.82l3.37-9.84a13.56,13.56,0,0,1,4.81-6.78,25.29,25.29,0,0,0,8.74-12.43,62.93,62.93,0,0,0,2.65-12.44c1.43-13-.48-25.93-2.25-38.8-.43-3.14-1-6.26-1.4-9.4a4.62,4.62,0,0,1,.25-2.21,296.51,296.51,0,0,1,6.41,38.18c3.74-8.68,8-17.06,10.32-26.2A19.15,19.15,0,0,1,402.32,10c2.48-2.75,4.95-5.53,7.51-8.21A14.52,14.52,0,0,1,412.49,0c-2.11,2.48-4.16,5-6.35,7.42a29.76,29.76,0,0,0-7.13,13,102.75,102.75,0,0,1-5.55,15.73,73.75,73.75,0,0,0-6.35,24.92c-.52,7.87-3.72,14.76-8.65,20.86a9.16,9.16,0,0,1-2,2.13c-2.82,1.76-3.95,4.5-4.8,7.51-1.09,3.87-2.29,7.7-3,11.83l1.55-1.32c3.15-2.69,6.34-5.33,9.44-8.09,3.74-3.33,7.61-6.56,11.05-10.19,5.07-5.36,7.45-12,7.86-19.34a26.79,26.79,0,0,1,2.29-9.15c3.38-7.87,8.61-14.4,14.87-20.15a2.36,2.36,0,0,1,1.47-.55c-4.41,5.15-9,10.09-11.65,16.57a42.46,42.46,0,0,0,5.33-4.12c.73-.75.61-2.32.93-3.76l1.53,2.29a78.41,78.41,0,0,0,16-9.32l.46.63a24.59,24.59,0,0,1-2.58,2.22c-3.19,2.09-6.4,4.18-9.68,6.13-4.74,2.81-4.23,1.79-4.23,7.29,0,5.67-.1,11.35-.5,17a81,81,0,0,1-1.73,9.31c-.1.5-.1,1-.23,2.38,5.59-4.42,10.69-8.28,14.8-13.24.61-.74.44-2.3.3-3.44-.36-2.93-.94-5.82-1.37-8.74a7.62,7.62,0,0,1,.26-3.85l2.76,13.75a18.91,18.91,0,0,0,1.94-1.59c2.57-2.83,5-5.77,7.66-8.53a24.56,24.56,0,0,1,8.42-5.53c3.9-1.64,7.62-3.74,11.42-5.64.07.08.15.16.22.25a23.47,23.47,0,0,1-9.45,5.7,27.84,27.84,0,0,0-12.07,8.7c-1.87,2.28-3.76,4.55-5.75,6.73a5.5,5.5,0,0,0-1.51,5.1c.53,2.55,1,5.11,1.55,8,3.16-1.1,5.23-3.44,7.79-5s5.31-3.45,8-5.07,5.33-3,8-4.45,5.61-2.94,8.43-4.38,5.43-2.73,8.15-4.1l.36.54c-.72.48-1.42,1-2.17,1.42-6.5,3.6-13.13,7-19.47,10.83-5.5,3.35-10.73,7.14-16,10.89-3.09,2.22-3,2.37-1.42,6.68a15,15,0,0,0,2.51-1.11c3.1-2,6.25-4,9.19-6.3a49.21,49.21,0,0,1,12.17-7c2.76-1.08,5.35-2.11,5.74-5.7.06.85.13,1.69.19,2.63.28.06.62.25.86.17a40.2,40.2,0,0,0,11.95-6.69c.71-.56,1.47-1.08,2.2-1.62l.44.55A24.42,24.42,0,0,1,474,63.92a101.61,101.61,0,0,1-9.88,5.75c-2.39,1.14-3.94,2.56-4.4,5.18a33,33,0,0,1-1.11,3.71c6.38,0,12.35-.35,18.07-2.75a15.79,15.79,0,0,1-9.15,3.66c-2.39.28-4.78.53-7.16.8a4.26,4.26,0,0,0-3.91,2.92c-1.87,4.78-4,9.47-6,14.21-.37.89-.59,1.83-.95,3a5.34,5.34,0,0,0,5.3-2c2.75-3.1,5.55-6.17,8.36-9.22a7.64,7.64,0,0,1,2.56-1.84c-2.9,4-6.55,7.37-9.38,11.77,5.87-.16,11.3-.43,16.3-3.8-1.11,1.84-1.18,2.18-3,2.68a70,70,0,0,1-10.84,2.32,7.14,7.14,0,0,0-6,3.73,48.53,48.53,0,0,0-6.24,15.41c-.29,1.44-.29,2.94-.48,5,1.57-.52,2.59-.8,3.55-1.19,3.64-1.5,7.28-3,10.87-4.6A40.07,40.07,0,0,0,465,116c19.73-12.33,32.93-30.32,43.64-50.46a22.24,22.24,0,0,1,2.51-4.12c-7.47,18.9-19,35-33.38,49.43a72.28,72.28,0,0,0,10.44-4.48c3.53-1.74,7.08-3.45,10.52-5.35s6.69-4,10.69-6.43a12,12,0,0,1-1.71,2.07,84.81,84.81,0,0,1-8.44,5.63c-10.25,5.39-20.64,10.49-30.88,15.89a41.45,41.45,0,0,0-7.42,5.3c-2.19,1.89-2.11,2.83-.26,5,2.29,2.6,4.64,5.15,7.26,8,.34-1.34.6-2.35.85-3.36.59-2.44,1.05-4.92,1.79-7.32,2.26-7.36,6.66-10.75,14.38-11.15,2.5-.13,5,0,7.53-.12,3.6-.16,7.21-.28,10.79-.68,5.61-.64,10.27-3.5,14.66-6.85,1.81-1.39,2.21-3.36,2.16-5.56-.14-6.15,1.43-8,7.64-8.45,5.22-.38,10.47-.38,15.7-.64a52,52,0,0,0,6.83-.72c3.78-.69,7.16-2.06,8.14-6.87.5,2.55-.09,4.33-2,5.54a15.82,15.82,0,0,1-5,2.23,84.6,84.6,0,0,1-10,1.4c-4.13.36-8.28.46-12.42.7a14.39,14.39,0,0,0-2.26.37c-4,1-4.7,1.66-4.37,5.85.32,4-1.35,6.76-4.44,9.22-6.56,5.24-14.1,7.14-22.26,7.45-4.14.16-8.29.33-12.42.74a10.64,10.64,0,0,0-9.34,9.19,6.49,6.49,0,0,0,.28,1.59,15.35,15.35,0,0,0,2.8-1.07c5.33-3.47,11.3-4.47,17.48-4.71,7.86-.32,14.5-3.67,20.6-8.35a3.39,3.39,0,0,1,1.93-.84,9.47,9.47,0,0,1-1.19,1.58c-5.81,4.88-12.33,8.25-20,9.15-2.38.28-4.81.31-7.16.74a27,27,0,0,0-5.91,1.77c-2.7,1.18-5.24,2.72-7.89,4a3.87,3.87,0,0,0-2.43,3.2c-.34,2.56-.84,5.1-1.37,8.24a19.31,19.31,0,0,0,10.1-4.73,4,4,0,0,1-2.4,3c-2,1-4,1.83-6,2.67-1,.42-2.14.71-2.27,2.05-.4,4.26-2.63,7.57-5.41,10.6a2,2,0,0,0-.48,1.26c5.2-1.88,10.51-3.37,14.09-8.14,2.42-3.22,5.18-6.19,7.79-9.27l.39.34c-2.95,3.91-5.69,8-8.94,11.66a24.64,24.64,0,0,1-6.61,4.66,50.26,50.26,0,0,1-7.77,3.43c-7.16,2.5-12.28,7.74-17.58,12.75a9.88,9.88,0,0,0-1.35,2.06c2.24,2.29,11.76,7.54,15.46,8.59.19-.24.5-.46.57-.75,1.25-5,4.44-8.7,8.15-12,5.38-4.78,10.89-9.42,16.33-14.13,1.65-1.43,3.29-2.87,4.86-4.38a17.3,17.3,0,0,0,5.18-8.92,16.74,16.74,0,0,1,5.5-9.09A46.93,46.93,0,0,1,514,125.67l.37.43c-3.29,2.32-6.65,4.57-9.87,7a18.52,18.52,0,0,0-7.6,11.45,20.43,20.43,0,0,1-6.46,10.81c-4.06,3.81-8.2,7.54-12.31,11.3l-3.21,3c3.33.18,6-.63,9.22-3.31,4.75-4,9.37-8.18,14-12.37,2.42-2.21,4.6-4.67,7-6.91a23,23,0,0,1,3.21-2.15,15.34,15.34,0,0,1-1.19,1.54c-6.62,6.64-12.85,13.66-20,19.75-3.6,3.06-7.33,5.51-12.08,6a8.26,8.26,0,0,0-6.25,3.64q-1.8,2.53-3.38,5.2a10,10,0,0,0-.58,2.53L483.7,174a3.05,3.05,0,0,1-1.57,1.75q-7.77,4.22-15.56,8.37c-3.15,1.67-3.24,2-.62,4.59a24.57,24.57,0,0,1,5.6,7.59,8.13,8.13,0,0,0,1.12,1.42l2.65-2.67c6.21-6.27,12.46-12.52,18.6-18.86a7.76,7.76,0,0,0,1.79-3.33,29.83,29.83,0,0,1,5.38-11.08c3.19-4,6.19-8.23,7.17-13.44a18.29,18.29,0,0,0,0-3.47l15.48-22.25.52.27a16.44,16.44,0,0,1-1,2.11c-2.81,4.16-5.6,8.34-8.5,12.44a26,26,0,0,0-4.89,10.95c-.93,5.67-4.14,10.26-7.45,14.77-2.69,3.64-3.57,5.61-4,9.17,1.36-.07,1.81-1.12,2.27-2,5.23-10.32,13.85-17.25,23.23-23.46a24.23,24.23,0,0,0,4.91-4.23c2.43-2.8,4.48-5.92,6.88-8.74a21.74,21.74,0,0,1,4.6-4.07,33.66,33.66,0,0,1,6.42-3.25c7.72-2.95,13.48-8.33,18.64-14.53,1-1.17,2.1-2.21,3.15-3.31l.21.18c-4.9,7.36-10.56,13.9-18.74,17.82-2.76,1.32-5.54,2.62-8.16,4.2a17.85,17.85,0,0,0-4.43,3.79c-2,2.43-3.7,5.11-5.53,7.68.16.17.3.44.41.42,4.31-.65,8.66-1.1,12.9-2.06,5.52-1.26,11-2.91,16.41-4.42a13.08,13.08,0,0,1,3.55-.79,7.9,7.9,0,0,1-1.31,1,78.32,78.32,0,0,1-23,7.24c-2.42.37-4.91.56-7.67,2.16,3.79-.21,6.92-.49,10.06-.53,6.77-.09,13.55.08,20.32-.12a82.13,82.13,0,0,0,9.72-1.19,7.75,7.75,0,0,0,5.09-3.28,81.56,81.56,0,0,1,8.19-9.44,12.09,12.09,0,0,1-.89,1.76c-2,2.84-4.2,5.59-6.17,8.48a9.19,9.19,0,0,1-6,4.18,104.68,104.68,0,0,1-11.63,1.77c-6.43.46-12.88.44-19.31.81-10.06.58-19.31,3.49-27.19,10a10.28,10.28,0,0,0-2.15,2.41c7.69-1.17,15.16-3.09,22.95-3.13s15.44-.7,23.21-.58c-2.37.32-4.73.77-7.1,1-6.42.5-12.85.87-19.27,1.33-7.46.54-14.63,2.46-21.74,4.63a5.46,5.46,0,0,0-2.67,2.16c-1.4,2.09-2.41,4.42-3.82,6.5a36.13,36.13,0,0,1-4.14,4.94c-1.94,2-4,3.78-6.09,5.66l.51.62c2-1.3,4-2.54,5.9-3.91,2.49-1.77,4.87-3.7,7.36-5.47a15.66,15.66,0,0,1,14.95-2c3.51,1.21,7.06,2.32,10.65,3.24,4.55,1.15,8.92.72,12.75-2.3,6-4.69,13-6.63,20.27-7.72a17,17,0,0,1,3.86-.23c-7.87,2.47-16.39,3.33-22.63,9.77,4.53-.38,8.3,1.47,12.21,3.23a37.53,37.53,0,0,0,13.67,3.08l3.7.19c-3.08,1.62-5.71.71-8.19.41a36.6,36.6,0,0,1-12.85-3.65c-3.35-1.77-7-1.56-10.59-1.09-1.72.23-3.43.64-5.15.91a24.24,24.24,0,0,1-10.06-.69c-3.17-.85-6.31-1.77-9.46-2.66a11.72,11.72,0,0,0-10.59,1.78,54.49,54.49,0,0,0-6.74,5.75,38.48,38.48,0,0,0,11-.12c2.37-.35,4.71-.92,7.08-1.33a13,13,0,0,1,9.28,2.24,18.71,18.71,0,0,0-3.95-.84,35.46,35.46,0,0,0-7.79.53,66.49,66.49,0,0,1-17.18,2.05,8.67,8.67,0,0,0-4.61,1.35c-2.86,1.58-5.86,2.9-8.77,4.39a9.87,9.87,0,0,0-3.25,2c-4.26,5.26-8.39,10.62-12.51,16a15,15,0,0,0-2.29,5.61c5.31-.55,9.79-2.59,14.67-3.5A8.66,8.66,0,0,1,484,212c-3.92,1.35-7.88,2.59-11.79,4a6.89,6.89,0,0,0-3.1,1.63c-4,4.93-9.09,8.46-14.46,11.66a2.63,2.63,0,0,0-1,1,164.27,164.27,0,0,0,28.75-2.07,23.05,23.05,0,0,1-3.85,1.32c-6.25,1-12.5,1.93-18.77,2.72-3.25.4-6.54.44-9.8.64a7.93,7.93,0,0,0-1,.1c-4.34.9-11.23,8.17-12.22,13.23,2.21.35,4.4.76,6.62,1,6.71.82,13.43,1.56,20.14,2.4,2.52.32,4.3-.63,6.05-2.42a180.92,180.92,0,0,0,18.95-22.14,3.36,3.36,0,0,1,1.45-1.27c-4.32,9.18-10.5,17.12-16.84,25,3,1.36,5.27,1.26,6.94-.85a79.37,79.37,0,0,0,7.53-10.67c2.38-4.28,4-8.94,6.08-13.42,1.16-2.55,2.41-5.05,3.63-7.58l.64.29c-1.33,3.61-2.63,7.23-4,10.82s-2.72,7.39-4.41,10.93-3.72,6.76-5.17,10.5a7.7,7.7,0,0,0,1.51-1.32,78.34,78.34,0,0,1,17.63-18.38c8.48-6.46,14.95-14.63,21.12-23.13,1.1-1.51,2.22-3,3.35-4.45.1-.14.37-.14.94-.32a20.94,20.94,0,0,1-1.12,2.09c-3.71,5.14-7.27,10.4-11.22,15.33a71.39,71.39,0,0,1-8.69,8.87c-6.16,5.42-12.26,10.88-17.31,17.39-.71.92-1.34,1.89-2.32,3.28,2.88.13,5.14.36,7.38.27a3.61,3.61,0,0,0,2.11-1.36,60.54,60.54,0,0,0,5.46-6.53,60,60,0,0,1,12.35-13c8.13-6.63,16.1-13.44,24.15-20.17a4.45,4.45,0,0,1,1.69-1c-2,3.15-5,5.38-7.71,7.89a96.08,96.08,0,0,0-8.18,8.21,10.63,10.63,0,0,0,2-.27,19.24,19.24,0,0,0,7.74-5.36c2.56-2.69,4.88-5.61,7.52-8.21a57.49,57.49,0,0,1,6.09-4.87c2.71-2,5.47-4,8.2-6a5.37,5.37,0,0,1,2.36-1.18,8.55,8.55,0,0,1-1.27,1.57c-3.21,2.45-6.51,4.77-9.66,7.28a47.5,47.5,0,0,0-5.27,4.86c-2.61,2.79-5,5.75-7.59,8.6a18.77,18.77,0,0,1-11.25,6.2,13,13,0,0,0-6.36,3.05c-4.85,4-9.28,8.26-12.58,13.68-1.4,2.31-3.23,4.36-4.92,6.61.29.25.49.59.73.63,6.27,1,12.53,1.78,18.87.47a8.45,8.45,0,0,0,6.08-4c1.22-2.06,2.57-4.06,3.63-6.21,4.9-10,11.36-18.64,20.22-25.41a26.71,26.71,0,0,1,5.27-3.29c6.71-3,12.58-7,17-12.95ZM449.24,83.25c0-1.45-1-1.1-1.85-1a26.8,26.8,0,0,0-14.23,5.83c-.49.38-1.19,1-1.17,1.44.11,2.31.42,4.6.66,6.9l.71.29c2.53-5.89,8.07-8.33,12.79-11.69a30.74,30.74,0,0,1,3.08-1.72c-2,1.81-3.81,3.94-6.06,5.35A22.94,22.94,0,0,0,434,100.11c-3.85,9.51-3.37,9.75-13.56,14.73a22.32,22.32,0,0,0-2.53,1.75c4.49.93,8.05,1.58,11.13-1.54a67.24,67.24,0,0,1,15.56-11.83,6,6,0,0,0,2.38-2.52c2.71-5.83,5.29-11.72,7.89-17.6a19.5,19.5,0,0,0,.62-2.49Zm-52.45,33.46A57.4,57.4,0,0,1,382.88,127c-2.44,1.22-4.95,2.35-7.27,3.77a66.46,66.46,0,0,0-8.93,6c-4.37,3.77-6.38,8.48-4.25,14.35.77,2.09,1.24,4.29,1.86,6.49,4-1,7.26-2.44,9.92-5,5.52-5.28,11-10.64,16.47-15.94a3.92,3.92,0,0,0,1.21-3.86c-1.05-5.09.69-9.46,3.39-13.6.54-.82,1-1.68,1.49-2.53l4.31-3.57c-1.94,3.14-4.29,5.87-6.07,8.93s-2.81,6.68-1.31,10.78a23.16,23.16,0,0,0,2-1.76c4.92-5.48,9.22-11.35,11.77-18.35.9-2.46,1.91-4.88,2.87-7.31a55.78,55.78,0,0,1,14.85-21.68,11.59,11.59,0,0,0,1.88-1.82,4,4,0,0,0,1-2.3c-.3-3.09-.83-6.17-1.28-9.27-.61.13-.87.11-1,.23-4.68,4.1-9.41,8.13-14,12.35A10.37,10.37,0,0,0,409.3,87c-1.22,3.5-2.12,7.11-3.25,10.64A80.1,80.1,0,0,1,396.79,116.71ZM279.65,180.09c4.89,5.53,8.48,11.89,11.81,18.43,3,5.8,4.05,11.77,1.73,18-1.5,4-.86,7.65,1.27,11.23,1.39,2.33,2.61,4.78,3.91,7.18l.78-.29c-.63-4.53-1.15-9.07-1.9-13.58-1-6.11-1.47-12.17.64-18.13a2.76,2.76,0,0,0-1.15-3.4c-4.37-3.52-6.77-8.18-7.95-13.59a12.51,12.51,0,0,0-1.44-3.61c-2.24-3.87-4.66-7.63-6.87-11.52a26.59,26.59,0,0,0-6.13-7.61,8.51,8.51,0,0,0-6.27-2.36,15.09,15.09,0,0,1-8.21-1.84c-5.53-2.84-11-5.79-16.51-8.67-.23-.12-.58,0-1.13,0a107.79,107.79,0,0,1,1.42,24.83c-.36,5.68-1.27,11-3.72,16.12a7.89,7.89,0,0,0-1,3.41c.16,6.22.44,12.44.8,18.64A9.55,9.55,0,0,0,242,219a12,12,0,0,1,2.77,8.53c-.23,4.58-.58,9.15-1,13.72-.47,5.43-1.08,10.86-1.57,16.29-.38,4.15,2.1,6.83,4.79,9.42.33-.28.59-.38.64-.55,2.3-6.6,4.78-13.14,6.79-19.83a69,69,0,0,1,6-14.48c1.61-2.85,3.1-5.78,4.56-8.71a18.21,18.21,0,0,0,.7-14.64,41.85,41.85,0,0,0-1.94-4.87c-5.4-10.82-8.61-22.41-11.92-34-1-3.33-1.66-6.72-2.48-10.08l.66-.2c.64,1.9,1.32,3.79,1.92,5.71,4.32,13.66,9,27.17,15.92,39.79a23.26,23.26,0,0,1,1.8,4.56c2,6.56.56,12.75-2.21,18.76-.51,1.11-1,2.22-1.52,3.34l.69.41c1.49-1.71,3-3.4,4.46-5.12a11.82,11.82,0,0,0,2.57-11.32c-.46-1.79-.51-3.68-.88-5.49a51.23,51.23,0,0,0-1.74-7.29,45.58,45.58,0,0,0-7.8-12.82,18.67,18.67,0,0,1-1.16-1.86l.69-.33c5.58,6.45,10.53,13.24,11.59,22.15a28.72,28.72,0,0,0,1,5.48c1.46,4.51.33,8.49-2.41,12a73.48,73.48,0,0,1-7.84,8.78,16.92,16.92,0,0,0-4.79,8.36c-1.86,6.85-3.89,13.65-5.7,20.51a51.78,51.78,0,0,0-1.32,8.05,4.5,4.5,0,0,0,.87,3,28.21,28.21,0,0,0,14.62,9.23c.39-.35.72-.52.84-.79a21.24,21.24,0,0,0,.95-2.44,52.72,52.72,0,0,1,10.81-19.31,146.85,146.85,0,0,1,10.95-10.8c3.45-3.12,5-6.84,4.43-11.37A21.67,21.67,0,0,0,295,235.3c-4.47-10.44-9.11-20.81-13.49-31.3-2.31-5.53-4.2-11.23-6.24-16.88a11.62,11.62,0,0,1-.28-2.48c2.48,5.79,4.69,11.36,7.24,16.77s4.89,11,8.08,16.53c2.73-6.17,3-10.6.79-16a107.27,107.27,0,0,0-5.3-10.89c-2-3.62-4.38-7-6.6-10.55Zm-58.41,75.55-.73.56c.9,3.59,1.78,7.18,2.68,10.76a60.63,60.63,0,0,0,13,25.46,102.23,102.23,0,0,1,6.65,8.92,18.11,18.11,0,0,1,3.36,11.74c-.22,3.49-.12,7-.24,10.49a10.5,10.5,0,0,0,2.09,7,12.77,12.77,0,0,1,1.61,13,35.46,35.46,0,0,0-1.95,5.9c-.57,2.88-1.18,5.88.64,8.58,5.14,7.64,10.68,14.94,18.22,20.45,4.67,3.42,9.33,6.87,14,10.28.65.47,1.39.81,2.08,1.22a17.75,17.75,0,0,0-2.25-5.18c-1.84-3-3.88-5.82-5.65-8.83a62.77,62.77,0,0,1-9.1-29.14,375.4,375.4,0,0,1,1.06-43.21c.27-3.86.34-4-3.42-5.56a43.75,43.75,0,0,1-18.75-14.38c-1.84-2.44-3.57-5-5.45-7.38-4-5.16-8-10.34-12.22-15.37A66,66,0,0,0,221.24,255.64ZM351.4,110.29a12.45,12.45,0,0,1-3.27,6.81c-1.46,1.77-3.25,3.33-4.43,5.26-2.34,3.83-5.77,5.71-10,6.83-6.32,1.68-7,2.65-8.14,9-.45,2.55-.09,4.8,1.86,6.61,3.91,3.61,4.9,8.05,4,13.15a102.8,102.8,0,0,0-1.4,11c-.2,3.27,2,4.44,4.91,2.82a26.19,26.19,0,0,0,11.39-11.91c4.2-9.16,9.69-17.94,9.84-28.52a3.71,3.71,0,0,1,.12-.65,130.7,130.7,0,0,1,5.58-22.22,21.29,21.29,0,0,0,.91-9.35c-.71-6.39-1.17-12.82-1.75-19.23a7.13,7.13,0,0,0-.41-1.34,13.76,13.76,0,0,0-5.79,4.9,123.78,123.78,0,0,0-13,22.71,41.51,41.51,0,0,1-3.79,6c-2.36,3.4-4.92,6.66-7.16,10.14-1.14,1.76-1.75,3.86-2.82,6.31,3.45-.94,6.3-1.61,9.07-2.52a6.18,6.18,0,0,0,3-1.92C343.68,119.43,348.9,116,351.4,110.29Zm-42,97.26a18.08,18.08,0,0,0-.05,8.59c.86,5,2,9.85,2.64,14.82,1.12,9,.45,17.87-4.26,26a44,44,0,0,1-8.32,10,44.36,44.36,0,0,0-14.71,31.5c-.4,8.82-.38,17.67-.45,26.5a24.16,24.16,0,0,0,.77,4.42c4.3-3.09,8.17-5.9,12.08-8.66a2.38,2.38,0,0,0,1-2.87c-.27-.94-.67-1.84-1-2.75a15.42,15.42,0,0,1-.31-11.2c.7-2,1.41-3.91,2.29-5.78a106.7,106.7,0,0,1,13.41-21.28c1.39-1.74,2.13-3.34,1.68-5.63a63.29,63.29,0,0,1-.66-7l.71-.14,1.68,8c2.8-1.67,3.12-3.71,2.47-6.2-1.11-4.22-2.24-8.44-3.07-12.72a15.13,15.13,0,0,1,4.42-14.08c2-2,4.27-3.76,6.22-5.81,2.55-2.67,5-5.49,7.32-8.34a16.32,16.32,0,0,0,1.65-3.24A204.19,204.19,0,0,0,309.44,207.55ZM300.5,92.67l-1.94-2.07c-2.54-2.72-5.31-5.25-7.56-8.18-8.67-11.25-17.16-22.62-25.73-33.95-.46-.6-1-1.16-1.47-1.73.62,3.09,1.38,6.11.17,8.88-2.09,4.78-1.91,9.6-1.8,14.64.21,9.61-.29,19.22-.44,28.83,0,2.18.13,4.37.26,6.54.16,2.5.4,5,.59,7.5.06.78.09,1.56.16,2.79A33.21,33.21,0,0,0,267.13,93a25.64,25.64,0,0,1,.53-11.68,20.82,20.82,0,0,0,.69-10.68c-.19-.84-.19-1.73-.3-2.6s-.21-1.68-.32-2.52A23.18,23.18,0,0,1,269.24,80a34.82,34.82,0,0,0-.43,13.64,32,32,0,0,1-2.09,18.61c-1,2.19-1.93,4.41-2.8,6.65a9.66,9.66,0,0,0-.78,3.13,53.25,53.25,0,0,0,.15,8.19,20.18,20.18,0,0,0,1.89,6.19c2.7,5.46,7.61,9.06,11.71,13.63.45-4.68.83-9,1.29-13.31.38-3.58.95-7.14,1.27-10.73a94,94,0,0,1,2.49-16.16,9.6,9.6,0,0,0-.15-4.45c-1.43-5.94-3-11.86-4.57-17.76a31.22,31.22,0,0,0-1.9-4.26c1.75-2.19-.65-4.81,0-7.44.65,1.72,1,3.5,1.62,5.22a5.86,5.86,0,0,0,1.53,2.77c3.64,2.77,7.4,5.39,11.16,8C293,94.25,296.52,94,300.5,92.67ZM229.87,382.8c2.25,5.14,4.38,10,6.61,15.08,2-3.25,3.93-6.46,6.94-8.79a41.31,41.31,0,0,1-2.15,3.93,51.24,51.24,0,0,0-3.32,6.73c-1.2,3.35,0,5.46,3.31,6.57.93.31,1.87.6,2.82.85,8.14,2.16,15.29,6.17,22.15,11,8.28,5.86,16.95,11.19,25.46,16.74a5.21,5.21,0,0,0,1.13.32,9.85,9.85,0,0,0,0-1.64c-.91-4.82-2.21-9.61-2.69-14.48s-2.95-8.28-6.76-11.26c-9-7.05-17.85-14.41-26.77-21.62a5.3,5.3,0,0,0-1.95-1.14c-5.28-1.33-10.55-2.78-15.91-3.78A14.92,14.92,0,0,0,229.87,382.8ZM282,95.41a9.52,9.52,0,0,1,2.07,6.85,20.31,20.31,0,0,0,2.24,10.11c1.13,2.36,2.38,4.67,3.41,7.08A32.76,32.76,0,0,1,292,125.9c1.47,7.49,2.73,15,4,22.55s2.49,15.08,6,22a12.67,12.67,0,0,1,.74,9c-.37,1.48-.94,2.92-1.2,4.42-.48,2.89-.88,5.81-1.17,8.73-.11,1.13-.14,2.49,1.75,2.81a45.61,45.61,0,0,1,3.24-3.48,6.22,6.22,0,0,0,2.27-5.51c-.39-4.45-.84-8.89-1.22-13.34-.27-3.14-.94-6.33-.62-9.41,1-9.87,2.23-19.74,3.8-29.54.85-5.24.22-9.78-2.64-14.31s-3.24-9.42-2-14.55q.69-2.86,1.1-5.79c.37-2.65-.63-4-3.29-4.16a25.11,25.11,0,0,0-5.55.05c-3.9.57-7.07-.8-9.92-3.24-1.66-1.42-3.27-2.9-5-4.26-1.07-.86-2.27-1.53-3.42-2.29l-.72.47c1.28,5.5,2.75,11,4.54,16.34l.69-.15Zm48.78,303.7.71.43a30.37,30.37,0,0,0,2.68-1.78c4.81-3.93,9.8-7.67,14.33-11.9,6.12-5.71,11-12.18,10.18-21.35-.25-2.86.9-5.57,2.3-8.1a39.08,39.08,0,0,1,9.38-10.83,160.42,160.42,0,0,1,25.85-17.24c1.37-.76,2.73-1.56,4.45-2.56-5-.72-9.41-1.21-13.77-2.06a4.37,4.37,0,0,0-4.63,1.41,44.73,44.73,0,0,1-22.63,13.72,11.5,11.5,0,0,0-7.62,6.2c-.56,1.07-1.11,2.13-1.68,3.19-2.57,4.87-5.66,9.35-10.16,12.66a4.65,4.65,0,0,0-1.83,4,59.74,59.74,0,0,1-.84,9.77c-1.44,6.49-3.29,12.88-5,19.3C332,395.68,331.34,397.38,330.77,399.11Zm88.78-190c-4-.34-6.27,1.14-7.54,4.88a21.47,21.47,0,0,1-7.82,11.06,48.41,48.41,0,0,1-6.69,4.11q-8.83,4.26-17.86,8.15a4.91,4.91,0,0,0-3.38,3.89,31.56,31.56,0,0,1-4.66,11.46c-2.83,4.28-5.67,8.57-8.86,12.57-4.89,6.14-10.11,12-15.16,18.05-.79.95-1.44,2-2.17,3.06,2.42,1.75,4.78,1.14,7,1.3a3,3,0,0,0,2.94-1.64,37.6,37.6,0,0,1,11.47-11.51q7.65-5,15.67-9.49a8.64,8.64,0,0,0,4.66-5.51c.28-1.06.7-2.07,1-3.13.94-3.59,1.84-7.18,2.75-10.78A19,19,0,0,1,398.84,234a73.24,73.24,0,0,0,6.93-5.49,41.45,41.45,0,0,1,16.72-9.31,14.73,14.73,0,0,0,2.3-1Zm-55.1,81.39A19.51,19.51,0,0,1,372.3,301c.15.49,1.17.89,1.85,1,2,.35,3.64-.71,4.93-2.08A145.22,145.22,0,0,0,388.93,289a25.86,25.86,0,0,1,13.58-9.14c6.25-1.92,12.4-4.19,18.61-6.27a4,4,0,0,0,2.93-2.77,61.76,61.76,0,0,0,2.11-15.52c0-1.76-.78-2.32-2.57-1.82a20,20,0,0,0-3.93,1.59Q408.32,261,397,266.92c-8.78,4.66-17.41,9.59-25.19,15.84A32,32,0,0,0,364.45,290.51Zm-3-159.93.67.54c5.52-4.69,12.26-7,18.7-9.91,1-.45,2-.95,2.93-1.45a31.44,31.44,0,0,0,13.9-13.43A129.69,129.69,0,0,0,409,75.06a23.72,23.72,0,0,0,.28-2.66,34.85,34.85,0,0,1-3.63,1.09c-3.54.64-5.29,2.74-6.3,6.18A56,56,0,0,1,395,89.87c-2.85,5.42-7,9.09-13.58,9.29a8.6,8.6,0,0,0-6.56,3.25c-3.3,4.07-6.5,8.2-9.69,12.34a5.44,5.44,0,0,0-.86,2.11C363.37,121.43,362.43,126,361.48,130.58Zm62.85,53.22a12,12,0,0,0-.9,3.09c0,3.38.2,6.77.42,10.14a18.55,18.55,0,0,0,1.49,7.38c2.37-1.19,4.78-2,6.73-3.48,6.09-4.53,12.88-7.78,19.62-11.12.74-.37,1.41-.88,2.54-1.6-1.66-1-3-1.73-4.23-2.51-2.78-1.72-5.7-3.26-8.29-5.24-3.19-2.43-3.6-5.57-1.44-9a15.15,15.15,0,0,1,3-3.45c3.68-3.08,7.51-6,11.22-9,2.86-2.36,5.71-4.74,8.39-7.29a8.39,8.39,0,0,0,2.91-6c-2.68.49-5.12.87-7.53,1.39-4,.87-8.14,1.62-12.09,2.82-3.26,1-3.72,2-2.94,5.44,1,4.19-.5,7.33-3.92,9.58-2.27,1.49-4.76,2.64-7.14,4-.85.47-2,.8-2.45,1.53a30.92,30.92,0,0,0-4,8.07l1.92,1c-2.5.37-3.82,1.62-4.24,3.92Zm1.6,23.25c1,3.48,3.51,5.57,5.27,8.16a5.2,5.2,0,0,0,5,2.43c5.45-.14,10.91-.06,16.37-.16a25,25,0,0,0,5.18-.56,8.93,8.93,0,0,0,3.43-1.64c6.08-4.83,7.57-15.79.54-21.6-.76-.63-1.49-1.29-2.18-2-1.95-2-3.89-2.19-6.4-.74-6.6,3.82-13.62,6.89-19.65,11.7C431.27,204.4,428.59,205.52,425.93,207.05Zm-34.5,53.06a19.45,19.45,0,0,0,1.86-.57c6.76-3.07,13.52-6.12,20.25-9.27a10,10,0,0,0,2.82-2.16,70.42,70.42,0,0,1,13.54-10.79,22.75,22.75,0,0,0,2.62-1.94,3,3,0,0,0,.8-4.08q-2.31-4.14-4.61-8.28c-.94-1.68-2.26-2.08-4.14-1.59a34.25,34.25,0,0,0-13.15,6.4c-4.16,3.35-8.27,6.78-12.35,10.23a13.27,13.27,0,0,0-4.54,8.75l2.78-2.11c3.76-2.82,7.4-5.8,11.31-8.39a15.6,15.6,0,0,1,6.84-2.81c3.29-.28,6.67.48,10,.79a23.29,23.29,0,0,1-7.18.48,12.1,12.1,0,0,0-9.1,2.86c-3.48,2.83-6.88,5.76-10.52,8.34C393.9,249.35,392,254.07,391.43,260.11Zm48.87,79.76c-.45-.27-.65-.49-.82-.46-5.49.76-11,1.41-16.45,2.4a15.61,15.61,0,0,0-8.21,4.48c-5.73,5.71-12.64,8.19-20.71,8.07-9.22-.15-9.22,0-15.3,6.95-.15.16-.28.34-.44.49-2.63,2.53-2.75,5.45-1.32,8.93,1.05-.4,2-.76,3-1.15,6.39-2.49,12.69-5.28,19.2-7.42,7.16-2.35,14.66-3.18,22.18-3.74,2-.15,4.33-.25,6-1.22C434.21,353.29,438,347.09,440.3,339.87ZM283.37,111.5a33.35,33.35,0,0,0-2,11c-.19,3.59-.65,7.17-.9,10.76-.4,5.65-.72,11.3-1.08,17a9.57,9.57,0,0,0,1.85,6.12c2.07,3.07,4,6.27,5.82,9.48,3.32,5.71,5.31,11.94,7,18.3.45,1.73,1.14,3.41,1.71,5.11a76.19,76.19,0,0,0,3-8.5,14.81,14.81,0,0,0-.46-10.81,73.87,73.87,0,0,1-3.38-11.24c-.76-3.29-1-6.68-1.54-10-1-6.69-2.18-13.35-3-20.06C289.52,122.28,286,117.12,283.37,111.5ZM543,333.21c9.34.19,18.61,1,27.85-.48,2.64-.41,5.17.25,8.11,1.1-2.92,0-5.3-.09-7.67,0-1.85.1-3.67.62-5.51.68-8,.3-15.93.76-23.89.62-4.47-.08-7.84,1.91-12.1,4.19,1.57.13,2.39.25,3.22.25,4.91,0,9.83.1,14.74,0a91.74,91.74,0,0,1,22.78,2c3.29.75,6.61,1.44,9.92,2.12,7.69,1.58,14.51,0,20.22-5.6,1.24-1.22,2.62-2.31,3.88-3.52a14.54,14.54,0,0,0,1.37-1.81c-3.45-.26-6.48-.57-9.53-.7-7.63-.34-15.27-.5-22.9-.91-4.79-.25-9.67-.34-14.32-1.37C553.06,328.42,548,330.61,543,333.21ZM345.07,245.82a6.6,6.6,0,0,0,1.21-.28,11.22,11.22,0,0,0,1.34-.95A44.08,44.08,0,0,1,361.3,237c1.95-.71,3.86-1.53,5.81-2.24a2.69,2.69,0,0,0,2-2.68c.15-2.5.39-5,.67-7.49,1.51-13.43,4.58-26.45,10.39-38.72.41-.87.75-1.76,1.32-3.11-1.78.3-3.14.65-4.51.74-2.19.14-3.24,1.34-3.88,3.32-1.16,3.64-2.35,7.28-3.8,10.81-1.7,4.12-3.68,8.13-5.58,12.17-1,2.06-2.13,4-3.05,6.11a34.62,34.62,0,0,1-5.4,9.29,42.79,42.79,0,0,0-4.36,6.13A47.86,47.86,0,0,0,345.07,245.82Zm-123.7-84.95c.66-3.24,1.18-5.9,1.76-8.54.77-3.55-.25-6.6-2.25-9.55s-3.82-6.06-5.6-9.17c-1.57-2.75-2.86-5.65-4.51-8.34a6,6,0,0,0-3-2.67c-5.12-1.39-10.32-2.46-15.93-3.74a29.3,29.3,0,0,0,0,4.26c.33,2.15.91,4.26,1.33,6.39,1.71,8.67,6.65,14.46,15.1,17.25a14.39,14.39,0,0,1,7.4,5.68C217.46,155,219.2,157.65,221.37,160.87ZM520.88,323.12c1.42-.26,2.57-.44,3.72-.68,10.59-2.12,20.57-5.72,29.61-11.77a19.13,19.13,0,0,1,6.55-2.81,73,73,0,0,0,13.78-4c.13-.06.36.11.54.17l-.36,1.72,21.26-9a130.31,130.31,0,0,0-13.7.22c-7.17.47-14.25,2-21.51,1.69a21.86,21.86,0,0,0-7.71,1.2c-9.16,3.1-16.67,9-24.08,14.95C526.13,317.11,523.82,320.07,520.88,323.12Zm-390-125.77a10.3,10.3,0,0,0-.66-1c-2.87-3.7-6.13-7.17-8.5-11.16-2.26-3.8-5.25-5.1-9.36-5.35a48.13,48.13,0,0,1-8.64-1.52c-2.7-.68-5.3-1.74-8.54-2.83a54.83,54.83,0,0,0,1.42,5.69c1.07,2.89.32,5-2,6.91a14.89,14.89,0,0,0-3.12,3.32c-1.5,2.27-.68,4,2,4.52.32.06.65.07,1,.11,7.92.82,15.83,1.66,23.74,2.46,2.93.3,5.86.53,8.8.74C128.44,199.3,129.9,199,130.83,197.35Zm122.8-119-.57,0a37.53,37.53,0,0,0-1.06,4c-.38,2.48-.52,5-.92,7.46-.87,5.34-3.38,10.11-5.38,15a30.64,30.64,0,0,0-1.74,4.23c-.62,2.72-2,5.62-.39,8.27,2.71,4.46,5.65,8.79,8.77,13,1.82,2.46,4.77,3.5,7.48,4.86a4.65,4.65,0,0,0,.35-1c-.13-7.3-.26-14.6-.43-21.9a42.28,42.28,0,0,0-.35-6.86c-1.59-8.46-3.37-16.9-5.1-25.34A10.84,10.84,0,0,0,253.63,78.37ZM460.1,266.3c-1.37.95-3.15,1.68-4.19,3-4.65,5.91-9.11,12-13.59,18a29.15,29.15,0,0,0-1.82,3.21c3.12,1,5.67,1.3,8.33-.54a95.23,95.23,0,0,1,8.76-5.1c10.88-5.92,18.88-14.29,22.72-26.29.33-1,.81-2,1.15-3.06a19.94,19.94,0,0,0,.47-2.11c-2.49.13-2.54.08-4.22,1.71a12.67,12.67,0,0,1-8.39,4c-4.76.18-7.9,2.56-10.1,6.62Zm-134-89.53c-2.55-3.47-2.55-7-1.94-10.66s1.23-7.32,1.73-11a6.66,6.66,0,0,0-2-6,14.05,14.05,0,0,1-4.06-8.42c-.36-3-.54-6.07-.7-9.12-.23-4.46-.37-8.94-.57-13.41a4.84,4.84,0,0,0-1.39-3.78c-1,6.4-1.66,12.77-2.26,19.15-.91,9.45-1.65,18.92-2.73,28.35a26.77,26.77,0,0,0,.11,8.43c.87,4.34,1.61,8.7,2.48,13.42Zm97.24,159.35,16.64-1a2.35,2.35,0,0,0,2.34-1.92c1.5-6.17,5.06-11.3,8.36-16.56.38-.6.64-1.27,1.23-2.46-7.26,0-14,0-20.76.05a3,3,0,0,0-2.19,1.05c-1.88,3-3.58,6.16-5.55,9.63l7-.37.09.7a32.58,32.58,0,0,1-4.34.84,10.47,10.47,0,0,0-7,3,106.27,106.27,0,0,1-9.47,7.52c-1.91,1.44-4,2.67-5.95,4.06a11.87,11.87,0,0,0-1.67,1.95c1.14-.07,1.67-.07,2.18-.14a26.75,26.75,0,0,0,11-4.09c5.82-3.65,11.49-7.52,17.22-11.29.88-.58,1.64-1.52,3.55-1.37ZM346.74,220.63a18.31,18.31,0,0,0,6.7-9.9,54,54,0,0,0,1.61-6.34c.59-4.11.87-8.27-.27-12.35-.86-3.08-1.58-3.52-4.39-2.2-4.74,2.22-9.44,4.53-14,7.1a27,27,0,0,0-5.5,4.59,7.08,7.08,0,0,0-2.17,6.27,4.09,4.09,0,0,0,1.23,2.51c2,1.39,4.23,2.51,6.95,4.08.14-3.52.25-6.31.36-9.1H338c.16,2.58.35,5.15.48,7.72.07,1.21,0,2.41,1.25,3.18C342.07,217.62,344.35,219.1,346.74,220.63Zm-10,2.6a14.69,14.69,0,0,0-1.25,1.66,45.88,45.88,0,0,1-8.77,10.94c-1.42,1.36-2.87,2.68-4.24,4.09a14,14,0,0,0-3.8,14.14c.86,3.27,1.95,6.47,3,9.69a6.52,6.52,0,0,0,1,1.45c2.86-2.56,5.48-5,8.22-7.31a6.25,6.25,0,0,0,2.32-4.1,79.07,79.07,0,0,1,6.95-22.08C342.8,226.33,342.71,226.09,336.7,223.23Zm146.93,125.6.42.59c2.13-.78,4.29-1.51,6.4-2.35,7.29-2.91,14.32-6.54,22.18-7.84a8,8,0,0,0,1.83-.7c8.21-3.56,16.44-7.09,24.63-10.7a5.45,5.45,0,0,0,2.44-2c1.43-2.52,2.63-5.17,4-7.91a5.1,5.1,0,0,0-1.08.2c-9.1,4.2-18.72,6.52-28.59,8a6.51,6.51,0,0,0-2.42.93c-3.13,2-6.32,3.89-9.3,6.1-6.41,4.73-12.7,9.63-19,14.47C484.6,348,484.12,348.43,483.63,348.83Zm-38.56-243-.66-.57a20.27,20.27,0,0,0-2.76,1.6c-3.7,3.05-7.49,6-11,9.3-3.27,3.07-6.83,4.13-11.1,2.95a17.76,17.76,0,0,1-2.52-.72,3.82,3.82,0,0,0-4.5.87,19.06,19.06,0,0,0-2.73,2.81,7.15,7.15,0,0,0-.65,7.13l3.06-2.19a11.7,11.7,0,0,1-1.73,2.94A2.83,2.83,0,0,0,410,132c1,2.47,1.88,5,3.67,7.3,4.49-2.14,8.84-4.16,13.13-6.3a6.17,6.17,0,0,0,2.11-2q7.31-10.68,14.49-21.43A25.66,25.66,0,0,0,445.07,105.79Zm35.61,176.43c-2.87,3.11-5.8,6.16-8.6,9.33a12.72,12.72,0,0,1-9.51,4.36c-4.79.2-9.57.4-14.36.46a7.82,7.82,0,0,0-4.84,1.55A17.89,17.89,0,0,1,438,301c-3.81,1.08-4.75,4-5.81,7.36a14.13,14.13,0,0,0,2.6.7c6.41.4,12.83.81,19.25,1a6.34,6.34,0,0,0,3.18-1.32c2.46-1.6,4.76-3.46,7.26-5a42.9,42.9,0,0,0,10.05-8.29C477.82,291.75,480.21,287.54,480.68,282.22Zm39.63-30.58c-2.25.31-4.5.73-6.76.88a65.41,65.41,0,0,1-6.86,0c-1.85-.08-3.7-.26-5.53-.51a6.09,6.09,0,0,0-6.25,2.54c-1.3,1.74-3,3.18-4.2,5a56.41,56.41,0,0,0-4.25,8,6.82,6.82,0,0,0-.08,5.31l4.11-3.62.49.53c-1.28,1.59-2.5,3.24-3.86,4.76-1.77,2-1.89,4.19-1.3,6.86C498.81,273,509.37,262.14,520.31,251.64ZM377.77,229.39c3.76-3.13,5.2-5.21,6.62-9.3,2.45-7.06,5.44-13.84,10.77-19.29,3-3.12,6.27-6.07,9.32-9.19a20.78,20.78,0,0,1,10.88-6.27c2.4-.49,2.53-1.14,1-3.74a28.72,28.72,0,0,0-10.34,3.78c-3.71,2.05-7.15,4.66-11.54,5.22a2.44,2.44,0,0,0-.87.43c-4.09,2.56-8.06,5.32-11,9.21a19,19,0,0,0-3.22,6c-2.06,7.31-2.15,14.87-2.09,22.41C377.35,228.81,377.54,229,377.77,229.39Zm65.7-89.62,1.92-1.31a98.46,98.46,0,0,1-4.71,8.95c-1.63,3.08-3,6.31-4.45,9.47l-4.2,9,.55.48c1.14-.55,2.32-1,3.42-1.66,5.12-2.9,5.87-4.42,5.16-10.19-.35-2.81.37-4.32,2.95-5.55a19.66,19.66,0,0,1,4.63-1.59c4.8-1,9.64-1.76,14.47-2.64,3.05-.56,3.57-1.44,2.05-4.21a44.08,44.08,0,0,0-3.92-5.61c-1.27-1.64-2.89-3-4-4.77a43.16,43.16,0,0,1-2.51-5.79c-2.76,1.27-5.53,2.5-8.25,3.85a2.5,2.5,0,0,0-1.07,1.51C444.82,132.9,444.21,136.09,443.47,139.77ZM293.17,364.25a5.77,5.77,0,0,0,1.2-.74c3.24-4.25,6.56-8.43,9.61-12.81a11.75,11.75,0,0,0,1.62-4.88c.69-4.74,1.19-9.51,1.72-14.28a21.29,21.29,0,0,0-.17-3,67.18,67.18,0,0,0-13.29,10.28,75.71,75.71,0,0,0-6.58,8.49,4.34,4.34,0,0,0-.81,3A34.81,34.81,0,0,0,293.17,364.25ZM442.61,131l-.67-.69c-4.18,2.05-8.37,4.09-12.52,6.19a5.15,5.15,0,0,0-1.36,1.39c-3.29,3.94-6.59,7.86-9.81,11.84a4.19,4.19,0,0,0-1.17,2.55c.4,3.41,1.08,6.78,1.72,10.52,4.61-2.5,8.88-4.66,13-7.12a8.2,8.2,0,0,0,3.16-3.61c2.5-5.92,4.76-11.93,7.05-17.94A18.85,18.85,0,0,0,442.61,131ZM363.25,183.2c3.18.24,4.86-.74,5.95-3.43,3.68-9,8.65-17.24,17-22.66,3.92-2.54,5.45-5.94,5.78-10.28.1-1.31.41-2.59.52-3.89a27.67,27.67,0,0,0-.13-3c-1.18,1.14-2,1.86-2.7,2.61-3.06,3.11-6.07,6.27-9.18,9.33-3.66,3.6-7.33,7.13-12.41,8.81-2.49.83-3.51,2.79-3.54,5.61,0,4.35-.6,8.69-.95,13C363.54,180.53,363.4,181.71,363.25,183.2Zm-39.5-55.55.6.15c.44-.92.92-1.82,1.32-2.76a44.91,44.91,0,0,1,9.66-14.66,16.66,16.66,0,0,0,4.82-8.72c.81-3.83,1.44-7.7,2.11-11.57.18-1.07.25-2.16.37-3.24-4.42,5.24-9.52,9.3-14.79,13.21-2.09,1.55-4,3.39-5.91,5.13a3.9,3.9,0,0,0-1.07,5,37.17,37.17,0,0,1,2.67,14.38C323.54,125.57,323.68,126.61,323.75,127.65Zm89.14,27.42c-9.07,6.27-16.27,13.32-21.81,22.7,1.88-.32,3.25-.65,4.63-.75s2.79,0,4.18,0a2.08,2.08,0,0,1-1.64.68c-5.72.15-10.11,2.18-12,8.11-.52,1.65-1.41,3.19-2.07,4.8-.33.84-.52,1.74-1,3.25,2.21-1.5,3.75-2.7,5.43-3.66a37.3,37.3,0,0,0,9.65-8.26c4.48-5.21,8.77-10.61,14.3-14.79A2.83,2.83,0,0,0,414,164.4C413.58,161.5,413.28,158.59,412.89,155.07Zm-61.5,31.06a33.05,33.05,0,0,0-3.43-1.68c-2.38-.8-4.81-1.43-7.19-2.24a4.24,4.24,0,0,0-4,.6c-2.54,1.71-5.24,3.2-7.67,5-4.7,3.54-9.29,7.24-13.86,11a21.21,21.21,0,0,0-2.47,2.93l11,5.5c.39-.32.51-.37.55-.46a6.1,6.1,0,0,0,.45-1.21,13.6,13.6,0,0,1,6-9,91.77,91.77,0,0,1,9.85-5.8C343.88,189.12,347.28,187.88,351.39,186.13Zm-6.94-91,.5.09c2.58-3.76,5-7.67,7.79-11.24a39.72,39.72,0,0,1,6.58-6.24,5.18,5.18,0,0,0,2-3.46c.81-4,1.77-8.06,2.9-12,.92-3.21,2.18-6.32,3.28-9.47a87.75,87.75,0,0,0-8.81,6.83,25.41,25.41,0,0,0-6,7.66c-1.27,2.39-2.87,4.61-4.26,6.94a10.59,10.59,0,0,0-1.71,3.47C345.83,83.5,345.18,89.33,344.45,95.14Zm-33.31,255.2c-2.26,3.69-4.31,7.15-6.48,10.54-1.65,2.57-3.39,5.09-5.23,7.52a3.69,3.69,0,0,0-.21,4.73c1.75,2.89,3.19,6,4.73,9,.79,1.52,1.53,3.08,2.48,5a16.73,16.73,0,0,0,1.41-2.27c1.88-4.65,3.77-9.3,5.53-14C316.05,363.68,314.48,356.94,311.14,350.34Zm42.37-27.43c-1.29.4-2.31.7-3.31,1-2.05.71-4.08,1.53-6.16,2.17-4,1.24-5.4.76-7.89-2.5a11.07,11.07,0,0,0-4.22-3.87c-4.22,8.05-2.78,20.61,3.07,27.62,2.59-2.28,4.18-5.25,5.8-8.2,2.52-4.56,5.63-8.56,10.39-11C353.28,327.11,353.38,325.21,353.51,322.91Zm139.42-71c-1.74,0-2.61.07-3.46,0a4.62,4.62,0,0,0-5.25,3.44c-.87,2.47-1.86,4.9-2.78,7.35a43.35,43.35,0,0,1-10.79,16.62c-4.56,4.32-9.9,7.52-15.23,10.75-.85.52-1.66,1.12-2.49,1.69a65.81,65.81,0,0,0,10.07.53,9.68,9.68,0,0,0,7.09-2.89c2.88-2.83,5.69-5.75,8.71-8.43a9.07,9.07,0,0,0,3.24-7.44,23.6,23.6,0,0,1,6.39-16.4C489.81,255.66,491.1,254.08,492.93,252Zm-31.63,2.66-15.95-1.33c-2.5-.21-5-.51-7.49-.59s-2.71.21-2.88,2.45c-.28,3.59-.5,7.17-.69,10.76a13.15,13.15,0,0,0,.29,2.28,8.37,8.37,0,0,0,2.06-.77c3.77-2.88,8-3.19,12.44-2.29a3.21,3.21,0,0,0,3.23-1C455.22,261,458.15,257.93,461.3,254.61Zm-73.44-38,.9.75a18.93,18.93,0,0,1,1.08-1.92c4.19-5.63,9.63-8.66,16.81-8.32,2.46.12,2.68-.25,3.65-2.88,1.95-5.32,3.92-10.63,5.85-15.95a6.93,6.93,0,0,0,.14-1.8,14.51,14.51,0,0,0-9.39,4.59c-4.06,4.11-8.08,8.26-11.95,12.55C391.56,207.39,389.66,212,387.86,216.62Zm20.58-99.3c3.65-1.87,6.69-3.45,9.75-5,2.24-1.12,4.56-2.08,6.77-3.25a9.07,9.07,0,0,0,5.12-8.15c.08-2.61,0-5.22-.06-7.83a9.44,9.44,0,0,0-.58-2.16,6.28,6.28,0,0,0-1.44.48c-3.84,2.69-7.67,5.38-11.45,8.13a5.14,5.14,0,0,0-1.64,2C412.77,106.62,410.72,111.73,408.44,117.32Zm3.16-68.65c-2.18,1.91-3.92,3.18-5.35,4.74-3.13,3.42-5.56,7.12-5.69,12.11A31.29,31.29,0,0,1,397.12,79a48.57,48.57,0,0,1-11.45,14.15c-1.12,1-2.22,2-3.84,3.41,3.14.4,5.34-.1,6.93-1.84a42.52,42.52,0,0,0,5.82-7.4,66.9,66.9,0,0,0,4-9.62c.95-2.54,2.43-4.33,5.21-4.85,1-.17,1.88-.59,2.84-.77a4.18,4.18,0,0,0,3.77-4.2c.25-3,.92-6,1.12-9.08S411.6,52.62,411.6,48.67Zm5.67,264.54c-3.12-.24-5.7-.46-8.28-.65-4.25-.32-8.49-.67-12.74-.88a4.56,4.56,0,0,0-3.06.66,32.9,32.9,0,0,0-5.8,7.36c.6.36.85.61,1.14.66,4.71.91,9.43,1.85,14.16,2.64a6,6,0,0,0,3.52-.23A34,34,0,0,0,417.27,313.21ZM449.4,331.9c1.64-1,3.33-1.87,4.9-2.95a44.58,44.58,0,0,1,14.5-6.62,16.68,16.68,0,0,0,4-1.51,13.79,13.79,0,0,0,6.1-5.94c-.35-.27-.51-.52-.67-.52-5.89,0-11.77-.08-17.65,0a3.33,3.33,0,0,0-2.2,1.16A50.43,50.43,0,0,0,449.4,331.9Zm.09-65.25c-4.09-.46-7.6-1-10.72,1.54a8.23,8.23,0,0,1-2.28,1.27,5.92,5.92,0,0,0-3.84,4.46,27.16,27.16,0,0,1-10.33,14.71c-.53.4-1,.9-1.84,1.71,3.32-.22,6-.25,8.72-.66a4.68,4.68,0,0,0,2.79-1.89,127.58,127.58,0,0,1,13.39-16.47C446.68,269.91,447.91,268.44,449.49,266.65Zm-50.08,37.92a26.06,26.06,0,0,0,2.79.71c4.21.52,8.45.88,12.65,1.51,7.08,1.07,5.75,1.07,9.15-4.89,1-1.74,1.8-3.58,2.9-5.83a17.8,17.8,0,0,0-2.53,0c-5.89,1.07-11.78,2.2-17.67,3.25A10.35,10.35,0,0,0,399.41,304.57ZM384.2,227.72l.4.53c5.95-2.33,11.93-4.67,17.11-8.54,3-2.24,4.82-5.41,6.07-9.18a10.88,10.88,0,0,0-1.86-.45,13.63,13.63,0,0,0-11.6,4.9C390.83,219.13,387.56,223.46,384.2,227.72ZM88.11,191.47l6-5.54a3.2,3.2,0,0,0,1-3.52A29.29,29.29,0,0,1,94,177.32c-.49-4.83-3.57-7.77-7.21-10.34a11.2,11.2,0,0,0-2.3-.77c2.09,5.27,1.36,10.18,1.43,15a43.24,43.24,0,0,0,.24,5.22C86.44,188.27,86.71,190.13,88.11,191.47Zm316.45-66.38c-3,3.69-6.11,7.35-9,11.14a7.61,7.61,0,0,0-1.29,3.53c-.44,3.23-.69,6.49-1,9.74-.05.57,0,1.15,0,2.25,2.17-1.46,3.9-2.56,5.56-3.77a2.59,2.59,0,0,0,1-1.57c.43-4.09,2.77-7.3,4.86-10.6a5.5,5.5,0,0,0,.81-4.63A55.53,55.53,0,0,1,404.56,125.09ZM319.23,298c.35-.58.61-.92.78-1.29,2.92-6.46,5.86-12.91,10.79-18.2a3,3,0,0,0,.79-1.73c.09-2.35,0-4.71,0-7.07-.55,0-.84,0-.94.08-3.93,4.52-7.87,9-11.71,13.61a3.85,3.85,0,0,0-.55,2.45C318.62,289.8,318.93,293.7,319.23,298Zm23.47-31c8.11-7.33,16.16-14,22-23a7.38,7.38,0,0,0-2.5.56c-7.44,2.84-12.74,8.64-18.71,13.51a2.37,2.37,0,0,0-.82,1.36A20.66,20.66,0,0,0,342.7,267.07Zm-126.29,121c5.6,5.35,9.17,12,16.9,14.94A46.35,46.35,0,0,0,226,383.91Zm171-90.85a11.25,11.25,0,0,0,7.08-3.38,38,38,0,0,1,12.67-8.55,82.55,82.55,0,0,0,9.76-5.34,27.49,27.49,0,0,0,3.5-3c-5.76,1.56-11.05,4-16.58,5.54C396,284.74,391.55,290.4,387.37,297.26Zm-71.2-8.85c-.47.17-.75.18-.85.33A70,70,0,0,0,306,306.67c-1,2.91.17,5.49,2.08,7.66,1.88-.18,2.59-1.29,3.07-2.74,1.5-4.55,3.11-9.07,4.55-13.64A16.65,16.65,0,0,0,316.17,288.41Zm72.91-126.2c-7.22,4.83-10.81,11.63-13.85,19.24,1.33,0,2.27,0,3.21,0a6.74,6.74,0,0,0,6.27-3.91,24.53,24.53,0,0,1,3.42-5.17C390.84,169.29,390.42,166.06,389.08,162.21Zm-32.82,17.92c2-5.1,2.6-19.46.73-23a59,59,0,0,1-10.57,18.46ZM336.83,314.27a30.89,30.89,0,0,1,3.05,3.59c1.29,2.09,2.91,2.19,5,1.46,2.87-1,5.81-1.8,8.73-2.63,3.29-.93,4.38-2.41,4.29-6.3A55.8,55.8,0,0,0,336.83,314.27Zm152.93-12.61c-4.48-.79-23.23,5.8-25.48,8.95,5,.24,9.87.53,14.77.68a4.43,4.43,0,0,0,3-.74C484.74,307.72,487.18,304.68,489.76,301.66Zm16.37,3.2c-4-.91-8-1.86-12-2.7a2.26,2.26,0,0,0-1.79.4,48.54,48.54,0,0,0-7.54,9C493.3,312.76,499.87,309.57,506.13,304.86ZM398.48,187l18-7.81A58.41,58.41,0,0,0,414.23,169C407.52,174.32,403.28,180.94,398.48,187Zm37.62,33-.58.77,4.45,7.67c5.27-3,10.12-5.82,15-8.62l-.19-.47Zm197.17,95.06c-8.59-.79-16.13-.16-22.91,4.6,4.33.48,8.64.59,12.94.75C627.37,320.61,630.25,318.56,633.27,315.11ZM431,158.68a50,50,0,0,0-10.81,6,2.5,2.5,0,0,0-.84,2c.52,3.18,1.21,6.32,1.84,9.47l.78.07A194.58,194.58,0,0,0,431,158.68ZM533,273.63c7.2-4.77,13.92-9.19,20.6-13.67,1.92-1.29,2-1.87,1.26-4.37l-17.74,10.8C534.55,267.91,533.39,270.23,533,273.63ZM434.63,128.86l.31.45c1.87-.77,3.71-1.63,5.63-2.28a4.29,4.29,0,0,0,3.17-4.08c.62-6.79,3.38-12.81,6.82-18.58.41-.69.74-1.42,1.2-2.29a4.16,4.16,0,0,0-4,3.17,41.91,41.91,0,0,1-2.88,6.58c-2.76,4.83-5.72,9.55-8.6,14.31C435.72,127.05,435.18,128,434.63,128.86ZM259.2,92.45c1.12-3.61,1.72-25.15,1.11-27.34a7,7,0,0,0-.77,1.1c-1.34,3-2.71,5.92-3.94,8.93a4.27,4.27,0,0,0-.21,2.52C256.6,82.61,257.92,87.52,259.2,92.45ZM451.61,335c9.54,2,16-2.48,22-8.22-3.88.43-7.88.67-11.44,2S455.46,332.7,451.61,335ZM309.5,99.88c-2.05,7-3,13.24,1.47,19.18,1.16-3.89,2.29-7.58,3.32-11.29a2.42,2.42,0,0,0-.25-1.83C312.71,104,311.25,102.2,309.5,99.88Zm91.34,53.63a3.61,3.61,0,0,0-1.1.23c-1.86,1.33-3.72,2.65-5.54,4-3,2.27-3.42,4.91-1.43,8.49,2.25-2.24,4.57-4.36,6.66-6.69A6.59,6.59,0,0,0,400.84,153.51Zm43.83-73c3-.32,5.35-.57,7.72-.85a18.75,18.75,0,0,0,2.9-.53,2.74,2.74,0,0,0,1.6-.94c.89-1.68,1.94-3.37,1.81-5.44C454.94,73.1,448.39,76.66,444.67,80.54ZM336.5,303.07l17.61-2.25c-5.22-.44-10.36-1-15.35-3.77Zm74.13-156.42c-1.75,1-3.51,2-5.21,3.13-2.88,1.86-3,2.37-2,6.66,2.36-1.77,4.61-3.37,6.77-5.09C412.06,149.89,412.05,149.54,410.63,146.65Zm-8.93-1.44.55.6c1.95-1.14,3.95-2.21,5.82-3.47a2.33,2.33,0,0,0,.9-1.86,8,8,0,0,0-2.46-5C404.42,138.72,402.61,141.74,401.7,145.21ZM186.3,107l-.64.31a39.38,39.38,0,0,0,1.72,6.06c1.49,3.26,3.49,3.41,6.28.54C191.62,111.19,188.92,109.16,186.3,107ZM419,94.2l.5.43c2.52-1.68,5.05-3.34,7.57-5,2.74-1.84,2.84-2.3,1.06-5.77C424.7,87,421.42,90.22,419,94.2ZM379.17,310.56c-1.33-.08-2.46-.2-3.59-.21-3.73-.06-4.36.63-4.21,4.54C375.58,315.84,376.35,315.45,379.17,310.56Zm39.51-104.51c-.23-3.17-.44-5.92-.66-8.92-1.89,3.61-2.9,7.33-2.63,9.72Zm-55.09-12.83c.79-2.45,2.6-4.57,2.46-7.39C361.79,186.14,361.28,187.75,363.59,193.22Zm42.77,152.25c-2.85,0-5.31.06-7.78,0-1.4-.05-2.43.22-3,1.85A18.89,18.89,0,0,0,406.36,345.47ZM373.31,37.22c-.57,2.56-1.13,5.11-1.7,7.67Q375.78,41.74,373.31,37.22ZM428.1,242.65,424,246.07C427.62,246.18,427.62,246.18,428.1,242.65Zm-8.69-100-.54-.54c-3.49,1.31-3.53,1.35-3,3.43Zm52.06,112.25-.06-.44-2.86.31.08.62Zm154.16,75.85v.19L627,331v-.26Z"/>
</svg>
