<?xml version="1.0" standalone="no"?>
<!DOCTYPE svg PUBLIC "-//W3C//DTD SVG 20010904//EN"
 "http://www.w3.org/TR/2001/REC-SVG-20010904/DTD/svg10.dtd">
<svg version="1.0" xmlns="http://www.w3.org/2000/svg"
 width="512.000000pt" height="512.000000pt" viewBox="0 0 512.000000 512.000000"
 preserveAspectRatio="xMidYMid meet">
<metadata>
Created by potrace 1.11, written by Peter Selinger 2001-2013
</metadata>
<g transform="translate(0.000000,512.000000) scale(0.100000,-0.100000)"
fill="#000000" stroke="none">
<path d="M2430 4555 l0 -455 -24 0 c-52 0 -208 -32 -314 -66 -554 -173 -972
-650 -1073 -1224 -28 -158 -28 -382 0 -540 99 -565 507 -1039 1051 -1220 97
-33 270 -70 324 -70 l36 0 0 -435 0 -435 135 0 135 0 0 430 c0 336 3 431 13
434 6 2 60 11 119 20 321 51 600 196 843 440 300 301 446 642 462 1078 l6 158
-724 2 -724 3 -3 578 -2 577 30 0 c88 0 295 -62 425 -127 114 -57 244 -152
337 -245 l87 -87 98 80 c54 44 99 83 101 88 5 16 -191 204 -276 264 -216 155
-434 245 -690 286 l-107 17 -3 317 -2 317 650 0 650 0 0 135 0 135 -780 0
-780 0 0 -455z m0 -2015 l0 -1290 -32 0 c-95 1 -291 61 -432 133 -349 178
-588 491 -682 892 -15 64 -19 119 -19 270 0 174 3 199 28 296 113 438 415 775
827 924 89 32 220 63 273 64 l37 1 0 -1290z m1420 -167 c-1 -89 -54 -263 -125
-409 -148 -305 -412 -538 -737 -652 -93 -33 -218 -62 -268 -62 l-30 0 0 575 0
575 580 0 580 0 0 -27z"/>
</g>
</svg>
